M48
; DRILL file {KiCad (6.0.4-0)} date Sunday, 23 April 2023 at 00:41:05
; FORMAT={-:-/ absolute / metric / decimal}
; #@! TF.CreationDate,2023-04-23T00:41:05+09:00
; #@! TF.GenerationSoftware,Kicad,Pcbnew,(6.0.4-0)
; #@! TF.FileFunction,Plated,1,2,PTH
FMAT,2
METRIC
; #@! TA.AperFunction,Plated,PTH,ViaDrill
T1C0.400
; #@! TA.AperFunction,Plated,PTH,ComponentDrill
T2C0.800
; #@! TA.AperFunction,Plated,PTH,ComponentDrill
T3C0.813
; #@! TA.AperFunction,Plated,PTH,ComponentDrill
T4C1.000
; #@! TA.AperFunction,Plated,PTH,ComponentDrill
T5C1.016
; #@! TA.AperFunction,Plated,PTH,ComponentDrill
T6C3.048
%
G90
G05
T1
X112.776Y-85.217
X116.586Y-85.725
X124.714Y-90.551
X124.968Y-80.645
X132.08Y-80.645
X134.366Y-85.471
X142.494Y-81.407
T2
X148.844Y-101.66
X148.844Y-109.16
X154.813Y-101.66
X154.813Y-109.16
X161.163Y-88.9
X161.163Y-91.44
X161.163Y-93.98
X161.163Y-96.52
X168.783Y-88.9
X168.783Y-91.44
X168.783Y-93.98
X168.783Y-96.52
T3
X143.51Y-88.265
X143.51Y-98.425
X143.51Y-100.711
X143.51Y-110.871
X148.844Y-88.265
X148.844Y-98.425
X149.098Y-114.861
X149.098Y-118.057
X151.638Y-114.861
X151.638Y-117.983
X154.178Y-114.861
X154.178Y-118.057
X154.813Y-88.265
X154.813Y-98.425
X162.433Y-102.87
X162.433Y-113.03
X167.513Y-102.87
X167.513Y-113.03
X171.323Y-102.87
X171.323Y-113.03
T4
X114.554Y-96.408
X114.554Y-98.948
X114.554Y-101.488
X114.554Y-106.299
X114.554Y-108.839
X114.554Y-111.379
T5
X129.794Y-75.565
X132.334Y-75.565
X134.874Y-75.565
X137.414Y-75.565
X138.938Y-123.825
X139.954Y-75.565
X141.478Y-123.825
X142.494Y-75.565
X144.018Y-123.825
X145.034Y-75.565
X146.558Y-123.825
X147.574Y-75.565
X149.098Y-123.825
X150.114Y-75.565
X151.638Y-123.825
X152.654Y-75.565
X154.178Y-123.825
X156.718Y-75.565
X156.718Y-123.825
X159.258Y-75.565
X161.798Y-75.565
X161.798Y-123.825
X164.338Y-75.565
X164.338Y-123.825
X166.878Y-75.565
X166.878Y-123.825
X169.418Y-75.565
X169.418Y-123.825
X171.958Y-75.565
X171.958Y-123.825
X174.498Y-75.565
X174.498Y-123.825
T6
X124.968Y-123.825
X126.238Y-75.565
X177.038Y-90.805
X177.038Y-118.745
T0
M30
