%TF.GenerationSoftware,KiCad,Pcbnew,(6.0.4-0)*%
%TF.CreationDate,2023-04-23T00:41:00+09:00*%
%TF.ProjectId,carvetracer_arduino,63617276-6574-4726-9163-65725f617264,rev?*%
%TF.SameCoordinates,Original*%
%TF.FileFunction,Copper,L2,Bot*%
%TF.FilePolarity,Positive*%
%FSLAX46Y46*%
G04 Gerber Fmt 4.6, Leading zero omitted, Abs format (unit mm)*
G04 Created by KiCad (PCBNEW (6.0.4-0)) date 2023-04-23 00:41:00*
%MOMM*%
%LPD*%
G01*
G04 APERTURE LIST*
%TA.AperFunction,ComponentPad*%
%ADD10O,1.727200X2.032000*%
%TD*%
%TA.AperFunction,ComponentPad*%
%ADD11C,4.064000*%
%TD*%
%TA.AperFunction,ComponentPad*%
%ADD12C,1.320800*%
%TD*%
%TA.AperFunction,ComponentPad*%
%ADD13R,2.400000X1.600000*%
%TD*%
%TA.AperFunction,ComponentPad*%
%ADD14O,2.400000X1.600000*%
%TD*%
%TA.AperFunction,ComponentPad*%
%ADD15C,1.600000*%
%TD*%
%TA.AperFunction,ComponentPad*%
%ADD16R,1.700000X1.700000*%
%TD*%
%TA.AperFunction,ComponentPad*%
%ADD17O,1.700000X1.700000*%
%TD*%
%TA.AperFunction,ComponentPad*%
%ADD18C,1.270000*%
%TD*%
%TA.AperFunction,ViaPad*%
%ADD19C,0.800000*%
%TD*%
%TA.AperFunction,Conductor*%
%ADD20C,0.600000*%
%TD*%
G04 APERTURE END LIST*
D10*
%TO.P,P1,1,Pin_1*%
%TO.N,unconnected-(P1-Pad1)*%
X138938000Y-123825000D03*
%TO.P,P1,2,Pin_2*%
%TO.N,/IOREF*%
X141478000Y-123825000D03*
%TO.P,P1,3,Pin_3*%
%TO.N,/Reset*%
X144018000Y-123825000D03*
%TO.P,P1,4,Pin_4*%
%TO.N,+3V3*%
X146558000Y-123825000D03*
%TO.P,P1,5,Pin_5*%
%TO.N,+5V*%
X149098000Y-123825000D03*
%TO.P,P1,6,Pin_6*%
%TO.N,GND*%
X151638000Y-123825000D03*
%TO.P,P1,7,Pin_7*%
X154178000Y-123825000D03*
%TO.P,P1,8,Pin_8*%
%TO.N,/Vin*%
X156718000Y-123825000D03*
%TD*%
%TO.P,P2,1,Pin_1*%
%TO.N,/A0*%
X161798000Y-123825000D03*
%TO.P,P2,2,Pin_2*%
%TO.N,Collector*%
X164338000Y-123825000D03*
%TO.P,P2,3,Pin_3*%
%TO.N,/A2*%
X166878000Y-123825000D03*
%TO.P,P2,4,Pin_4*%
%TO.N,/A3*%
X169418000Y-123825000D03*
%TO.P,P2,5,Pin_5*%
%TO.N,/A4(SDA)*%
X171958000Y-123825000D03*
%TO.P,P2,6,Pin_6*%
%TO.N,/A5(SCL)*%
X174498000Y-123825000D03*
%TD*%
%TO.P,P3,1,Pin_1*%
%TO.N,/A5(SCL)*%
X129794000Y-75565000D03*
%TO.P,P3,2,Pin_2*%
%TO.N,/A4(SDA)*%
X132334000Y-75565000D03*
%TO.P,P3,3,Pin_3*%
%TO.N,/AREF*%
X134874000Y-75565000D03*
%TO.P,P3,4,Pin_4*%
%TO.N,GND*%
X137414000Y-75565000D03*
%TO.P,P3,5,Pin_5*%
%TO.N,/13(SCK)*%
X139954000Y-75565000D03*
%TO.P,P3,6,Pin_6*%
%TO.N,/12(MISO)*%
X142494000Y-75565000D03*
%TO.P,P3,7,Pin_7*%
%TO.N,/11(\u002A\u002A{slash}MOSI)*%
X145034000Y-75565000D03*
%TO.P,P3,8,Pin_8*%
%TO.N,/10(\u002A\u002A{slash}SS)*%
X147574000Y-75565000D03*
%TO.P,P3,9,Pin_9*%
%TO.N,/9(\u002A\u002A)*%
X150114000Y-75565000D03*
%TO.P,P3,10,Pin_10*%
%TO.N,/8*%
X152654000Y-75565000D03*
%TD*%
%TO.P,P4,1,Pin_1*%
%TO.N,/7*%
X156718000Y-75565000D03*
%TO.P,P4,2,Pin_2*%
%TO.N,/6(\u002A\u002A)*%
X159258000Y-75565000D03*
%TO.P,P4,3,Pin_3*%
%TO.N,/5(\u002A\u002A)*%
X161798000Y-75565000D03*
%TO.P,P4,4,Pin_4*%
%TO.N,/4*%
X164338000Y-75565000D03*
%TO.P,P4,5,Pin_5*%
%TO.N,/3(\u002A\u002A)*%
X166878000Y-75565000D03*
%TO.P,P4,6,Pin_6*%
%TO.N,/2*%
X169418000Y-75565000D03*
%TO.P,P4,7,Pin_7*%
%TO.N,/1(Tx)*%
X171958000Y-75565000D03*
%TO.P,P4,8,Pin_8*%
%TO.N,/0(Rx)*%
X174498000Y-75565000D03*
%TD*%
D11*
%TO.P,P5,1,Pin_1*%
%TO.N,unconnected-(P5-Pad1)*%
X124968000Y-123825000D03*
%TD*%
%TO.P,P6,1,Pin_1*%
%TO.N,unconnected-(P6-Pad1)*%
X177038000Y-118745000D03*
%TD*%
%TO.P,P7,1,Pin_1*%
%TO.N,unconnected-(P7-Pad1)*%
X126238000Y-75565000D03*
%TD*%
%TO.P,P8,1,Pin_1*%
%TO.N,unconnected-(P8-Pad1)*%
X177038000Y-90805000D03*
%TD*%
D12*
%TO.P,R2,1,1*%
%TO.N,Net-(C2-Pad1)*%
X154813000Y-98425000D03*
%TO.P,R2,2,2*%
%TO.N,/3(\u002A\u002A)*%
X154813000Y-88265000D03*
%TD*%
%TO.P,R5,1,1*%
%TO.N,Bulk*%
X171323000Y-113030000D03*
%TO.P,R5,2,2*%
%TO.N,Net-(R4-Pad1)*%
X171323000Y-102870000D03*
%TD*%
%TO.P,R1,1,1*%
%TO.N,Net-(R1-Pad1)*%
X143510000Y-110871000D03*
%TO.P,R1,2,2*%
%TO.N,/5(\u002A\u002A)*%
X143510000Y-100711000D03*
%TD*%
D13*
%TO.P,U1,1*%
%TO.N,Collector*%
X161163000Y-88900000D03*
D14*
%TO.P,U1,2,-*%
X161163000Y-91440000D03*
%TO.P,U1,3,+*%
%TO.N,Net-(C1-Pad1)*%
X161163000Y-93980000D03*
%TO.P,U1,4,V-*%
%TO.N,GND*%
X161163000Y-96520000D03*
%TO.P,U1,5,+*%
%TO.N,Emitter*%
X168783000Y-96520000D03*
%TO.P,U1,6,-*%
%TO.N,Net-(R4-Pad1)*%
X168783000Y-93980000D03*
%TO.P,U1,7*%
%TO.N,/A0*%
X168783000Y-91440000D03*
%TO.P,U1,8,V+*%
%TO.N,+5V*%
X168783000Y-88900000D03*
%TD*%
D15*
%TO.P,C1,1*%
%TO.N,Net-(C1-Pad1)*%
X154813000Y-101660000D03*
%TO.P,C1,2*%
%TO.N,GND*%
X154813000Y-109160000D03*
%TD*%
D16*
%TO.P,J1,1,Pin_1*%
%TO.N,Emitter*%
X114554000Y-106299000D03*
D17*
%TO.P,J1,2,Pin_2*%
%TO.N,Collector*%
X114554000Y-108839000D03*
%TO.P,J1,3,Pin_3*%
%TO.N,Base*%
X114554000Y-111379000D03*
%TD*%
D12*
%TO.P,R4,1,1*%
%TO.N,Net-(R4-Pad1)*%
X167513000Y-102870000D03*
%TO.P,R4,2,2*%
%TO.N,/A0*%
X167513000Y-113030000D03*
%TD*%
D18*
%TO.P,SW1,CH1A,CH1A*%
%TO.N,+5V*%
X154178000Y-114861340D03*
%TO.P,SW1,CH1B,CH1B*%
%TO.N,GND*%
X149098000Y-114861340D03*
%TO.P,SW1,CH2A,CH2A*%
%TO.N,+5V*%
X154178000Y-118056660D03*
%TO.P,SW1,CH2B,CH2B*%
%TO.N,GND*%
X149098000Y-118056660D03*
%TO.P,SW1,COM1,COM1*%
%TO.N,Bulk*%
X151638000Y-114861340D03*
%TO.P,SW1,COM2,COM2*%
X151638000Y-117983000D03*
%TD*%
D12*
%TO.P,R3,1,1*%
%TO.N,Net-(C2-Pad1)*%
X148844000Y-98425000D03*
%TO.P,R3,2,2*%
%TO.N,Base*%
X148844000Y-88265000D03*
%TD*%
%TO.P,R7,1,1*%
%TO.N,Net-(C1-Pad1)*%
X143510000Y-88265000D03*
%TO.P,R7,2,2*%
%TO.N,Net-(R1-Pad1)*%
X143510000Y-98425000D03*
%TD*%
D15*
%TO.P,C2,1*%
%TO.N,Net-(C2-Pad1)*%
X148844000Y-101660000D03*
%TO.P,C2,2*%
%TO.N,GND*%
X148844000Y-109160000D03*
%TD*%
D16*
%TO.P,J2,1,Pin_1*%
%TO.N,Emitter*%
X114554000Y-96408000D03*
D17*
%TO.P,J2,2,Pin_2*%
%TO.N,Base*%
X114554000Y-98948000D03*
%TO.P,J2,3,Pin_3*%
%TO.N,Collector*%
X114554000Y-101488000D03*
%TD*%
D12*
%TO.P,R6,1,1*%
%TO.N,Bulk*%
X162433000Y-113030000D03*
%TO.P,R6,2,2*%
%TO.N,Emitter*%
X162433000Y-102870000D03*
%TD*%
D19*
%TO.N,Base*%
X116586000Y-85725000D03*
X134366000Y-85471000D03*
%TO.N,Collector*%
X132080000Y-80645000D03*
X124968000Y-80645000D03*
%TO.N,Emitter*%
X142494000Y-81407000D03*
X124714000Y-90551000D03*
X112776000Y-85217000D03*
%TD*%
D20*
%TO.N,+5V*%
X154178000Y-114861340D02*
X154178000Y-118056660D01*
X149098000Y-123136660D02*
X149098000Y-123825000D01*
X154178000Y-118056660D02*
X149098000Y-123136660D01*
%TO.N,GND*%
X154178000Y-123825000D02*
X151638000Y-123825000D01*
X161153000Y-96530000D02*
X161163000Y-96520000D01*
X159883000Y-96530000D02*
X161153000Y-96530000D01*
X154813000Y-109160000D02*
X154813000Y-104648000D01*
X149098000Y-118056660D02*
X149098000Y-114861340D01*
X154813000Y-104648000D02*
X158952040Y-100508960D01*
X149733000Y-114226340D02*
X149098000Y-114861340D01*
X154813000Y-109160000D02*
X149733000Y-109160000D01*
X158952040Y-100508960D02*
X158952040Y-97460960D01*
X158952040Y-97460960D02*
X159883000Y-96530000D01*
%TO.N,/A0*%
X161798000Y-123825000D02*
X161798000Y-119380000D01*
X167513000Y-113665000D02*
X167513000Y-113030000D01*
X168672911Y-114189911D02*
X172438452Y-114189911D01*
X167513000Y-113030000D02*
X168672911Y-114189911D01*
X173228000Y-95885000D02*
X168783000Y-91440000D01*
X161798000Y-119380000D02*
X167513000Y-113665000D01*
X173228000Y-113400363D02*
X173228000Y-95885000D01*
X172438452Y-114189911D02*
X173228000Y-113400363D01*
%TO.N,/5(\u002A\u002A)*%
X151130000Y-93091000D02*
X143510000Y-100711000D01*
X151130000Y-86233000D02*
X151130000Y-93091000D01*
X161798000Y-75565000D02*
X151130000Y-86233000D01*
%TO.N,Net-(C1-Pad1)*%
X156972000Y-96901000D02*
X159883000Y-93990000D01*
X143980511Y-102959511D02*
X153513489Y-102959511D01*
X161153000Y-93990000D02*
X161163000Y-93980000D01*
X159883000Y-93990000D02*
X161153000Y-93990000D01*
X142350089Y-89424911D02*
X142350089Y-101329089D01*
X142350089Y-101329089D02*
X143980511Y-102959511D01*
X154813000Y-101660000D02*
X156972000Y-99501000D01*
X143510000Y-88265000D02*
X142350089Y-89424911D01*
X156972000Y-99501000D02*
X156972000Y-96901000D01*
X153513489Y-102959511D02*
X154813000Y-101660000D01*
%TO.N,Base*%
X143139637Y-86995000D02*
X147574000Y-86995000D01*
X132700000Y-98948000D02*
X132700000Y-97434637D01*
X114554000Y-98948000D02*
X132700000Y-98948000D01*
X134112000Y-85725000D02*
X116586000Y-85725000D01*
X114554000Y-98948000D02*
X113204489Y-100297511D01*
X132700000Y-97434637D02*
X143139637Y-86995000D01*
X113204489Y-100297511D02*
X113204489Y-110029489D01*
X113204489Y-110029489D02*
X114554000Y-111379000D01*
X134366000Y-85471000D02*
X134112000Y-85725000D01*
X147574000Y-86995000D02*
X148844000Y-88265000D01*
%TO.N,Collector*%
X115903511Y-102837511D02*
X115903511Y-107489489D01*
X114554000Y-101488000D02*
X115903511Y-102837511D01*
X115903511Y-107489489D02*
X114554000Y-108839000D01*
X132080000Y-80645000D02*
X124968000Y-80645000D01*
X161163000Y-88900000D02*
X161163000Y-91440000D01*
%TO.N,Emitter*%
X142494000Y-81407000D02*
X133350000Y-90551000D01*
X168783000Y-96520000D02*
X162433000Y-102870000D01*
X114554000Y-96408000D02*
X114554000Y-86995000D01*
X118857000Y-96408000D02*
X114554000Y-96408000D01*
X124714000Y-90551000D02*
X118857000Y-96408000D01*
X133350000Y-90551000D02*
X124714000Y-90551000D01*
X114554000Y-86995000D02*
X112776000Y-85217000D01*
%TO.N,Net-(C2-Pad1)*%
X148844000Y-101660000D02*
X148844000Y-98425000D01*
X154813000Y-98425000D02*
X148844000Y-98425000D01*
%TO.N,Net-(R4-Pad1)*%
X167513000Y-102870000D02*
X171323000Y-102870000D01*
X170482520Y-102029520D02*
X171323000Y-102870000D01*
X168783000Y-93980000D02*
X170482520Y-95679520D01*
X170482520Y-95679520D02*
X170482520Y-102029520D01*
%TO.N,/3(\u002A\u002A)*%
X166878000Y-75565000D02*
X166878000Y-76200000D01*
X166878000Y-76200000D02*
X154813000Y-88265000D01*
%TO.N,Bulk*%
X153469340Y-113030000D02*
X151638000Y-114861340D01*
X162433000Y-113030000D02*
X153469340Y-113030000D01*
X151638000Y-117983000D02*
X151638000Y-114861340D01*
X171323000Y-113030000D02*
X168656000Y-110363000D01*
X168656000Y-110363000D02*
X165100000Y-110363000D01*
X165100000Y-110363000D02*
X162433000Y-113030000D01*
%TD*%
%TA.AperFunction,Conductor*%
%TO.N,GND*%
G36*
X124439997Y-73553502D02*
G01*
X124486490Y-73607158D01*
X124496594Y-73677432D01*
X124467100Y-73742012D01*
X124458129Y-73751350D01*
X124382394Y-73822470D01*
X124178629Y-74068779D01*
X124176505Y-74072126D01*
X124176502Y-74072130D01*
X124109830Y-74177188D01*
X124007341Y-74338685D01*
X124005657Y-74342264D01*
X124005653Y-74342271D01*
X123902875Y-74560687D01*
X123871233Y-74627930D01*
X123870007Y-74631702D01*
X123870007Y-74631703D01*
X123868107Y-74637551D01*
X123772449Y-74931954D01*
X123712549Y-75245961D01*
X123692477Y-75565000D01*
X123712549Y-75884039D01*
X123772449Y-76198046D01*
X123773676Y-76201822D01*
X123868201Y-76492737D01*
X123871233Y-76502070D01*
X123872920Y-76505656D01*
X123872922Y-76505660D01*
X124005653Y-76787729D01*
X124005657Y-76787736D01*
X124007341Y-76791315D01*
X124009465Y-76794661D01*
X124009465Y-76794662D01*
X124169914Y-77047488D01*
X124178629Y-77061221D01*
X124382394Y-77307530D01*
X124615423Y-77526359D01*
X124874041Y-77714256D01*
X125154169Y-77868258D01*
X125316083Y-77932364D01*
X125447707Y-77984478D01*
X125447710Y-77984479D01*
X125451390Y-77985936D01*
X125455224Y-77986920D01*
X125455232Y-77986923D01*
X125647153Y-78036200D01*
X125761017Y-78065435D01*
X125764945Y-78065931D01*
X125764949Y-78065932D01*
X125890642Y-78081810D01*
X126078165Y-78105500D01*
X126397835Y-78105500D01*
X126585358Y-78081810D01*
X126711051Y-78065932D01*
X126711055Y-78065931D01*
X126714983Y-78065435D01*
X126828847Y-78036200D01*
X127020768Y-77986923D01*
X127020776Y-77986920D01*
X127024610Y-77985936D01*
X127028290Y-77984479D01*
X127028293Y-77984478D01*
X127159917Y-77932364D01*
X127321831Y-77868258D01*
X127601959Y-77714256D01*
X127860577Y-77526359D01*
X128093606Y-77307530D01*
X128297371Y-77061221D01*
X128306087Y-77047488D01*
X128466535Y-76794662D01*
X128466535Y-76794661D01*
X128468659Y-76791315D01*
X128470343Y-76787736D01*
X128470347Y-76787729D01*
X128540177Y-76639332D01*
X128587280Y-76586211D01*
X128655625Y-76566988D01*
X128723512Y-76587767D01*
X128745355Y-76606008D01*
X128881532Y-76748758D01*
X129068350Y-76887754D01*
X129073102Y-76890170D01*
X129270244Y-76990402D01*
X129275916Y-76993286D01*
X129387106Y-77027811D01*
X129493193Y-77060753D01*
X129493199Y-77060754D01*
X129498296Y-77062337D01*
X129622660Y-77078820D01*
X129723848Y-77092232D01*
X129723852Y-77092232D01*
X129729132Y-77092932D01*
X129734462Y-77092732D01*
X129734463Y-77092732D01*
X129845477Y-77088564D01*
X129961822Y-77084197D01*
X130066005Y-77062337D01*
X130184486Y-77037477D01*
X130184489Y-77037476D01*
X130189713Y-77036380D01*
X130406290Y-76950850D01*
X130605359Y-76830051D01*
X130609855Y-76826150D01*
X130777197Y-76680939D01*
X130777199Y-76680937D01*
X130781230Y-76677439D01*
X130784613Y-76673313D01*
X130784617Y-76673309D01*
X130883776Y-76552374D01*
X130928872Y-76497376D01*
X130954845Y-76451748D01*
X131005927Y-76402442D01*
X131075558Y-76388580D01*
X131141629Y-76414563D01*
X131168867Y-76443713D01*
X131260804Y-76580272D01*
X131264483Y-76584129D01*
X131264485Y-76584131D01*
X131349223Y-76672959D01*
X131421532Y-76748758D01*
X131608350Y-76887754D01*
X131613102Y-76890170D01*
X131810244Y-76990402D01*
X131815916Y-76993286D01*
X131927106Y-77027811D01*
X132033193Y-77060753D01*
X132033199Y-77060754D01*
X132038296Y-77062337D01*
X132162660Y-77078820D01*
X132263848Y-77092232D01*
X132263852Y-77092232D01*
X132269132Y-77092932D01*
X132274462Y-77092732D01*
X132274463Y-77092732D01*
X132385477Y-77088564D01*
X132501822Y-77084197D01*
X132606005Y-77062337D01*
X132724486Y-77037477D01*
X132724489Y-77037476D01*
X132729713Y-77036380D01*
X132946290Y-76950850D01*
X133145359Y-76830051D01*
X133149855Y-76826150D01*
X133317197Y-76680939D01*
X133317199Y-76680937D01*
X133321230Y-76677439D01*
X133324613Y-76673313D01*
X133324617Y-76673309D01*
X133423776Y-76552374D01*
X133468872Y-76497376D01*
X133494845Y-76451748D01*
X133545927Y-76402442D01*
X133615558Y-76388580D01*
X133681629Y-76414563D01*
X133708867Y-76443713D01*
X133800804Y-76580272D01*
X133804483Y-76584129D01*
X133804485Y-76584131D01*
X133889223Y-76672959D01*
X133961532Y-76748758D01*
X134148350Y-76887754D01*
X134153102Y-76890170D01*
X134350244Y-76990402D01*
X134355916Y-76993286D01*
X134467106Y-77027811D01*
X134573193Y-77060753D01*
X134573199Y-77060754D01*
X134578296Y-77062337D01*
X134702660Y-77078820D01*
X134803848Y-77092232D01*
X134803852Y-77092232D01*
X134809132Y-77092932D01*
X134814462Y-77092732D01*
X134814463Y-77092732D01*
X134925477Y-77088564D01*
X135041822Y-77084197D01*
X135146005Y-77062337D01*
X135264486Y-77037477D01*
X135264489Y-77037476D01*
X135269713Y-77036380D01*
X135486290Y-76950850D01*
X135685359Y-76830051D01*
X135689855Y-76826150D01*
X135857197Y-76680939D01*
X135857199Y-76680937D01*
X135861230Y-76677439D01*
X135864613Y-76673313D01*
X135864617Y-76673309D01*
X135963776Y-76552374D01*
X136008872Y-76497376D01*
X136035122Y-76451261D01*
X136086202Y-76401956D01*
X136155832Y-76388094D01*
X136221904Y-76414077D01*
X136249143Y-76443227D01*
X136338215Y-76575530D01*
X136344876Y-76583816D01*
X136498180Y-76744520D01*
X136506148Y-76751569D01*
X136684336Y-76884144D01*
X136693366Y-76889743D01*
X136891347Y-76990402D01*
X136901208Y-76994405D01*
X137113301Y-77060263D01*
X137123696Y-77062548D01*
X137142041Y-77064980D01*
X137156208Y-77062783D01*
X137160000Y-77049599D01*
X137160000Y-77047488D01*
X137668000Y-77047488D01*
X137671973Y-77061019D01*
X137682580Y-77062544D01*
X137804343Y-77036996D01*
X137814539Y-77033936D01*
X138021097Y-76952363D01*
X138030634Y-76947629D01*
X138220503Y-76832414D01*
X138229093Y-76826150D01*
X138396837Y-76680589D01*
X138404257Y-76672959D01*
X138545073Y-76501220D01*
X138551102Y-76492449D01*
X138574533Y-76451285D01*
X138625615Y-76401978D01*
X138695245Y-76388116D01*
X138761316Y-76414099D01*
X138788555Y-76443249D01*
X138880804Y-76580272D01*
X138884483Y-76584129D01*
X138884485Y-76584131D01*
X138969223Y-76672959D01*
X139041532Y-76748758D01*
X139228350Y-76887754D01*
X139233102Y-76890170D01*
X139430244Y-76990402D01*
X139435916Y-76993286D01*
X139547106Y-77027811D01*
X139653193Y-77060753D01*
X139653199Y-77060754D01*
X139658296Y-77062337D01*
X139782660Y-77078820D01*
X139883848Y-77092232D01*
X139883852Y-77092232D01*
X139889132Y-77092932D01*
X139894462Y-77092732D01*
X139894463Y-77092732D01*
X140005477Y-77088564D01*
X140121822Y-77084197D01*
X140226005Y-77062337D01*
X140344486Y-77037477D01*
X140344489Y-77037476D01*
X140349713Y-77036380D01*
X140566290Y-76950850D01*
X140765359Y-76830051D01*
X140769855Y-76826150D01*
X140937197Y-76680939D01*
X140937199Y-76680937D01*
X140941230Y-76677439D01*
X140944613Y-76673313D01*
X140944617Y-76673309D01*
X141043776Y-76552374D01*
X141088872Y-76497376D01*
X141114845Y-76451748D01*
X141165927Y-76402442D01*
X141235558Y-76388580D01*
X141301629Y-76414563D01*
X141328867Y-76443713D01*
X141420804Y-76580272D01*
X141424483Y-76584129D01*
X141424485Y-76584131D01*
X141509223Y-76672959D01*
X141581532Y-76748758D01*
X141768350Y-76887754D01*
X141773102Y-76890170D01*
X141970244Y-76990402D01*
X141975916Y-76993286D01*
X142087106Y-77027811D01*
X142193193Y-77060753D01*
X142193199Y-77060754D01*
X142198296Y-77062337D01*
X142322660Y-77078820D01*
X142423848Y-77092232D01*
X142423852Y-77092232D01*
X142429132Y-77092932D01*
X142434462Y-77092732D01*
X142434463Y-77092732D01*
X142545477Y-77088564D01*
X142661822Y-77084197D01*
X142766005Y-77062337D01*
X142884486Y-77037477D01*
X142884489Y-77037476D01*
X142889713Y-77036380D01*
X143106290Y-76950850D01*
X143305359Y-76830051D01*
X143309855Y-76826150D01*
X143477197Y-76680939D01*
X143477199Y-76680937D01*
X143481230Y-76677439D01*
X143484613Y-76673313D01*
X143484617Y-76673309D01*
X143583776Y-76552374D01*
X143628872Y-76497376D01*
X143654845Y-76451748D01*
X143705927Y-76402442D01*
X143775558Y-76388580D01*
X143841629Y-76414563D01*
X143868867Y-76443713D01*
X143960804Y-76580272D01*
X143964483Y-76584129D01*
X143964485Y-76584131D01*
X144049223Y-76672959D01*
X144121532Y-76748758D01*
X144308350Y-76887754D01*
X144313102Y-76890170D01*
X144510244Y-76990402D01*
X144515916Y-76993286D01*
X144627106Y-77027811D01*
X144733193Y-77060753D01*
X144733199Y-77060754D01*
X144738296Y-77062337D01*
X144862660Y-77078820D01*
X144963848Y-77092232D01*
X144963852Y-77092232D01*
X144969132Y-77092932D01*
X144974462Y-77092732D01*
X144974463Y-77092732D01*
X145085477Y-77088564D01*
X145201822Y-77084197D01*
X145306005Y-77062337D01*
X145424486Y-77037477D01*
X145424489Y-77037476D01*
X145429713Y-77036380D01*
X145646290Y-76950850D01*
X145845359Y-76830051D01*
X145849855Y-76826150D01*
X146017197Y-76680939D01*
X146017199Y-76680937D01*
X146021230Y-76677439D01*
X146024613Y-76673313D01*
X146024617Y-76673309D01*
X146123776Y-76552374D01*
X146168872Y-76497376D01*
X146194845Y-76451748D01*
X146245927Y-76402442D01*
X146315558Y-76388580D01*
X146381629Y-76414563D01*
X146408867Y-76443713D01*
X146500804Y-76580272D01*
X146504483Y-76584129D01*
X146504485Y-76584131D01*
X146589223Y-76672959D01*
X146661532Y-76748758D01*
X146848350Y-76887754D01*
X146853102Y-76890170D01*
X147050244Y-76990402D01*
X147055916Y-76993286D01*
X147167106Y-77027811D01*
X147273193Y-77060753D01*
X147273199Y-77060754D01*
X147278296Y-77062337D01*
X147402660Y-77078820D01*
X147503848Y-77092232D01*
X147503852Y-77092232D01*
X147509132Y-77092932D01*
X147514462Y-77092732D01*
X147514463Y-77092732D01*
X147625477Y-77088564D01*
X147741822Y-77084197D01*
X147846005Y-77062337D01*
X147964486Y-77037477D01*
X147964489Y-77037476D01*
X147969713Y-77036380D01*
X148186290Y-76950850D01*
X148385359Y-76830051D01*
X148389855Y-76826150D01*
X148557197Y-76680939D01*
X148557199Y-76680937D01*
X148561230Y-76677439D01*
X148564613Y-76673313D01*
X148564617Y-76673309D01*
X148663776Y-76552374D01*
X148708872Y-76497376D01*
X148734845Y-76451748D01*
X148785927Y-76402442D01*
X148855558Y-76388580D01*
X148921629Y-76414563D01*
X148948867Y-76443713D01*
X149040804Y-76580272D01*
X149044483Y-76584129D01*
X149044485Y-76584131D01*
X149129223Y-76672959D01*
X149201532Y-76748758D01*
X149388350Y-76887754D01*
X149393102Y-76890170D01*
X149590244Y-76990402D01*
X149595916Y-76993286D01*
X149707106Y-77027811D01*
X149813193Y-77060753D01*
X149813199Y-77060754D01*
X149818296Y-77062337D01*
X149942660Y-77078820D01*
X150043848Y-77092232D01*
X150043852Y-77092232D01*
X150049132Y-77092932D01*
X150054462Y-77092732D01*
X150054463Y-77092732D01*
X150165477Y-77088564D01*
X150281822Y-77084197D01*
X150386005Y-77062337D01*
X150504486Y-77037477D01*
X150504489Y-77037476D01*
X150509713Y-77036380D01*
X150726290Y-76950850D01*
X150925359Y-76830051D01*
X150929855Y-76826150D01*
X151097197Y-76680939D01*
X151097199Y-76680937D01*
X151101230Y-76677439D01*
X151104613Y-76673313D01*
X151104617Y-76673309D01*
X151203776Y-76552374D01*
X151248872Y-76497376D01*
X151274845Y-76451748D01*
X151325927Y-76402442D01*
X151395558Y-76388580D01*
X151461629Y-76414563D01*
X151488867Y-76443713D01*
X151580804Y-76580272D01*
X151584483Y-76584129D01*
X151584485Y-76584131D01*
X151669223Y-76672959D01*
X151741532Y-76748758D01*
X151928350Y-76887754D01*
X151933102Y-76890170D01*
X152130244Y-76990402D01*
X152135916Y-76993286D01*
X152247106Y-77027811D01*
X152353193Y-77060753D01*
X152353199Y-77060754D01*
X152358296Y-77062337D01*
X152482660Y-77078820D01*
X152583848Y-77092232D01*
X152583852Y-77092232D01*
X152589132Y-77092932D01*
X152594462Y-77092732D01*
X152594463Y-77092732D01*
X152705477Y-77088564D01*
X152821822Y-77084197D01*
X152926005Y-77062337D01*
X153044486Y-77037477D01*
X153044489Y-77037476D01*
X153049713Y-77036380D01*
X153266290Y-76950850D01*
X153465359Y-76830051D01*
X153469855Y-76826150D01*
X153637197Y-76680939D01*
X153637199Y-76680937D01*
X153641230Y-76677439D01*
X153644613Y-76673313D01*
X153644617Y-76673309D01*
X153743776Y-76552374D01*
X153788872Y-76497376D01*
X153819696Y-76443227D01*
X153901422Y-76299654D01*
X153904065Y-76295011D01*
X153924239Y-76239435D01*
X153981695Y-76081146D01*
X153981696Y-76081142D01*
X153983515Y-76076131D01*
X154024950Y-75846993D01*
X154026100Y-75822606D01*
X154026100Y-75354132D01*
X154011374Y-75180580D01*
X154010035Y-75175420D01*
X153954217Y-74960363D01*
X153954216Y-74960359D01*
X153952875Y-74955194D01*
X153944164Y-74935855D01*
X153859433Y-74747760D01*
X153857238Y-74742887D01*
X153727196Y-74549728D01*
X153702598Y-74523942D01*
X153570152Y-74385104D01*
X153566468Y-74381242D01*
X153379650Y-74242246D01*
X153252574Y-74177637D01*
X153176842Y-74139133D01*
X153176841Y-74139133D01*
X153172084Y-74136714D01*
X153033299Y-74093620D01*
X152954807Y-74069247D01*
X152954801Y-74069246D01*
X152949704Y-74067663D01*
X152825340Y-74051180D01*
X152724152Y-74037768D01*
X152724148Y-74037768D01*
X152718868Y-74037068D01*
X152713538Y-74037268D01*
X152713537Y-74037268D01*
X152602523Y-74041436D01*
X152486178Y-74045803D01*
X152403474Y-74063156D01*
X152263514Y-74092523D01*
X152263511Y-74092524D01*
X152258287Y-74093620D01*
X152041710Y-74179150D01*
X151842641Y-74299949D01*
X151838611Y-74303446D01*
X151744075Y-74385480D01*
X151666770Y-74452561D01*
X151663387Y-74456687D01*
X151663383Y-74456691D01*
X151590262Y-74545869D01*
X151519128Y-74632624D01*
X151516490Y-74637259D01*
X151516487Y-74637263D01*
X151493155Y-74678252D01*
X151442073Y-74727558D01*
X151372442Y-74741420D01*
X151306371Y-74715437D01*
X151279133Y-74686287D01*
X151190176Y-74554155D01*
X151187196Y-74549728D01*
X151162598Y-74523942D01*
X151030152Y-74385104D01*
X151026468Y-74381242D01*
X150839650Y-74242246D01*
X150712574Y-74177637D01*
X150636842Y-74139133D01*
X150636841Y-74139133D01*
X150632084Y-74136714D01*
X150493299Y-74093620D01*
X150414807Y-74069247D01*
X150414801Y-74069246D01*
X150409704Y-74067663D01*
X150285340Y-74051180D01*
X150184152Y-74037768D01*
X150184148Y-74037768D01*
X150178868Y-74037068D01*
X150173538Y-74037268D01*
X150173537Y-74037268D01*
X150062523Y-74041436D01*
X149946178Y-74045803D01*
X149863474Y-74063156D01*
X149723514Y-74092523D01*
X149723511Y-74092524D01*
X149718287Y-74093620D01*
X149501710Y-74179150D01*
X149302641Y-74299949D01*
X149298611Y-74303446D01*
X149204075Y-74385480D01*
X149126770Y-74452561D01*
X149123387Y-74456687D01*
X149123383Y-74456691D01*
X149050262Y-74545869D01*
X148979128Y-74632624D01*
X148976490Y-74637259D01*
X148976487Y-74637263D01*
X148953155Y-74678252D01*
X148902073Y-74727558D01*
X148832442Y-74741420D01*
X148766371Y-74715437D01*
X148739133Y-74686287D01*
X148650176Y-74554155D01*
X148647196Y-74549728D01*
X148622598Y-74523942D01*
X148490152Y-74385104D01*
X148486468Y-74381242D01*
X148299650Y-74242246D01*
X148172574Y-74177637D01*
X148096842Y-74139133D01*
X148096841Y-74139133D01*
X148092084Y-74136714D01*
X147953299Y-74093620D01*
X147874807Y-74069247D01*
X147874801Y-74069246D01*
X147869704Y-74067663D01*
X147745340Y-74051180D01*
X147644152Y-74037768D01*
X147644148Y-74037768D01*
X147638868Y-74037068D01*
X147633538Y-74037268D01*
X147633537Y-74037268D01*
X147522523Y-74041436D01*
X147406178Y-74045803D01*
X147323474Y-74063156D01*
X147183514Y-74092523D01*
X147183511Y-74092524D01*
X147178287Y-74093620D01*
X146961710Y-74179150D01*
X146762641Y-74299949D01*
X146758611Y-74303446D01*
X146664075Y-74385480D01*
X146586770Y-74452561D01*
X146583387Y-74456687D01*
X146583383Y-74456691D01*
X146510262Y-74545869D01*
X146439128Y-74632624D01*
X146436490Y-74637259D01*
X146436487Y-74637263D01*
X146413155Y-74678252D01*
X146362073Y-74727558D01*
X146292442Y-74741420D01*
X146226371Y-74715437D01*
X146199133Y-74686287D01*
X146110176Y-74554155D01*
X146107196Y-74549728D01*
X146082598Y-74523942D01*
X145950152Y-74385104D01*
X145946468Y-74381242D01*
X145759650Y-74242246D01*
X145632574Y-74177637D01*
X145556842Y-74139133D01*
X145556841Y-74139133D01*
X145552084Y-74136714D01*
X145413299Y-74093620D01*
X145334807Y-74069247D01*
X145334801Y-74069246D01*
X145329704Y-74067663D01*
X145205340Y-74051180D01*
X145104152Y-74037768D01*
X145104148Y-74037768D01*
X145098868Y-74037068D01*
X145093538Y-74037268D01*
X145093537Y-74037268D01*
X144982523Y-74041436D01*
X144866178Y-74045803D01*
X144783474Y-74063156D01*
X144643514Y-74092523D01*
X144643511Y-74092524D01*
X144638287Y-74093620D01*
X144421710Y-74179150D01*
X144222641Y-74299949D01*
X144218611Y-74303446D01*
X144124075Y-74385480D01*
X144046770Y-74452561D01*
X144043387Y-74456687D01*
X144043383Y-74456691D01*
X143970262Y-74545869D01*
X143899128Y-74632624D01*
X143896490Y-74637259D01*
X143896487Y-74637263D01*
X143873155Y-74678252D01*
X143822073Y-74727558D01*
X143752442Y-74741420D01*
X143686371Y-74715437D01*
X143659133Y-74686287D01*
X143570176Y-74554155D01*
X143567196Y-74549728D01*
X143542598Y-74523942D01*
X143410152Y-74385104D01*
X143406468Y-74381242D01*
X143219650Y-74242246D01*
X143092574Y-74177637D01*
X143016842Y-74139133D01*
X143016841Y-74139133D01*
X143012084Y-74136714D01*
X142873299Y-74093620D01*
X142794807Y-74069247D01*
X142794801Y-74069246D01*
X142789704Y-74067663D01*
X142665340Y-74051180D01*
X142564152Y-74037768D01*
X142564148Y-74037768D01*
X142558868Y-74037068D01*
X142553538Y-74037268D01*
X142553537Y-74037268D01*
X142442523Y-74041436D01*
X142326178Y-74045803D01*
X142243474Y-74063156D01*
X142103514Y-74092523D01*
X142103511Y-74092524D01*
X142098287Y-74093620D01*
X141881710Y-74179150D01*
X141682641Y-74299949D01*
X141678611Y-74303446D01*
X141584075Y-74385480D01*
X141506770Y-74452561D01*
X141503387Y-74456687D01*
X141503383Y-74456691D01*
X141430262Y-74545869D01*
X141359128Y-74632624D01*
X141356490Y-74637259D01*
X141356487Y-74637263D01*
X141333155Y-74678252D01*
X141282073Y-74727558D01*
X141212442Y-74741420D01*
X141146371Y-74715437D01*
X141119133Y-74686287D01*
X141030176Y-74554155D01*
X141027196Y-74549728D01*
X141002598Y-74523942D01*
X140870152Y-74385104D01*
X140866468Y-74381242D01*
X140679650Y-74242246D01*
X140552574Y-74177637D01*
X140476842Y-74139133D01*
X140476841Y-74139133D01*
X140472084Y-74136714D01*
X140333299Y-74093620D01*
X140254807Y-74069247D01*
X140254801Y-74069246D01*
X140249704Y-74067663D01*
X140125340Y-74051180D01*
X140024152Y-74037768D01*
X140024148Y-74037768D01*
X140018868Y-74037068D01*
X140013538Y-74037268D01*
X140013537Y-74037268D01*
X139902523Y-74041436D01*
X139786178Y-74045803D01*
X139703474Y-74063156D01*
X139563514Y-74092523D01*
X139563511Y-74092524D01*
X139558287Y-74093620D01*
X139341710Y-74179150D01*
X139142641Y-74299949D01*
X139138611Y-74303446D01*
X139044075Y-74385480D01*
X138966770Y-74452561D01*
X138963387Y-74456687D01*
X138963383Y-74456691D01*
X138890262Y-74545869D01*
X138819128Y-74632624D01*
X138792878Y-74678739D01*
X138741798Y-74728044D01*
X138672168Y-74741906D01*
X138606096Y-74715923D01*
X138578857Y-74686773D01*
X138489785Y-74554470D01*
X138483124Y-74546184D01*
X138329820Y-74385480D01*
X138321852Y-74378431D01*
X138143664Y-74245856D01*
X138134634Y-74240257D01*
X137936653Y-74139598D01*
X137926792Y-74135595D01*
X137714699Y-74069737D01*
X137704304Y-74067452D01*
X137685959Y-74065020D01*
X137671792Y-74067217D01*
X137668000Y-74080401D01*
X137668000Y-77047488D01*
X137160000Y-77047488D01*
X137160000Y-74082512D01*
X137156027Y-74068981D01*
X137145420Y-74067456D01*
X137023657Y-74093004D01*
X137013461Y-74096064D01*
X136806903Y-74177637D01*
X136797366Y-74182371D01*
X136607497Y-74297586D01*
X136598907Y-74303850D01*
X136431163Y-74449411D01*
X136423743Y-74457041D01*
X136282927Y-74628780D01*
X136276898Y-74637551D01*
X136253467Y-74678715D01*
X136202385Y-74728022D01*
X136132755Y-74741884D01*
X136066684Y-74715901D01*
X136039445Y-74686751D01*
X136003005Y-74632624D01*
X135947196Y-74549728D01*
X135922598Y-74523942D01*
X135790152Y-74385104D01*
X135786468Y-74381242D01*
X135599650Y-74242246D01*
X135472574Y-74177637D01*
X135396842Y-74139133D01*
X135396841Y-74139133D01*
X135392084Y-74136714D01*
X135253299Y-74093620D01*
X135174807Y-74069247D01*
X135174801Y-74069246D01*
X135169704Y-74067663D01*
X135045340Y-74051180D01*
X134944152Y-74037768D01*
X134944148Y-74037768D01*
X134938868Y-74037068D01*
X134933538Y-74037268D01*
X134933537Y-74037268D01*
X134822523Y-74041436D01*
X134706178Y-74045803D01*
X134623474Y-74063156D01*
X134483514Y-74092523D01*
X134483511Y-74092524D01*
X134478287Y-74093620D01*
X134261710Y-74179150D01*
X134062641Y-74299949D01*
X134058611Y-74303446D01*
X133964075Y-74385480D01*
X133886770Y-74452561D01*
X133883387Y-74456687D01*
X133883383Y-74456691D01*
X133810262Y-74545869D01*
X133739128Y-74632624D01*
X133736490Y-74637259D01*
X133736487Y-74637263D01*
X133713155Y-74678252D01*
X133662073Y-74727558D01*
X133592442Y-74741420D01*
X133526371Y-74715437D01*
X133499133Y-74686287D01*
X133410176Y-74554155D01*
X133407196Y-74549728D01*
X133382598Y-74523942D01*
X133250152Y-74385104D01*
X133246468Y-74381242D01*
X133059650Y-74242246D01*
X132932574Y-74177637D01*
X132856842Y-74139133D01*
X132856841Y-74139133D01*
X132852084Y-74136714D01*
X132713299Y-74093620D01*
X132634807Y-74069247D01*
X132634801Y-74069246D01*
X132629704Y-74067663D01*
X132505340Y-74051180D01*
X132404152Y-74037768D01*
X132404148Y-74037768D01*
X132398868Y-74037068D01*
X132393538Y-74037268D01*
X132393537Y-74037268D01*
X132282523Y-74041436D01*
X132166178Y-74045803D01*
X132083474Y-74063156D01*
X131943514Y-74092523D01*
X131943511Y-74092524D01*
X131938287Y-74093620D01*
X131721710Y-74179150D01*
X131522641Y-74299949D01*
X131518611Y-74303446D01*
X131424075Y-74385480D01*
X131346770Y-74452561D01*
X131343387Y-74456687D01*
X131343383Y-74456691D01*
X131270262Y-74545869D01*
X131199128Y-74632624D01*
X131196490Y-74637259D01*
X131196487Y-74637263D01*
X131173155Y-74678252D01*
X131122073Y-74727558D01*
X131052442Y-74741420D01*
X130986371Y-74715437D01*
X130959133Y-74686287D01*
X130870176Y-74554155D01*
X130867196Y-74549728D01*
X130842598Y-74523942D01*
X130710152Y-74385104D01*
X130706468Y-74381242D01*
X130519650Y-74242246D01*
X130392574Y-74177637D01*
X130316842Y-74139133D01*
X130316841Y-74139133D01*
X130312084Y-74136714D01*
X130173299Y-74093620D01*
X130094807Y-74069247D01*
X130094801Y-74069246D01*
X130089704Y-74067663D01*
X129965340Y-74051180D01*
X129864152Y-74037768D01*
X129864148Y-74037768D01*
X129858868Y-74037068D01*
X129853538Y-74037268D01*
X129853537Y-74037268D01*
X129742523Y-74041436D01*
X129626178Y-74045803D01*
X129543474Y-74063156D01*
X129403514Y-74092523D01*
X129403511Y-74092524D01*
X129398287Y-74093620D01*
X129181710Y-74179150D01*
X128982641Y-74299949D01*
X128978611Y-74303446D01*
X128884075Y-74385480D01*
X128806770Y-74452561D01*
X128803384Y-74456691D01*
X128803383Y-74456692D01*
X128752489Y-74518761D01*
X128693829Y-74558756D01*
X128622859Y-74560687D01*
X128562111Y-74523942D01*
X128541047Y-74492518D01*
X128470347Y-74342271D01*
X128470343Y-74342264D01*
X128468659Y-74338685D01*
X128366170Y-74177188D01*
X128299498Y-74072130D01*
X128299495Y-74072126D01*
X128297371Y-74068779D01*
X128093606Y-73822470D01*
X128017871Y-73751350D01*
X127981906Y-73690137D01*
X127984744Y-73619197D01*
X128025484Y-73561053D01*
X128091192Y-73534165D01*
X128104124Y-73533500D01*
X175251183Y-73533500D01*
X175319304Y-73553502D01*
X175340278Y-73570405D01*
X176492595Y-74722723D01*
X176526621Y-74785035D01*
X176529500Y-74811818D01*
X176529500Y-85907928D01*
X176528145Y-85920058D01*
X176528627Y-85920097D01*
X176527907Y-85929044D01*
X176525926Y-85937800D01*
X176526482Y-85946760D01*
X176529258Y-85991508D01*
X176529500Y-85999310D01*
X176529500Y-86015513D01*
X176530136Y-86019953D01*
X176530984Y-86025878D01*
X176532013Y-86035928D01*
X176532805Y-86048683D01*
X176534945Y-86083177D01*
X176537994Y-86091623D01*
X176538593Y-86094514D01*
X176542822Y-86111480D01*
X176543648Y-86114305D01*
X176544920Y-86123187D01*
X176564522Y-86166298D01*
X176568327Y-86175647D01*
X176584404Y-86220181D01*
X176589699Y-86227429D01*
X176591080Y-86230027D01*
X176599915Y-86245145D01*
X176601494Y-86247614D01*
X176605208Y-86255782D01*
X176617504Y-86270052D01*
X176636115Y-86291652D01*
X176642401Y-86299569D01*
X176647548Y-86306615D01*
X176647553Y-86306620D01*
X176650425Y-86310552D01*
X176661400Y-86321527D01*
X176667758Y-86328375D01*
X176689222Y-86353285D01*
X176700287Y-86366127D01*
X176707822Y-86371011D01*
X176714066Y-86376458D01*
X176725931Y-86386058D01*
X179032595Y-88692723D01*
X179066621Y-88755035D01*
X179069500Y-88781818D01*
X179069500Y-88936477D01*
X179049498Y-89004598D01*
X178995842Y-89051091D01*
X178925568Y-89061195D01*
X178857247Y-89028327D01*
X178660577Y-88843641D01*
X178401959Y-88655744D01*
X178256895Y-88575994D01*
X178125293Y-88503645D01*
X178125290Y-88503643D01*
X178121831Y-88501742D01*
X177902296Y-88414822D01*
X177828293Y-88385522D01*
X177828290Y-88385521D01*
X177824610Y-88384064D01*
X177820776Y-88383080D01*
X177820768Y-88383077D01*
X177628847Y-88333800D01*
X177514983Y-88304565D01*
X177511055Y-88304069D01*
X177511051Y-88304068D01*
X177351497Y-88283912D01*
X177197835Y-88264500D01*
X176878165Y-88264500D01*
X176724503Y-88283912D01*
X176564949Y-88304068D01*
X176564945Y-88304069D01*
X176561017Y-88304565D01*
X176447153Y-88333800D01*
X176255232Y-88383077D01*
X176255224Y-88383080D01*
X176251390Y-88384064D01*
X176247710Y-88385521D01*
X176247707Y-88385522D01*
X176173704Y-88414822D01*
X175954169Y-88501742D01*
X175950710Y-88503643D01*
X175950707Y-88503645D01*
X175819105Y-88575994D01*
X175674041Y-88655744D01*
X175415423Y-88843641D01*
X175182394Y-89062470D01*
X174978629Y-89308779D01*
X174976505Y-89312126D01*
X174976502Y-89312130D01*
X174874503Y-89472855D01*
X174807341Y-89578685D01*
X174805657Y-89582264D01*
X174805653Y-89582271D01*
X174698344Y-89810316D01*
X174671233Y-89867930D01*
X174572449Y-90171954D01*
X174512549Y-90485961D01*
X174492477Y-90805000D01*
X174512549Y-91124039D01*
X174572449Y-91438046D01*
X174671233Y-91742070D01*
X174672920Y-91745656D01*
X174672922Y-91745660D01*
X174805653Y-92027729D01*
X174805657Y-92027736D01*
X174807341Y-92031315D01*
X174809465Y-92034661D01*
X174809465Y-92034662D01*
X174970364Y-92288197D01*
X174978629Y-92301221D01*
X175182394Y-92547530D01*
X175185284Y-92550244D01*
X175185285Y-92550245D01*
X175210971Y-92574366D01*
X175415423Y-92766359D01*
X175674041Y-92954256D01*
X175677510Y-92956163D01*
X175677513Y-92956165D01*
X175949300Y-93105581D01*
X175954169Y-93108258D01*
X176013637Y-93131803D01*
X176247707Y-93224478D01*
X176247710Y-93224479D01*
X176251390Y-93225936D01*
X176255224Y-93226920D01*
X176255232Y-93226923D01*
X176438668Y-93274021D01*
X176561017Y-93305435D01*
X176564945Y-93305931D01*
X176564949Y-93305932D01*
X176666361Y-93318743D01*
X176878165Y-93345500D01*
X177197835Y-93345500D01*
X177409639Y-93318743D01*
X177511051Y-93305932D01*
X177511055Y-93305931D01*
X177514983Y-93305435D01*
X177637332Y-93274021D01*
X177820768Y-93226923D01*
X177820776Y-93226920D01*
X177824610Y-93225936D01*
X177828290Y-93224479D01*
X177828293Y-93224478D01*
X178062363Y-93131803D01*
X178121831Y-93108258D01*
X178126701Y-93105581D01*
X178398487Y-92956165D01*
X178398490Y-92956163D01*
X178401959Y-92954256D01*
X178660577Y-92766359D01*
X178857248Y-92581673D01*
X178920597Y-92549622D01*
X178991219Y-92556909D01*
X179046690Y-92601219D01*
X179069500Y-92673523D01*
X179069500Y-116876477D01*
X179049498Y-116944598D01*
X178995842Y-116991091D01*
X178925568Y-117001195D01*
X178857247Y-116968327D01*
X178660577Y-116783641D01*
X178401959Y-116595744D01*
X178121831Y-116441742D01*
X177959917Y-116377636D01*
X177828293Y-116325522D01*
X177828290Y-116325521D01*
X177824610Y-116324064D01*
X177820776Y-116323080D01*
X177820768Y-116323077D01*
X177628847Y-116273800D01*
X177514983Y-116244565D01*
X177511055Y-116244069D01*
X177511051Y-116244068D01*
X177385358Y-116228190D01*
X177197835Y-116204500D01*
X176878165Y-116204500D01*
X176690642Y-116228190D01*
X176564949Y-116244068D01*
X176564945Y-116244069D01*
X176561017Y-116244565D01*
X176447153Y-116273800D01*
X176255232Y-116323077D01*
X176255224Y-116323080D01*
X176251390Y-116324064D01*
X176247710Y-116325521D01*
X176247707Y-116325522D01*
X176116083Y-116377636D01*
X175954169Y-116441742D01*
X175674041Y-116595744D01*
X175415423Y-116783641D01*
X175182394Y-117002470D01*
X174978629Y-117248779D01*
X174976505Y-117252126D01*
X174976502Y-117252130D01*
X174956205Y-117284113D01*
X174807341Y-117518685D01*
X174805657Y-117522264D01*
X174805653Y-117522271D01*
X174687330Y-117773721D01*
X174671233Y-117807930D01*
X174670007Y-117811702D01*
X174670007Y-117811703D01*
X174656544Y-117853138D01*
X174572449Y-118111954D01*
X174512549Y-118425961D01*
X174492477Y-118745000D01*
X174512549Y-119064039D01*
X174572449Y-119378046D01*
X174671233Y-119682070D01*
X174672920Y-119685656D01*
X174672922Y-119685660D01*
X174805653Y-119967729D01*
X174805657Y-119967736D01*
X174807341Y-119971315D01*
X174978629Y-120241221D01*
X175182394Y-120487530D01*
X175185284Y-120490244D01*
X175185285Y-120490245D01*
X175218753Y-120521673D01*
X175415423Y-120706359D01*
X175674041Y-120894256D01*
X175954169Y-121048258D01*
X176020126Y-121074372D01*
X176247707Y-121164478D01*
X176247710Y-121164479D01*
X176251390Y-121165936D01*
X176255224Y-121166920D01*
X176255232Y-121166923D01*
X176447153Y-121216200D01*
X176561017Y-121245435D01*
X176564945Y-121245931D01*
X176564949Y-121245932D01*
X176690642Y-121261810D01*
X176878165Y-121285500D01*
X177197835Y-121285500D01*
X177385358Y-121261810D01*
X177511051Y-121245932D01*
X177511055Y-121245931D01*
X177514983Y-121245435D01*
X177628847Y-121216200D01*
X177820768Y-121166923D01*
X177820776Y-121166920D01*
X177824610Y-121165936D01*
X177828290Y-121164479D01*
X177828293Y-121164478D01*
X178055874Y-121074372D01*
X178121831Y-121048258D01*
X178401959Y-120894256D01*
X178660577Y-120706359D01*
X178857248Y-120521673D01*
X178920597Y-120489622D01*
X178991219Y-120496909D01*
X179046690Y-120541219D01*
X179069500Y-120613523D01*
X179069500Y-121022182D01*
X179049498Y-121090303D01*
X179032595Y-121111277D01*
X176728696Y-123415177D01*
X176719156Y-123422800D01*
X176719470Y-123423168D01*
X176712634Y-123428986D01*
X176705042Y-123433776D01*
X176699100Y-123440504D01*
X176669407Y-123474125D01*
X176664061Y-123479812D01*
X176652618Y-123491255D01*
X176646978Y-123498780D01*
X176646341Y-123499630D01*
X176639967Y-123507459D01*
X176608622Y-123542951D01*
X176604808Y-123551074D01*
X176603174Y-123553562D01*
X176594186Y-123568523D01*
X176592771Y-123571108D01*
X176587384Y-123578295D01*
X176584233Y-123586701D01*
X176570759Y-123622642D01*
X176566833Y-123631958D01*
X176546719Y-123674800D01*
X176545338Y-123683669D01*
X176544472Y-123686502D01*
X176540042Y-123703389D01*
X176539408Y-123706274D01*
X176536255Y-123714684D01*
X176535590Y-123723639D01*
X176532746Y-123761906D01*
X176531592Y-123771952D01*
X176529500Y-123785386D01*
X176529500Y-123800906D01*
X176529154Y-123810243D01*
X176525461Y-123859941D01*
X176527335Y-123868720D01*
X176527898Y-123876978D01*
X176529500Y-123892161D01*
X176529500Y-125730500D01*
X176509498Y-125798621D01*
X176455842Y-125845114D01*
X176403500Y-125856500D01*
X126834124Y-125856500D01*
X126766003Y-125836498D01*
X126719510Y-125782842D01*
X126709406Y-125712568D01*
X126738900Y-125647988D01*
X126747871Y-125638650D01*
X126820715Y-125570245D01*
X126820716Y-125570244D01*
X126823606Y-125567530D01*
X127027371Y-125321221D01*
X127036087Y-125307488D01*
X127196535Y-125054662D01*
X127196535Y-125054661D01*
X127198659Y-125051315D01*
X127200343Y-125047736D01*
X127200347Y-125047729D01*
X127333078Y-124765660D01*
X127333080Y-124765656D01*
X127334767Y-124762070D01*
X127337800Y-124752737D01*
X127432324Y-124461822D01*
X127433551Y-124458046D01*
X127493451Y-124144039D01*
X127500256Y-124035868D01*
X137565900Y-124035868D01*
X137580626Y-124209420D01*
X137581964Y-124214577D01*
X137581965Y-124214580D01*
X137614816Y-124341146D01*
X137639125Y-124434806D01*
X137641317Y-124439672D01*
X137641318Y-124439675D01*
X137649594Y-124458046D01*
X137734762Y-124647113D01*
X137864804Y-124840272D01*
X138025532Y-125008758D01*
X138212350Y-125147754D01*
X138217102Y-125150170D01*
X138414244Y-125250402D01*
X138419916Y-125253286D01*
X138531106Y-125287812D01*
X138637193Y-125320753D01*
X138637199Y-125320754D01*
X138642296Y-125322337D01*
X138766660Y-125338820D01*
X138867848Y-125352232D01*
X138867852Y-125352232D01*
X138873132Y-125352932D01*
X138878462Y-125352732D01*
X138878463Y-125352732D01*
X138989477Y-125348564D01*
X139105822Y-125344197D01*
X139210005Y-125322337D01*
X139328486Y-125297477D01*
X139328489Y-125297476D01*
X139333713Y-125296380D01*
X139550290Y-125210850D01*
X139749359Y-125090051D01*
X139753855Y-125086150D01*
X139921197Y-124940939D01*
X139921199Y-124940937D01*
X139925230Y-124937439D01*
X139928613Y-124933313D01*
X139928617Y-124933309D01*
X140027776Y-124812374D01*
X140072872Y-124757376D01*
X140075672Y-124752458D01*
X140098845Y-124711748D01*
X140149927Y-124662442D01*
X140219558Y-124648580D01*
X140285629Y-124674563D01*
X140312867Y-124703713D01*
X140404804Y-124840272D01*
X140565532Y-125008758D01*
X140752350Y-125147754D01*
X140757102Y-125150170D01*
X140954244Y-125250402D01*
X140959916Y-125253286D01*
X141071106Y-125287812D01*
X141177193Y-125320753D01*
X141177199Y-125320754D01*
X141182296Y-125322337D01*
X141306660Y-125338820D01*
X141407848Y-125352232D01*
X141407852Y-125352232D01*
X141413132Y-125352932D01*
X141418462Y-125352732D01*
X141418463Y-125352732D01*
X141529477Y-125348564D01*
X141645822Y-125344197D01*
X141750005Y-125322337D01*
X141868486Y-125297477D01*
X141868489Y-125297476D01*
X141873713Y-125296380D01*
X142090290Y-125210850D01*
X142289359Y-125090051D01*
X142293855Y-125086150D01*
X142461197Y-124940939D01*
X142461199Y-124940937D01*
X142465230Y-124937439D01*
X142468613Y-124933313D01*
X142468617Y-124933309D01*
X142567776Y-124812374D01*
X142612872Y-124757376D01*
X142615672Y-124752458D01*
X142638845Y-124711748D01*
X142689927Y-124662442D01*
X142759558Y-124648580D01*
X142825629Y-124674563D01*
X142852867Y-124703713D01*
X142944804Y-124840272D01*
X143105532Y-125008758D01*
X143292350Y-125147754D01*
X143297102Y-125150170D01*
X143494244Y-125250402D01*
X143499916Y-125253286D01*
X143611106Y-125287812D01*
X143717193Y-125320753D01*
X143717199Y-125320754D01*
X143722296Y-125322337D01*
X143846660Y-125338820D01*
X143947848Y-125352232D01*
X143947852Y-125352232D01*
X143953132Y-125352932D01*
X143958462Y-125352732D01*
X143958463Y-125352732D01*
X144069477Y-125348564D01*
X144185822Y-125344197D01*
X144290005Y-125322337D01*
X144408486Y-125297477D01*
X144408489Y-125297476D01*
X144413713Y-125296380D01*
X144630290Y-125210850D01*
X144829359Y-125090051D01*
X144833855Y-125086150D01*
X145001197Y-124940939D01*
X145001199Y-124940937D01*
X145005230Y-124937439D01*
X145008613Y-124933313D01*
X145008617Y-124933309D01*
X145107776Y-124812374D01*
X145152872Y-124757376D01*
X145155672Y-124752458D01*
X145178845Y-124711748D01*
X145229927Y-124662442D01*
X145299558Y-124648580D01*
X145365629Y-124674563D01*
X145392867Y-124703713D01*
X145484804Y-124840272D01*
X145645532Y-125008758D01*
X145832350Y-125147754D01*
X145837102Y-125150170D01*
X146034244Y-125250402D01*
X146039916Y-125253286D01*
X146151106Y-125287812D01*
X146257193Y-125320753D01*
X146257199Y-125320754D01*
X146262296Y-125322337D01*
X146386660Y-125338820D01*
X146487848Y-125352232D01*
X146487852Y-125352232D01*
X146493132Y-125352932D01*
X146498462Y-125352732D01*
X146498463Y-125352732D01*
X146609477Y-125348564D01*
X146725822Y-125344197D01*
X146830005Y-125322337D01*
X146948486Y-125297477D01*
X146948489Y-125297476D01*
X146953713Y-125296380D01*
X147170290Y-125210850D01*
X147369359Y-125090051D01*
X147373855Y-125086150D01*
X147541197Y-124940939D01*
X147541199Y-124940937D01*
X147545230Y-124937439D01*
X147548613Y-124933313D01*
X147548617Y-124933309D01*
X147647776Y-124812374D01*
X147692872Y-124757376D01*
X147695672Y-124752458D01*
X147718845Y-124711748D01*
X147769927Y-124662442D01*
X147839558Y-124648580D01*
X147905629Y-124674563D01*
X147932867Y-124703713D01*
X148024804Y-124840272D01*
X148185532Y-125008758D01*
X148372350Y-125147754D01*
X148377102Y-125150170D01*
X148574244Y-125250402D01*
X148579916Y-125253286D01*
X148691106Y-125287812D01*
X148797193Y-125320753D01*
X148797199Y-125320754D01*
X148802296Y-125322337D01*
X148926660Y-125338820D01*
X149027848Y-125352232D01*
X149027852Y-125352232D01*
X149033132Y-125352932D01*
X149038462Y-125352732D01*
X149038463Y-125352732D01*
X149149477Y-125348564D01*
X149265822Y-125344197D01*
X149370005Y-125322337D01*
X149488486Y-125297477D01*
X149488489Y-125297476D01*
X149493713Y-125296380D01*
X149710290Y-125210850D01*
X149909359Y-125090051D01*
X149913855Y-125086150D01*
X150081197Y-124940939D01*
X150081199Y-124940937D01*
X150085230Y-124937439D01*
X150088613Y-124933313D01*
X150088617Y-124933309D01*
X150187776Y-124812374D01*
X150232872Y-124757376D01*
X150259122Y-124711261D01*
X150310202Y-124661956D01*
X150379832Y-124648094D01*
X150445904Y-124674077D01*
X150473143Y-124703227D01*
X150562215Y-124835530D01*
X150568876Y-124843816D01*
X150722180Y-125004520D01*
X150730148Y-125011569D01*
X150908336Y-125144144D01*
X150917366Y-125149743D01*
X151115347Y-125250402D01*
X151125208Y-125254405D01*
X151337301Y-125320263D01*
X151347696Y-125322548D01*
X151366041Y-125324980D01*
X151380208Y-125322783D01*
X151384000Y-125309599D01*
X151384000Y-125307488D01*
X151892000Y-125307488D01*
X151895973Y-125321019D01*
X151906580Y-125322544D01*
X152028343Y-125296996D01*
X152038539Y-125293936D01*
X152245097Y-125212363D01*
X152254634Y-125207629D01*
X152444503Y-125092414D01*
X152453093Y-125086150D01*
X152620837Y-124940589D01*
X152628257Y-124932959D01*
X152769073Y-124761220D01*
X152775095Y-124752458D01*
X152798810Y-124710798D01*
X152849893Y-124661492D01*
X152919524Y-124647631D01*
X152985594Y-124673615D01*
X153012832Y-124702764D01*
X153102215Y-124835531D01*
X153108876Y-124843816D01*
X153262180Y-125004520D01*
X153270148Y-125011569D01*
X153448336Y-125144144D01*
X153457366Y-125149743D01*
X153655347Y-125250402D01*
X153665208Y-125254405D01*
X153877301Y-125320263D01*
X153887696Y-125322548D01*
X153906041Y-125324980D01*
X153920208Y-125322783D01*
X153924000Y-125309599D01*
X153924000Y-125307488D01*
X154432000Y-125307488D01*
X154435973Y-125321019D01*
X154446580Y-125322544D01*
X154568343Y-125296996D01*
X154578539Y-125293936D01*
X154785097Y-125212363D01*
X154794634Y-125207629D01*
X154984503Y-125092414D01*
X154993093Y-125086150D01*
X155160837Y-124940589D01*
X155168257Y-124932959D01*
X155309073Y-124761220D01*
X155315102Y-124752449D01*
X155338533Y-124711285D01*
X155389615Y-124661978D01*
X155459245Y-124648116D01*
X155525316Y-124674099D01*
X155552555Y-124703249D01*
X155644804Y-124840272D01*
X155805532Y-125008758D01*
X155992350Y-125147754D01*
X155997102Y-125150170D01*
X156194244Y-125250402D01*
X156199916Y-125253286D01*
X156311106Y-125287812D01*
X156417193Y-125320753D01*
X156417199Y-125320754D01*
X156422296Y-125322337D01*
X156546660Y-125338820D01*
X156647848Y-125352232D01*
X156647852Y-125352232D01*
X156653132Y-125352932D01*
X156658462Y-125352732D01*
X156658463Y-125352732D01*
X156769477Y-125348564D01*
X156885822Y-125344197D01*
X156990005Y-125322337D01*
X157108486Y-125297477D01*
X157108489Y-125297476D01*
X157113713Y-125296380D01*
X157330290Y-125210850D01*
X157529359Y-125090051D01*
X157533855Y-125086150D01*
X157701197Y-124940939D01*
X157701199Y-124940937D01*
X157705230Y-124937439D01*
X157708613Y-124933313D01*
X157708617Y-124933309D01*
X157807776Y-124812374D01*
X157852872Y-124757376D01*
X157855672Y-124752458D01*
X157965422Y-124559654D01*
X157968065Y-124555011D01*
X157988239Y-124499435D01*
X158045695Y-124341146D01*
X158045696Y-124341142D01*
X158047515Y-124336131D01*
X158088950Y-124106993D01*
X158089632Y-124092548D01*
X158090030Y-124084095D01*
X158090030Y-124084086D01*
X158090100Y-124082606D01*
X158090100Y-123614132D01*
X158081258Y-123509924D01*
X158075825Y-123445891D01*
X158075824Y-123445887D01*
X158075374Y-123440580D01*
X158068781Y-123415177D01*
X158018217Y-123220363D01*
X158018216Y-123220359D01*
X158016875Y-123215194D01*
X158008164Y-123195855D01*
X157923433Y-123007760D01*
X157921238Y-123002887D01*
X157791196Y-122809728D01*
X157630468Y-122641242D01*
X157443650Y-122502246D01*
X157316574Y-122437637D01*
X157240842Y-122399133D01*
X157240841Y-122399133D01*
X157236084Y-122396714D01*
X157103621Y-122355583D01*
X157018807Y-122329247D01*
X157018801Y-122329246D01*
X157013704Y-122327663D01*
X156889340Y-122311180D01*
X156788152Y-122297768D01*
X156788148Y-122297768D01*
X156782868Y-122297068D01*
X156777538Y-122297268D01*
X156777537Y-122297268D01*
X156666523Y-122301435D01*
X156550178Y-122305803D01*
X156493426Y-122317711D01*
X156327514Y-122352523D01*
X156327511Y-122352524D01*
X156322287Y-122353620D01*
X156105710Y-122439150D01*
X155906641Y-122559949D01*
X155902611Y-122563446D01*
X155808075Y-122645480D01*
X155730770Y-122712561D01*
X155727387Y-122716687D01*
X155727383Y-122716691D01*
X155654262Y-122805869D01*
X155583128Y-122892624D01*
X155556878Y-122938739D01*
X155505798Y-122988044D01*
X155436168Y-123001906D01*
X155370096Y-122975923D01*
X155342857Y-122946773D01*
X155253785Y-122814470D01*
X155247124Y-122806184D01*
X155093820Y-122645480D01*
X155085852Y-122638431D01*
X154907664Y-122505856D01*
X154898634Y-122500257D01*
X154700653Y-122399598D01*
X154690792Y-122395595D01*
X154478699Y-122329737D01*
X154468304Y-122327452D01*
X154449959Y-122325020D01*
X154435792Y-122327217D01*
X154432000Y-122340401D01*
X154432000Y-125307488D01*
X153924000Y-125307488D01*
X153924000Y-124097115D01*
X153919525Y-124081876D01*
X153918135Y-124080671D01*
X153910452Y-124079000D01*
X151910115Y-124079000D01*
X151894876Y-124083475D01*
X151893671Y-124084865D01*
X151892000Y-124092548D01*
X151892000Y-125307488D01*
X151384000Y-125307488D01*
X151384000Y-123552885D01*
X151892000Y-123552885D01*
X151896475Y-123568124D01*
X151897865Y-123569329D01*
X151905548Y-123571000D01*
X153905885Y-123571000D01*
X153921124Y-123566525D01*
X153922329Y-123565135D01*
X153924000Y-123557452D01*
X153924000Y-122342512D01*
X153920027Y-122328981D01*
X153909420Y-122327456D01*
X153787657Y-122353004D01*
X153777461Y-122356064D01*
X153570903Y-122437637D01*
X153561366Y-122442371D01*
X153371497Y-122557586D01*
X153362907Y-122563850D01*
X153195163Y-122709411D01*
X153187743Y-122717041D01*
X153046927Y-122888780D01*
X153040905Y-122897542D01*
X153017190Y-122939202D01*
X152966107Y-122988508D01*
X152896476Y-123002369D01*
X152830406Y-122976385D01*
X152803168Y-122947236D01*
X152713785Y-122814469D01*
X152707124Y-122806184D01*
X152553820Y-122645480D01*
X152545852Y-122638431D01*
X152367664Y-122505856D01*
X152358634Y-122500257D01*
X152160653Y-122399598D01*
X152150792Y-122395595D01*
X151938699Y-122329737D01*
X151928304Y-122327452D01*
X151909959Y-122325020D01*
X151895792Y-122327217D01*
X151892000Y-122340401D01*
X151892000Y-123552885D01*
X151384000Y-123552885D01*
X151384000Y-122342512D01*
X151380027Y-122328981D01*
X151348136Y-122324396D01*
X151348384Y-122322669D01*
X151309480Y-122319601D01*
X151252956Y-122276641D01*
X151228631Y-122209942D01*
X151244228Y-122140680D01*
X151265277Y-122112775D01*
X154137997Y-119240055D01*
X154200309Y-119206029D01*
X154226570Y-119203726D01*
X154226561Y-119203561D01*
X154231263Y-119203315D01*
X154232033Y-119203247D01*
X154232329Y-119203259D01*
X154232338Y-119203259D01*
X154238103Y-119203485D01*
X154446088Y-119173329D01*
X154451552Y-119171474D01*
X154451557Y-119171473D01*
X154639624Y-119107633D01*
X154639629Y-119107631D01*
X154645096Y-119105775D01*
X154828460Y-119003086D01*
X154990041Y-118868701D01*
X155124426Y-118707120D01*
X155192805Y-118585020D01*
X155224291Y-118528799D01*
X155224292Y-118528797D01*
X155227115Y-118523756D01*
X155228971Y-118518289D01*
X155228973Y-118518284D01*
X155292813Y-118330217D01*
X155292814Y-118330212D01*
X155294669Y-118324748D01*
X155324825Y-118116763D01*
X155326399Y-118056660D01*
X155307169Y-117847381D01*
X155300501Y-117823736D01*
X155261271Y-117684638D01*
X155250123Y-117645111D01*
X155157171Y-117456623D01*
X155106036Y-117388144D01*
X155034880Y-117292855D01*
X155034879Y-117292854D01*
X155031427Y-117288231D01*
X155026972Y-117284113D01*
X155026899Y-117283991D01*
X155023319Y-117280015D01*
X155024100Y-117279312D01*
X154990526Y-117223185D01*
X154986500Y-117191587D01*
X154986500Y-115723187D01*
X155006502Y-115655066D01*
X155015626Y-115642618D01*
X155045112Y-115607165D01*
X155124426Y-115511800D01*
X155227115Y-115328436D01*
X155228971Y-115322969D01*
X155228973Y-115322964D01*
X155292813Y-115134897D01*
X155292814Y-115134892D01*
X155294669Y-115129428D01*
X155324825Y-114921443D01*
X155326399Y-114861340D01*
X155307169Y-114652061D01*
X155300501Y-114628416D01*
X155261271Y-114489318D01*
X155250123Y-114449791D01*
X155157171Y-114261303D01*
X155088705Y-114169615D01*
X155034880Y-114097535D01*
X155034879Y-114097534D01*
X155031427Y-114092911D01*
X155027189Y-114088993D01*
X155027185Y-114088989D01*
X154992606Y-114057024D01*
X154956161Y-113996096D01*
X154958442Y-113925136D01*
X154998724Y-113866674D01*
X155064219Y-113839271D01*
X155078135Y-113838500D01*
X161536457Y-113838500D01*
X161604578Y-113858502D01*
X161624378Y-113874246D01*
X161694236Y-113942298D01*
X161699039Y-113945507D01*
X161699040Y-113945508D01*
X161868055Y-114058440D01*
X161868060Y-114058443D01*
X161872860Y-114061650D01*
X161878169Y-114063931D01*
X161878171Y-114063932D01*
X162064932Y-114144172D01*
X162064936Y-114144173D01*
X162070242Y-114146453D01*
X162075874Y-114147727D01*
X162075876Y-114147728D01*
X162274137Y-114192590D01*
X162274142Y-114192591D01*
X162279774Y-114193865D01*
X162285545Y-114194092D01*
X162285547Y-114194092D01*
X162351614Y-114196688D01*
X162494438Y-114202299D01*
X162619168Y-114184214D01*
X162701321Y-114172303D01*
X162701325Y-114172302D01*
X162707043Y-114171473D01*
X162712515Y-114169615D01*
X162712517Y-114169615D01*
X162905007Y-114104273D01*
X162905009Y-114104272D01*
X162910471Y-114102418D01*
X163097909Y-113997448D01*
X163263078Y-113860078D01*
X163381523Y-113717664D01*
X163396757Y-113699347D01*
X163400448Y-113694909D01*
X163505418Y-113507471D01*
X163523805Y-113453307D01*
X163572615Y-113309517D01*
X163572615Y-113309515D01*
X163574473Y-113304043D01*
X163586769Y-113219242D01*
X163604766Y-113095112D01*
X163605299Y-113091438D01*
X163606413Y-113048912D01*
X163628192Y-112981339D01*
X163643275Y-112963117D01*
X165397986Y-111208405D01*
X165460298Y-111174380D01*
X165487081Y-111171500D01*
X168268918Y-111171500D01*
X168337039Y-111191502D01*
X168358013Y-111208405D01*
X170116004Y-112966395D01*
X170150029Y-113028707D01*
X170152638Y-113047245D01*
X170163545Y-113213640D01*
X170164967Y-113219238D01*
X170164967Y-113219240D01*
X170166276Y-113224392D01*
X170163660Y-113295341D01*
X170123101Y-113353612D01*
X170057477Y-113380705D01*
X170044154Y-113381411D01*
X169059993Y-113381411D01*
X168991872Y-113361409D01*
X168970898Y-113344506D01*
X168722204Y-113095812D01*
X168688178Y-113033500D01*
X168685828Y-113018246D01*
X168667780Y-112821829D01*
X168667251Y-112816072D01*
X168660369Y-112791668D01*
X168638189Y-112713025D01*
X168608938Y-112609309D01*
X168580762Y-112552173D01*
X168516475Y-112421814D01*
X168513921Y-112416635D01*
X168401540Y-112266137D01*
X168388837Y-112249126D01*
X168388836Y-112249125D01*
X168385384Y-112244502D01*
X168381147Y-112240585D01*
X168231870Y-112102595D01*
X168231867Y-112102593D01*
X168227630Y-112098676D01*
X168045943Y-111984040D01*
X167846408Y-111904434D01*
X167840748Y-111903308D01*
X167840744Y-111903307D01*
X167641374Y-111863650D01*
X167641371Y-111863650D01*
X167635707Y-111862523D01*
X167629932Y-111862447D01*
X167629928Y-111862447D01*
X167522255Y-111861038D01*
X167420896Y-111859711D01*
X167415199Y-111860690D01*
X167415198Y-111860690D01*
X167214867Y-111895113D01*
X167209170Y-111896092D01*
X167007620Y-111970448D01*
X166822994Y-112080288D01*
X166818654Y-112084094D01*
X166818650Y-112084097D01*
X166725307Y-112165957D01*
X166661477Y-112221935D01*
X166657902Y-112226470D01*
X166657901Y-112226471D01*
X166637937Y-112251796D01*
X166528478Y-112390644D01*
X166525789Y-112395755D01*
X166525787Y-112395758D01*
X166474980Y-112492327D01*
X166428450Y-112580765D01*
X166364745Y-112785931D01*
X166339494Y-112999271D01*
X166353545Y-113213640D01*
X166406426Y-113421859D01*
X166408845Y-113427106D01*
X166434764Y-113483329D01*
X166445119Y-113553566D01*
X166415856Y-113618252D01*
X166409433Y-113625175D01*
X161232842Y-118801766D01*
X161231905Y-118802694D01*
X161167493Y-118865771D01*
X161144002Y-118902221D01*
X161136583Y-118912546D01*
X161109524Y-118946443D01*
X161106459Y-118952784D01*
X161106458Y-118952785D01*
X161094928Y-118976637D01*
X161087399Y-118990054D01*
X161069235Y-119018238D01*
X161066827Y-119024855D01*
X161066824Y-119024860D01*
X161054408Y-119058973D01*
X161049447Y-119070716D01*
X161033646Y-119103403D01*
X161033644Y-119103408D01*
X161030579Y-119109749D01*
X161028996Y-119116607D01*
X161028995Y-119116609D01*
X161023035Y-119142426D01*
X161018668Y-119157169D01*
X161007197Y-119188685D01*
X161006314Y-119195675D01*
X161006312Y-119195683D01*
X161001762Y-119231701D01*
X160999526Y-119244253D01*
X160989776Y-119286485D01*
X160989751Y-119293531D01*
X160989751Y-119293534D01*
X160989634Y-119327056D01*
X160989605Y-119327938D01*
X160989500Y-119328769D01*
X160989500Y-119365572D01*
X160989143Y-119467870D01*
X160989411Y-119469070D01*
X160989500Y-119470707D01*
X160989500Y-122499980D01*
X160969498Y-122568101D01*
X160946081Y-122595145D01*
X160810770Y-122712561D01*
X160807387Y-122716687D01*
X160807383Y-122716691D01*
X160734262Y-122805869D01*
X160663128Y-122892624D01*
X160660490Y-122897259D01*
X160660487Y-122897263D01*
X160597589Y-123007760D01*
X160547935Y-123094989D01*
X160546114Y-123100005D01*
X160546112Y-123100010D01*
X160504302Y-123215194D01*
X160468485Y-123313869D01*
X160427050Y-123543007D01*
X160426855Y-123547146D01*
X160426854Y-123547153D01*
X160425970Y-123565905D01*
X160425900Y-123567394D01*
X160425900Y-124035868D01*
X160440626Y-124209420D01*
X160441964Y-124214577D01*
X160441965Y-124214580D01*
X160474816Y-124341146D01*
X160499125Y-124434806D01*
X160501317Y-124439672D01*
X160501318Y-124439675D01*
X160509594Y-124458046D01*
X160594762Y-124647113D01*
X160724804Y-124840272D01*
X160885532Y-125008758D01*
X161072350Y-125147754D01*
X161077102Y-125150170D01*
X161274244Y-125250402D01*
X161279916Y-125253286D01*
X161391106Y-125287812D01*
X161497193Y-125320753D01*
X161497199Y-125320754D01*
X161502296Y-125322337D01*
X161626660Y-125338820D01*
X161727848Y-125352232D01*
X161727852Y-125352232D01*
X161733132Y-125352932D01*
X161738462Y-125352732D01*
X161738463Y-125352732D01*
X161849477Y-125348564D01*
X161965822Y-125344197D01*
X162070005Y-125322337D01*
X162188486Y-125297477D01*
X162188489Y-125297476D01*
X162193713Y-125296380D01*
X162410290Y-125210850D01*
X162609359Y-125090051D01*
X162613855Y-125086150D01*
X162781197Y-124940939D01*
X162781199Y-124940937D01*
X162785230Y-124937439D01*
X162788613Y-124933313D01*
X162788617Y-124933309D01*
X162887776Y-124812374D01*
X162932872Y-124757376D01*
X162935672Y-124752458D01*
X162958845Y-124711748D01*
X163009927Y-124662442D01*
X163079558Y-124648580D01*
X163145629Y-124674563D01*
X163172867Y-124703713D01*
X163264804Y-124840272D01*
X163425532Y-125008758D01*
X163612350Y-125147754D01*
X163617102Y-125150170D01*
X163814244Y-125250402D01*
X163819916Y-125253286D01*
X163931106Y-125287812D01*
X164037193Y-125320753D01*
X164037199Y-125320754D01*
X164042296Y-125322337D01*
X164166660Y-125338820D01*
X164267848Y-125352232D01*
X164267852Y-125352232D01*
X164273132Y-125352932D01*
X164278462Y-125352732D01*
X164278463Y-125352732D01*
X164389477Y-125348564D01*
X164505822Y-125344197D01*
X164610005Y-125322337D01*
X164728486Y-125297477D01*
X164728489Y-125297476D01*
X164733713Y-125296380D01*
X164950290Y-125210850D01*
X165149359Y-125090051D01*
X165153855Y-125086150D01*
X165321197Y-124940939D01*
X165321199Y-124940937D01*
X165325230Y-124937439D01*
X165328613Y-124933313D01*
X165328617Y-124933309D01*
X165427776Y-124812374D01*
X165472872Y-124757376D01*
X165475672Y-124752458D01*
X165498845Y-124711748D01*
X165549927Y-124662442D01*
X165619558Y-124648580D01*
X165685629Y-124674563D01*
X165712867Y-124703713D01*
X165804804Y-124840272D01*
X165965532Y-125008758D01*
X166152350Y-125147754D01*
X166157102Y-125150170D01*
X166354244Y-125250402D01*
X166359916Y-125253286D01*
X166471106Y-125287812D01*
X166577193Y-125320753D01*
X166577199Y-125320754D01*
X166582296Y-125322337D01*
X166706660Y-125338820D01*
X166807848Y-125352232D01*
X166807852Y-125352232D01*
X166813132Y-125352932D01*
X166818462Y-125352732D01*
X166818463Y-125352732D01*
X166929477Y-125348564D01*
X167045822Y-125344197D01*
X167150005Y-125322337D01*
X167268486Y-125297477D01*
X167268489Y-125297476D01*
X167273713Y-125296380D01*
X167490290Y-125210850D01*
X167689359Y-125090051D01*
X167693855Y-125086150D01*
X167861197Y-124940939D01*
X167861199Y-124940937D01*
X167865230Y-124937439D01*
X167868613Y-124933313D01*
X167868617Y-124933309D01*
X167967776Y-124812374D01*
X168012872Y-124757376D01*
X168015672Y-124752458D01*
X168038845Y-124711748D01*
X168089927Y-124662442D01*
X168159558Y-124648580D01*
X168225629Y-124674563D01*
X168252867Y-124703713D01*
X168344804Y-124840272D01*
X168505532Y-125008758D01*
X168692350Y-125147754D01*
X168697102Y-125150170D01*
X168894244Y-125250402D01*
X168899916Y-125253286D01*
X169011106Y-125287812D01*
X169117193Y-125320753D01*
X169117199Y-125320754D01*
X169122296Y-125322337D01*
X169246660Y-125338820D01*
X169347848Y-125352232D01*
X169347852Y-125352232D01*
X169353132Y-125352932D01*
X169358462Y-125352732D01*
X169358463Y-125352732D01*
X169469477Y-125348564D01*
X169585822Y-125344197D01*
X169690005Y-125322337D01*
X169808486Y-125297477D01*
X169808489Y-125297476D01*
X169813713Y-125296380D01*
X170030290Y-125210850D01*
X170229359Y-125090051D01*
X170233855Y-125086150D01*
X170401197Y-124940939D01*
X170401199Y-124940937D01*
X170405230Y-124937439D01*
X170408613Y-124933313D01*
X170408617Y-124933309D01*
X170507776Y-124812374D01*
X170552872Y-124757376D01*
X170555672Y-124752458D01*
X170578845Y-124711748D01*
X170629927Y-124662442D01*
X170699558Y-124648580D01*
X170765629Y-124674563D01*
X170792867Y-124703713D01*
X170884804Y-124840272D01*
X171045532Y-125008758D01*
X171232350Y-125147754D01*
X171237102Y-125150170D01*
X171434244Y-125250402D01*
X171439916Y-125253286D01*
X171551106Y-125287812D01*
X171657193Y-125320753D01*
X171657199Y-125320754D01*
X171662296Y-125322337D01*
X171786660Y-125338820D01*
X171887848Y-125352232D01*
X171887852Y-125352232D01*
X171893132Y-125352932D01*
X171898462Y-125352732D01*
X171898463Y-125352732D01*
X172009477Y-125348564D01*
X172125822Y-125344197D01*
X172230005Y-125322337D01*
X172348486Y-125297477D01*
X172348489Y-125297476D01*
X172353713Y-125296380D01*
X172570290Y-125210850D01*
X172769359Y-125090051D01*
X172773855Y-125086150D01*
X172941197Y-124940939D01*
X172941199Y-124940937D01*
X172945230Y-124937439D01*
X172948613Y-124933313D01*
X172948617Y-124933309D01*
X173047776Y-124812374D01*
X173092872Y-124757376D01*
X173095672Y-124752458D01*
X173118845Y-124711748D01*
X173169927Y-124662442D01*
X173239558Y-124648580D01*
X173305629Y-124674563D01*
X173332867Y-124703713D01*
X173424804Y-124840272D01*
X173585532Y-125008758D01*
X173772350Y-125147754D01*
X173777102Y-125150170D01*
X173974244Y-125250402D01*
X173979916Y-125253286D01*
X174091106Y-125287812D01*
X174197193Y-125320753D01*
X174197199Y-125320754D01*
X174202296Y-125322337D01*
X174326660Y-125338820D01*
X174427848Y-125352232D01*
X174427852Y-125352232D01*
X174433132Y-125352932D01*
X174438462Y-125352732D01*
X174438463Y-125352732D01*
X174549477Y-125348564D01*
X174665822Y-125344197D01*
X174770005Y-125322337D01*
X174888486Y-125297477D01*
X174888489Y-125297476D01*
X174893713Y-125296380D01*
X175110290Y-125210850D01*
X175309359Y-125090051D01*
X175313855Y-125086150D01*
X175481197Y-124940939D01*
X175481199Y-124940937D01*
X175485230Y-124937439D01*
X175488613Y-124933313D01*
X175488617Y-124933309D01*
X175587776Y-124812374D01*
X175632872Y-124757376D01*
X175635672Y-124752458D01*
X175745422Y-124559654D01*
X175748065Y-124555011D01*
X175768239Y-124499435D01*
X175825695Y-124341146D01*
X175825696Y-124341142D01*
X175827515Y-124336131D01*
X175868950Y-124106993D01*
X175869632Y-124092548D01*
X175870030Y-124084095D01*
X175870030Y-124084086D01*
X175870100Y-124082606D01*
X175870100Y-123614132D01*
X175861258Y-123509924D01*
X175855825Y-123445891D01*
X175855824Y-123445887D01*
X175855374Y-123440580D01*
X175848781Y-123415177D01*
X175798217Y-123220363D01*
X175798216Y-123220359D01*
X175796875Y-123215194D01*
X175788164Y-123195855D01*
X175703433Y-123007760D01*
X175701238Y-123002887D01*
X175571196Y-122809728D01*
X175410468Y-122641242D01*
X175223650Y-122502246D01*
X175096574Y-122437637D01*
X175020842Y-122399133D01*
X175020841Y-122399133D01*
X175016084Y-122396714D01*
X174883621Y-122355583D01*
X174798807Y-122329247D01*
X174798801Y-122329246D01*
X174793704Y-122327663D01*
X174669340Y-122311180D01*
X174568152Y-122297768D01*
X174568148Y-122297768D01*
X174562868Y-122297068D01*
X174557538Y-122297268D01*
X174557537Y-122297268D01*
X174446523Y-122301435D01*
X174330178Y-122305803D01*
X174273426Y-122317711D01*
X174107514Y-122352523D01*
X174107511Y-122352524D01*
X174102287Y-122353620D01*
X173885710Y-122439150D01*
X173686641Y-122559949D01*
X173682611Y-122563446D01*
X173588075Y-122645480D01*
X173510770Y-122712561D01*
X173507387Y-122716687D01*
X173507383Y-122716691D01*
X173434262Y-122805869D01*
X173363128Y-122892624D01*
X173360490Y-122897259D01*
X173360487Y-122897263D01*
X173337155Y-122938252D01*
X173286073Y-122987558D01*
X173216442Y-123001420D01*
X173150371Y-122975437D01*
X173123133Y-122946287D01*
X173034388Y-122814470D01*
X173031196Y-122809728D01*
X172870468Y-122641242D01*
X172683650Y-122502246D01*
X172556574Y-122437637D01*
X172480842Y-122399133D01*
X172480841Y-122399133D01*
X172476084Y-122396714D01*
X172343621Y-122355583D01*
X172258807Y-122329247D01*
X172258801Y-122329246D01*
X172253704Y-122327663D01*
X172129340Y-122311180D01*
X172028152Y-122297768D01*
X172028148Y-122297768D01*
X172022868Y-122297068D01*
X172017538Y-122297268D01*
X172017537Y-122297268D01*
X171906523Y-122301435D01*
X171790178Y-122305803D01*
X171733426Y-122317711D01*
X171567514Y-122352523D01*
X171567511Y-122352524D01*
X171562287Y-122353620D01*
X171345710Y-122439150D01*
X171146641Y-122559949D01*
X171142611Y-122563446D01*
X171048075Y-122645480D01*
X170970770Y-122712561D01*
X170967387Y-122716687D01*
X170967383Y-122716691D01*
X170894262Y-122805869D01*
X170823128Y-122892624D01*
X170820490Y-122897259D01*
X170820487Y-122897263D01*
X170797155Y-122938252D01*
X170746073Y-122987558D01*
X170676442Y-123001420D01*
X170610371Y-122975437D01*
X170583133Y-122946287D01*
X170494388Y-122814470D01*
X170491196Y-122809728D01*
X170330468Y-122641242D01*
X170143650Y-122502246D01*
X170016574Y-122437637D01*
X169940842Y-122399133D01*
X169940841Y-122399133D01*
X169936084Y-122396714D01*
X169803621Y-122355583D01*
X169718807Y-122329247D01*
X169718801Y-122329246D01*
X169713704Y-122327663D01*
X169589340Y-122311180D01*
X169488152Y-122297768D01*
X169488148Y-122297768D01*
X169482868Y-122297068D01*
X169477538Y-122297268D01*
X169477537Y-122297268D01*
X169366523Y-122301435D01*
X169250178Y-122305803D01*
X169193426Y-122317711D01*
X169027514Y-122352523D01*
X169027511Y-122352524D01*
X169022287Y-122353620D01*
X168805710Y-122439150D01*
X168606641Y-122559949D01*
X168602611Y-122563446D01*
X168508075Y-122645480D01*
X168430770Y-122712561D01*
X168427387Y-122716687D01*
X168427383Y-122716691D01*
X168354262Y-122805869D01*
X168283128Y-122892624D01*
X168280490Y-122897259D01*
X168280487Y-122897263D01*
X168257155Y-122938252D01*
X168206073Y-122987558D01*
X168136442Y-123001420D01*
X168070371Y-122975437D01*
X168043133Y-122946287D01*
X167954388Y-122814470D01*
X167951196Y-122809728D01*
X167790468Y-122641242D01*
X167603650Y-122502246D01*
X167476574Y-122437637D01*
X167400842Y-122399133D01*
X167400841Y-122399133D01*
X167396084Y-122396714D01*
X167263621Y-122355583D01*
X167178807Y-122329247D01*
X167178801Y-122329246D01*
X167173704Y-122327663D01*
X167049340Y-122311180D01*
X166948152Y-122297768D01*
X166948148Y-122297768D01*
X166942868Y-122297068D01*
X166937538Y-122297268D01*
X166937537Y-122297268D01*
X166826523Y-122301435D01*
X166710178Y-122305803D01*
X166653426Y-122317711D01*
X166487514Y-122352523D01*
X166487511Y-122352524D01*
X166482287Y-122353620D01*
X166265710Y-122439150D01*
X166066641Y-122559949D01*
X166062611Y-122563446D01*
X165968075Y-122645480D01*
X165890770Y-122712561D01*
X165887387Y-122716687D01*
X165887383Y-122716691D01*
X165814262Y-122805869D01*
X165743128Y-122892624D01*
X165740490Y-122897259D01*
X165740487Y-122897263D01*
X165717155Y-122938252D01*
X165666073Y-122987558D01*
X165596442Y-123001420D01*
X165530371Y-122975437D01*
X165503133Y-122946287D01*
X165414388Y-122814470D01*
X165411196Y-122809728D01*
X165250468Y-122641242D01*
X165063650Y-122502246D01*
X164936574Y-122437637D01*
X164860842Y-122399133D01*
X164860841Y-122399133D01*
X164856084Y-122396714D01*
X164723621Y-122355583D01*
X164638807Y-122329247D01*
X164638801Y-122329246D01*
X164633704Y-122327663D01*
X164509340Y-122311180D01*
X164408152Y-122297768D01*
X164408148Y-122297768D01*
X164402868Y-122297068D01*
X164397538Y-122297268D01*
X164397537Y-122297268D01*
X164286523Y-122301435D01*
X164170178Y-122305803D01*
X164113426Y-122317711D01*
X163947514Y-122352523D01*
X163947511Y-122352524D01*
X163942287Y-122353620D01*
X163725710Y-122439150D01*
X163526641Y-122559949D01*
X163522611Y-122563446D01*
X163428075Y-122645480D01*
X163350770Y-122712561D01*
X163347387Y-122716687D01*
X163347383Y-122716691D01*
X163274262Y-122805869D01*
X163203128Y-122892624D01*
X163200490Y-122897259D01*
X163200487Y-122897263D01*
X163177155Y-122938252D01*
X163126073Y-122987558D01*
X163056442Y-123001420D01*
X162990371Y-122975437D01*
X162963133Y-122946287D01*
X162874388Y-122814470D01*
X162871196Y-122809728D01*
X162710468Y-122641242D01*
X162658089Y-122602271D01*
X162657287Y-122601674D01*
X162614574Y-122544964D01*
X162606500Y-122500585D01*
X162606500Y-119767082D01*
X162626502Y-119698961D01*
X162643405Y-119677987D01*
X167741405Y-114579987D01*
X167803717Y-114545961D01*
X167874532Y-114551026D01*
X167919595Y-114579987D01*
X168094677Y-114755069D01*
X168095605Y-114756006D01*
X168153313Y-114814935D01*
X168158682Y-114820418D01*
X168195132Y-114843909D01*
X168205457Y-114851328D01*
X168239354Y-114878387D01*
X168245695Y-114881452D01*
X168245696Y-114881453D01*
X168269548Y-114892983D01*
X168282965Y-114900512D01*
X168311149Y-114918676D01*
X168317766Y-114921084D01*
X168317771Y-114921087D01*
X168351884Y-114933503D01*
X168363627Y-114938464D01*
X168396311Y-114954264D01*
X168396320Y-114954267D01*
X168402660Y-114957332D01*
X168409525Y-114958917D01*
X168435339Y-114964877D01*
X168450079Y-114969243D01*
X168481596Y-114980714D01*
X168488581Y-114981596D01*
X168488588Y-114981598D01*
X168524603Y-114986148D01*
X168537154Y-114988383D01*
X168579396Y-114998136D01*
X168586440Y-114998161D01*
X168586444Y-114998161D01*
X168619983Y-114998278D01*
X168620853Y-114998307D01*
X168621680Y-114998411D01*
X168658169Y-114998411D01*
X168658608Y-114998412D01*
X168757254Y-114998756D01*
X168757259Y-114998756D01*
X168760781Y-114998768D01*
X168761981Y-114998500D01*
X168763619Y-114998411D01*
X172429238Y-114998411D01*
X172430558Y-114998418D01*
X172520673Y-114999362D01*
X172563049Y-114990200D01*
X172575615Y-114988142D01*
X172618707Y-114983308D01*
X172625358Y-114980992D01*
X172625362Y-114980991D01*
X172650382Y-114972278D01*
X172665194Y-114968115D01*
X172691071Y-114962520D01*
X172697962Y-114961030D01*
X172737265Y-114942703D01*
X172749041Y-114937921D01*
X172790004Y-114923656D01*
X172795979Y-114919922D01*
X172795982Y-114919921D01*
X172818447Y-114905884D01*
X172831964Y-114898545D01*
X172855966Y-114887352D01*
X172855967Y-114887351D01*
X172862354Y-114884373D01*
X172879698Y-114870920D01*
X172896605Y-114857805D01*
X172907064Y-114850509D01*
X172937856Y-114831269D01*
X172937859Y-114831267D01*
X172943828Y-114827537D01*
X172956064Y-114815386D01*
X172972631Y-114798935D01*
X172973256Y-114798350D01*
X172973922Y-114797833D01*
X172999912Y-114771843D01*
X173072534Y-114699726D01*
X173073192Y-114698689D01*
X173074295Y-114697460D01*
X173793158Y-113978597D01*
X173794095Y-113977669D01*
X173853475Y-113919520D01*
X173853476Y-113919519D01*
X173858507Y-113914592D01*
X173881998Y-113878142D01*
X173889417Y-113867817D01*
X173916476Y-113833920D01*
X173919540Y-113827581D01*
X173919543Y-113827577D01*
X173931074Y-113803725D01*
X173938601Y-113790312D01*
X173952947Y-113768050D01*
X173952948Y-113768047D01*
X173956765Y-113762125D01*
X173959176Y-113755502D01*
X173971592Y-113721390D01*
X173976553Y-113709646D01*
X173992352Y-113676964D01*
X173992353Y-113676962D01*
X173995421Y-113670615D01*
X174002966Y-113637936D01*
X174007334Y-113623188D01*
X174018803Y-113591678D01*
X174019685Y-113584692D01*
X174019687Y-113584686D01*
X174024238Y-113548662D01*
X174026474Y-113536110D01*
X174034638Y-113500749D01*
X174034638Y-113500746D01*
X174036224Y-113493878D01*
X174036366Y-113453307D01*
X174036395Y-113452425D01*
X174036500Y-113451594D01*
X174036500Y-113414791D01*
X174036503Y-113414004D01*
X174036845Y-113316020D01*
X174036845Y-113316015D01*
X174036857Y-113312493D01*
X174036589Y-113311293D01*
X174036500Y-113309656D01*
X174036500Y-95894165D01*
X174036507Y-95892846D01*
X174037376Y-95809826D01*
X174037450Y-95802779D01*
X174028290Y-95760414D01*
X174026230Y-95747835D01*
X174022182Y-95711741D01*
X174022181Y-95711738D01*
X174021397Y-95704745D01*
X174010366Y-95673068D01*
X174006204Y-95658258D01*
X174000609Y-95632378D01*
X174000608Y-95632374D01*
X173999119Y-95625489D01*
X173996142Y-95619105D01*
X173996140Y-95619099D01*
X173980796Y-95586193D01*
X173976000Y-95574383D01*
X173969227Y-95554933D01*
X173961745Y-95533448D01*
X173958013Y-95527476D01*
X173958010Y-95527469D01*
X173943973Y-95505005D01*
X173936634Y-95491488D01*
X173925439Y-95467481D01*
X173925437Y-95467477D01*
X173922462Y-95461098D01*
X173895892Y-95426844D01*
X173888598Y-95416388D01*
X173886876Y-95413632D01*
X173865626Y-95379624D01*
X173837017Y-95350815D01*
X173836434Y-95350192D01*
X173835921Y-95349530D01*
X173810074Y-95323683D01*
X173790636Y-95304109D01*
X173740304Y-95253424D01*
X173740300Y-95253420D01*
X173737815Y-95250918D01*
X173736777Y-95250259D01*
X173735544Y-95249153D01*
X170459922Y-91973530D01*
X170425896Y-91911218D01*
X170427310Y-91851826D01*
X170476543Y-91668087D01*
X170496498Y-91440000D01*
X170476543Y-91211913D01*
X170417284Y-90990757D01*
X170414961Y-90985775D01*
X170322849Y-90788238D01*
X170322846Y-90788233D01*
X170320523Y-90783251D01*
X170189198Y-90595700D01*
X170027300Y-90433802D01*
X170022792Y-90430645D01*
X170022789Y-90430643D01*
X169944611Y-90375902D01*
X169839749Y-90302477D01*
X169834767Y-90300154D01*
X169834762Y-90300151D01*
X169800543Y-90284195D01*
X169747258Y-90237278D01*
X169727797Y-90169001D01*
X169748339Y-90101041D01*
X169800543Y-90055805D01*
X169834762Y-90039849D01*
X169834767Y-90039846D01*
X169839749Y-90037523D01*
X170003913Y-89922574D01*
X170022789Y-89909357D01*
X170022792Y-89909355D01*
X170027300Y-89906198D01*
X170189198Y-89744300D01*
X170192475Y-89739621D01*
X170305163Y-89578685D01*
X170320523Y-89556749D01*
X170322846Y-89551767D01*
X170322849Y-89551762D01*
X170414961Y-89354225D01*
X170414961Y-89354224D01*
X170417284Y-89349243D01*
X170419956Y-89339273D01*
X170475119Y-89133402D01*
X170475119Y-89133400D01*
X170476543Y-89128087D01*
X170496498Y-88900000D01*
X170476543Y-88671913D01*
X170472509Y-88656859D01*
X170418707Y-88456067D01*
X170418706Y-88456065D01*
X170417284Y-88450757D01*
X170413607Y-88442872D01*
X170322849Y-88248238D01*
X170322846Y-88248233D01*
X170320523Y-88243251D01*
X170189198Y-88055700D01*
X170027300Y-87893802D01*
X170022792Y-87890645D01*
X170022789Y-87890643D01*
X169915852Y-87815765D01*
X169839749Y-87762477D01*
X169834767Y-87760154D01*
X169834762Y-87760151D01*
X169637225Y-87668039D01*
X169637224Y-87668039D01*
X169632243Y-87665716D01*
X169626935Y-87664294D01*
X169626933Y-87664293D01*
X169416402Y-87607881D01*
X169416400Y-87607881D01*
X169411087Y-87606457D01*
X169311520Y-87597746D01*
X169242851Y-87591738D01*
X169242844Y-87591738D01*
X169240127Y-87591500D01*
X168325873Y-87591500D01*
X168323156Y-87591738D01*
X168323149Y-87591738D01*
X168254480Y-87597746D01*
X168154913Y-87606457D01*
X168149600Y-87607881D01*
X168149598Y-87607881D01*
X167939067Y-87664293D01*
X167939065Y-87664294D01*
X167933757Y-87665716D01*
X167928776Y-87668039D01*
X167928775Y-87668039D01*
X167731238Y-87760151D01*
X167731233Y-87760154D01*
X167726251Y-87762477D01*
X167650148Y-87815765D01*
X167543211Y-87890643D01*
X167543208Y-87890645D01*
X167538700Y-87893802D01*
X167376802Y-88055700D01*
X167245477Y-88243251D01*
X167243154Y-88248233D01*
X167243151Y-88248238D01*
X167152393Y-88442872D01*
X167148716Y-88450757D01*
X167147294Y-88456065D01*
X167147293Y-88456067D01*
X167093491Y-88656859D01*
X167089457Y-88671913D01*
X167069502Y-88900000D01*
X167089457Y-89128087D01*
X167090881Y-89133400D01*
X167090881Y-89133402D01*
X167146045Y-89339273D01*
X167148716Y-89349243D01*
X167151039Y-89354224D01*
X167151039Y-89354225D01*
X167243151Y-89551762D01*
X167243154Y-89551767D01*
X167245477Y-89556749D01*
X167260837Y-89578685D01*
X167373526Y-89739621D01*
X167376802Y-89744300D01*
X167538700Y-89906198D01*
X167543208Y-89909355D01*
X167543211Y-89909357D01*
X167562087Y-89922574D01*
X167726251Y-90037523D01*
X167731233Y-90039846D01*
X167731238Y-90039849D01*
X167765457Y-90055805D01*
X167818742Y-90102722D01*
X167838203Y-90170999D01*
X167817661Y-90238959D01*
X167765457Y-90284195D01*
X167731238Y-90300151D01*
X167731233Y-90300154D01*
X167726251Y-90302477D01*
X167621389Y-90375902D01*
X167543211Y-90430643D01*
X167543208Y-90430645D01*
X167538700Y-90433802D01*
X167376802Y-90595700D01*
X167245477Y-90783251D01*
X167243154Y-90788233D01*
X167243151Y-90788238D01*
X167151039Y-90985775D01*
X167148716Y-90990757D01*
X167089457Y-91211913D01*
X167069502Y-91440000D01*
X167089457Y-91668087D01*
X167148716Y-91889243D01*
X167151039Y-91894224D01*
X167151039Y-91894225D01*
X167243151Y-92091762D01*
X167243154Y-92091767D01*
X167245477Y-92096749D01*
X167376802Y-92284300D01*
X167538700Y-92446198D01*
X167543208Y-92449355D01*
X167543211Y-92449357D01*
X167621389Y-92504098D01*
X167726251Y-92577523D01*
X167731233Y-92579846D01*
X167731238Y-92579849D01*
X167765457Y-92595805D01*
X167818742Y-92642722D01*
X167838203Y-92710999D01*
X167817661Y-92778959D01*
X167765457Y-92824195D01*
X167731238Y-92840151D01*
X167731233Y-92840154D01*
X167726251Y-92842477D01*
X167621389Y-92915902D01*
X167543211Y-92970643D01*
X167543208Y-92970645D01*
X167538700Y-92973802D01*
X167376802Y-93135700D01*
X167373646Y-93140207D01*
X167373643Y-93140211D01*
X167326434Y-93207633D01*
X167245477Y-93323251D01*
X167243154Y-93328233D01*
X167243151Y-93328238D01*
X167171241Y-93482451D01*
X167148716Y-93530757D01*
X167147294Y-93536065D01*
X167147293Y-93536067D01*
X167111746Y-93668731D01*
X167089457Y-93751913D01*
X167069502Y-93980000D01*
X167089457Y-94208087D01*
X167148716Y-94429243D01*
X167151039Y-94434224D01*
X167151039Y-94434225D01*
X167243151Y-94631762D01*
X167243154Y-94631767D01*
X167245477Y-94636749D01*
X167376802Y-94824300D01*
X167538700Y-94986198D01*
X167543208Y-94989355D01*
X167543211Y-94989357D01*
X167593729Y-95024730D01*
X167726251Y-95117523D01*
X167731233Y-95119846D01*
X167731238Y-95119849D01*
X167765457Y-95135805D01*
X167818742Y-95182722D01*
X167838203Y-95250999D01*
X167817661Y-95318959D01*
X167765457Y-95364195D01*
X167731238Y-95380151D01*
X167731233Y-95380154D01*
X167726251Y-95382477D01*
X167643693Y-95440285D01*
X167543211Y-95510643D01*
X167543208Y-95510645D01*
X167538700Y-95513802D01*
X167376802Y-95675700D01*
X167373645Y-95680208D01*
X167373643Y-95680211D01*
X167356464Y-95704745D01*
X167245477Y-95863251D01*
X167243154Y-95868233D01*
X167243151Y-95868238D01*
X167151039Y-96065775D01*
X167148716Y-96070757D01*
X167089457Y-96291913D01*
X167069502Y-96520000D01*
X167089457Y-96748087D01*
X167138690Y-96931826D01*
X167137000Y-97002800D01*
X167106078Y-97053530D01*
X162495949Y-101663659D01*
X162433637Y-101697685D01*
X162405204Y-101700553D01*
X162402211Y-101700514D01*
X162340896Y-101699711D01*
X162335199Y-101700690D01*
X162335198Y-101700690D01*
X162207683Y-101722601D01*
X162129170Y-101736092D01*
X161927620Y-101810448D01*
X161742994Y-101920288D01*
X161738654Y-101924094D01*
X161738650Y-101924097D01*
X161696948Y-101960669D01*
X161581477Y-102061935D01*
X161577902Y-102066470D01*
X161577901Y-102066471D01*
X161550538Y-102101181D01*
X161448478Y-102230644D01*
X161445789Y-102235755D01*
X161445787Y-102235758D01*
X161403176Y-102316749D01*
X161348450Y-102420765D01*
X161284745Y-102625931D01*
X161259494Y-102839271D01*
X161273545Y-103053640D01*
X161326426Y-103261859D01*
X161416366Y-103456954D01*
X161540353Y-103632392D01*
X161544487Y-103636419D01*
X161677661Y-103766151D01*
X161694236Y-103782298D01*
X161699032Y-103785503D01*
X161699035Y-103785505D01*
X161868055Y-103898440D01*
X161868060Y-103898443D01*
X161872860Y-103901650D01*
X161878169Y-103903931D01*
X161878171Y-103903932D01*
X162064932Y-103984172D01*
X162064936Y-103984173D01*
X162070242Y-103986453D01*
X162075874Y-103987727D01*
X162075876Y-103987728D01*
X162274137Y-104032590D01*
X162274142Y-104032591D01*
X162279774Y-104033865D01*
X162285545Y-104034092D01*
X162285547Y-104034092D01*
X162351614Y-104036688D01*
X162494438Y-104042299D01*
X162619168Y-104024214D01*
X162701321Y-104012303D01*
X162701325Y-104012302D01*
X162707043Y-104011473D01*
X162712515Y-104009615D01*
X162712517Y-104009615D01*
X162905007Y-103944273D01*
X162905009Y-103944272D01*
X162910471Y-103942418D01*
X163097909Y-103837448D01*
X163160364Y-103785505D01*
X163230790Y-103726932D01*
X163263078Y-103700078D01*
X163340743Y-103606696D01*
X163396757Y-103539347D01*
X163400448Y-103534909D01*
X163505418Y-103347471D01*
X163532699Y-103267106D01*
X163572615Y-103149517D01*
X163572615Y-103149515D01*
X163574473Y-103144043D01*
X163586769Y-103059242D01*
X163595161Y-103001360D01*
X163605299Y-102931438D01*
X163606413Y-102888912D01*
X163628192Y-102821339D01*
X163643275Y-102803117D01*
X168580987Y-97865405D01*
X168643299Y-97831379D01*
X168670082Y-97828500D01*
X169240127Y-97828500D01*
X169242844Y-97828262D01*
X169242851Y-97828262D01*
X169312880Y-97822135D01*
X169411087Y-97813543D01*
X169416400Y-97812119D01*
X169416402Y-97812119D01*
X169515409Y-97785590D01*
X169586385Y-97787280D01*
X169645181Y-97827074D01*
X169673129Y-97892338D01*
X169674020Y-97907297D01*
X169674020Y-101935500D01*
X169654018Y-102003621D01*
X169600362Y-102050114D01*
X169548020Y-102061500D01*
X168409817Y-102061500D01*
X168341696Y-102041498D01*
X168324288Y-102028025D01*
X168231870Y-101942595D01*
X168231867Y-101942593D01*
X168227630Y-101938676D01*
X168045943Y-101824040D01*
X167846408Y-101744434D01*
X167840748Y-101743308D01*
X167840744Y-101743307D01*
X167641374Y-101703650D01*
X167641371Y-101703650D01*
X167635707Y-101702523D01*
X167629932Y-101702447D01*
X167629928Y-101702447D01*
X167522255Y-101701038D01*
X167420896Y-101699711D01*
X167415199Y-101700690D01*
X167415198Y-101700690D01*
X167287683Y-101722601D01*
X167209170Y-101736092D01*
X167007620Y-101810448D01*
X166822994Y-101920288D01*
X166818654Y-101924094D01*
X166818650Y-101924097D01*
X166776948Y-101960669D01*
X166661477Y-102061935D01*
X166657902Y-102066470D01*
X166657901Y-102066471D01*
X166630538Y-102101181D01*
X166528478Y-102230644D01*
X166525789Y-102235755D01*
X166525787Y-102235758D01*
X166483176Y-102316749D01*
X166428450Y-102420765D01*
X166364745Y-102625931D01*
X166339494Y-102839271D01*
X166353545Y-103053640D01*
X166406426Y-103261859D01*
X166496366Y-103456954D01*
X166620353Y-103632392D01*
X166624487Y-103636419D01*
X166757661Y-103766151D01*
X166774236Y-103782298D01*
X166779032Y-103785503D01*
X166779035Y-103785505D01*
X166948055Y-103898440D01*
X166948060Y-103898443D01*
X166952860Y-103901650D01*
X166958169Y-103903931D01*
X166958171Y-103903932D01*
X167144932Y-103984172D01*
X167144936Y-103984173D01*
X167150242Y-103986453D01*
X167155874Y-103987727D01*
X167155876Y-103987728D01*
X167354137Y-104032590D01*
X167354142Y-104032591D01*
X167359774Y-104033865D01*
X167365545Y-104034092D01*
X167365547Y-104034092D01*
X167431614Y-104036688D01*
X167574438Y-104042299D01*
X167699168Y-104024214D01*
X167781321Y-104012303D01*
X167781325Y-104012302D01*
X167787043Y-104011473D01*
X167792515Y-104009615D01*
X167792517Y-104009615D01*
X167985007Y-103944273D01*
X167985009Y-103944272D01*
X167990471Y-103942418D01*
X168177909Y-103837448D01*
X168240360Y-103785508D01*
X168334003Y-103707626D01*
X168399167Y-103679445D01*
X168414572Y-103678500D01*
X170426457Y-103678500D01*
X170494578Y-103698502D01*
X170514378Y-103714246D01*
X170557801Y-103756546D01*
X170584236Y-103782298D01*
X170589036Y-103785505D01*
X170589040Y-103785508D01*
X170758055Y-103898440D01*
X170758060Y-103898443D01*
X170762860Y-103901650D01*
X170768169Y-103903931D01*
X170768171Y-103903932D01*
X170954932Y-103984172D01*
X170954936Y-103984173D01*
X170960242Y-103986453D01*
X170965874Y-103987727D01*
X170965876Y-103987728D01*
X171164137Y-104032590D01*
X171164142Y-104032591D01*
X171169774Y-104033865D01*
X171175545Y-104034092D01*
X171175547Y-104034092D01*
X171241614Y-104036688D01*
X171384438Y-104042299D01*
X171509168Y-104024214D01*
X171591321Y-104012303D01*
X171591325Y-104012302D01*
X171597043Y-104011473D01*
X171602515Y-104009615D01*
X171602517Y-104009615D01*
X171795007Y-103944273D01*
X171795009Y-103944272D01*
X171800471Y-103942418D01*
X171987909Y-103837448D01*
X172050364Y-103785505D01*
X172120790Y-103726932D01*
X172153078Y-103700078D01*
X172196627Y-103647717D01*
X172255563Y-103608133D01*
X172326545Y-103606696D01*
X172387036Y-103643864D01*
X172417829Y-103707835D01*
X172419500Y-103728286D01*
X172419500Y-112165957D01*
X172399498Y-112234078D01*
X172345842Y-112280571D01*
X172275568Y-112290675D01*
X172210988Y-112261181D01*
X172199862Y-112250265D01*
X172198839Y-112249129D01*
X172195384Y-112244502D01*
X172037630Y-112098676D01*
X171855943Y-111984040D01*
X171656408Y-111904434D01*
X171650748Y-111903308D01*
X171650744Y-111903307D01*
X171451374Y-111863650D01*
X171451371Y-111863650D01*
X171445707Y-111862523D01*
X171439932Y-111862447D01*
X171439928Y-111862447D01*
X171401477Y-111861944D01*
X171348189Y-111861246D01*
X171280338Y-111840356D01*
X171260745Y-111824353D01*
X169234234Y-109797842D01*
X169233306Y-109796905D01*
X169175157Y-109737525D01*
X169175156Y-109737524D01*
X169170229Y-109732493D01*
X169133779Y-109709002D01*
X169123454Y-109701583D01*
X169089557Y-109674524D01*
X169059362Y-109659927D01*
X169045945Y-109652398D01*
X169043942Y-109651107D01*
X169017762Y-109634235D01*
X169011145Y-109631827D01*
X169011140Y-109631824D01*
X168977027Y-109619408D01*
X168965284Y-109614447D01*
X168932597Y-109598646D01*
X168932592Y-109598644D01*
X168926251Y-109595579D01*
X168919393Y-109593996D01*
X168919391Y-109593995D01*
X168893574Y-109588035D01*
X168878831Y-109583668D01*
X168847315Y-109572197D01*
X168840325Y-109571314D01*
X168840317Y-109571312D01*
X168804299Y-109566762D01*
X168791747Y-109564526D01*
X168756386Y-109556362D01*
X168756383Y-109556362D01*
X168749515Y-109554776D01*
X168742469Y-109554751D01*
X168742466Y-109554751D01*
X168708944Y-109554634D01*
X168708062Y-109554605D01*
X168707231Y-109554500D01*
X168670581Y-109554500D01*
X168670141Y-109554499D01*
X168571657Y-109554155D01*
X168571652Y-109554155D01*
X168568130Y-109554143D01*
X168566930Y-109554411D01*
X168565293Y-109554500D01*
X165109260Y-109554500D01*
X165107941Y-109554493D01*
X165017779Y-109553549D01*
X165010893Y-109555038D01*
X165010891Y-109555038D01*
X165004768Y-109556362D01*
X164975403Y-109562711D01*
X164962837Y-109564769D01*
X164919745Y-109569603D01*
X164913094Y-109571919D01*
X164913090Y-109571920D01*
X164888070Y-109580633D01*
X164873257Y-109584796D01*
X164840490Y-109591881D01*
X164801189Y-109610207D01*
X164789406Y-109614992D01*
X164748448Y-109629255D01*
X164734370Y-109638052D01*
X164720016Y-109647021D01*
X164706499Y-109654360D01*
X164682481Y-109665560D01*
X164682477Y-109665562D01*
X164676098Y-109668537D01*
X164670534Y-109672853D01*
X164670532Y-109672854D01*
X164641840Y-109695109D01*
X164631385Y-109702403D01*
X164600598Y-109721641D01*
X164594624Y-109725374D01*
X164589627Y-109730336D01*
X164589626Y-109730337D01*
X164565821Y-109753976D01*
X164565196Y-109754561D01*
X164564530Y-109755078D01*
X164538540Y-109781068D01*
X164465918Y-109853185D01*
X164465260Y-109854222D01*
X164464157Y-109855451D01*
X162495949Y-111823659D01*
X162433637Y-111857685D01*
X162405204Y-111860553D01*
X162402211Y-111860514D01*
X162340896Y-111859711D01*
X162335199Y-111860690D01*
X162335198Y-111860690D01*
X162134867Y-111895113D01*
X162129170Y-111896092D01*
X161927620Y-111970448D01*
X161742994Y-112080288D01*
X161725541Y-112095594D01*
X161617627Y-112190232D01*
X161553222Y-112220109D01*
X161534549Y-112221500D01*
X153478554Y-112221500D01*
X153477234Y-112221493D01*
X153476159Y-112221482D01*
X153387119Y-112220549D01*
X153344743Y-112229711D01*
X153332177Y-112231769D01*
X153289085Y-112236603D01*
X153282434Y-112238919D01*
X153282430Y-112238920D01*
X153257410Y-112247633D01*
X153242597Y-112251796D01*
X153209830Y-112258881D01*
X153170527Y-112277208D01*
X153158751Y-112281990D01*
X153117788Y-112296255D01*
X153111813Y-112299989D01*
X153111810Y-112299990D01*
X153089345Y-112314027D01*
X153075828Y-112321366D01*
X153051826Y-112332559D01*
X153045438Y-112335538D01*
X153039873Y-112339855D01*
X153039871Y-112339856D01*
X153011187Y-112362106D01*
X153000728Y-112369402D01*
X152969936Y-112388642D01*
X152969933Y-112388644D01*
X152963964Y-112392374D01*
X152958969Y-112397334D01*
X152958968Y-112397335D01*
X152935161Y-112420976D01*
X152934536Y-112421561D01*
X152933870Y-112422078D01*
X152907880Y-112448068D01*
X152835258Y-112520185D01*
X152834600Y-112521222D01*
X152833497Y-112522451D01*
X151675874Y-113680074D01*
X151613562Y-113714100D01*
X151585131Y-113716968D01*
X151569237Y-113716760D01*
X151547898Y-113716481D01*
X151542201Y-113717460D01*
X151542200Y-113717460D01*
X151519329Y-113721390D01*
X151340772Y-113752072D01*
X151143601Y-113824812D01*
X151138640Y-113827764D01*
X151138639Y-113827764D01*
X151073238Y-113866674D01*
X150962988Y-113932266D01*
X150804981Y-114070834D01*
X150801410Y-114075364D01*
X150701522Y-114202072D01*
X150674872Y-114235877D01*
X150672181Y-114240993D01*
X150672179Y-114240995D01*
X150660554Y-114263091D01*
X150577018Y-114421867D01*
X150514696Y-114622574D01*
X150514018Y-114628306D01*
X150514017Y-114628309D01*
X150491929Y-114814935D01*
X150471966Y-114861705D01*
X150493514Y-114902487D01*
X150495766Y-114919333D01*
X150503740Y-115040989D01*
X150555471Y-115244683D01*
X150557890Y-115249930D01*
X150641038Y-115430293D01*
X150641041Y-115430298D01*
X150643457Y-115435539D01*
X150646788Y-115440252D01*
X150646789Y-115440254D01*
X150660684Y-115459914D01*
X150764751Y-115607165D01*
X150768887Y-115611194D01*
X150791422Y-115633147D01*
X150826260Y-115695009D01*
X150829500Y-115723401D01*
X150829500Y-117117699D01*
X150809498Y-117185820D01*
X150802453Y-117195700D01*
X150674872Y-117357537D01*
X150672181Y-117362653D01*
X150672179Y-117362655D01*
X150619875Y-117462069D01*
X150577018Y-117543527D01*
X150514696Y-117744234D01*
X150489995Y-117952938D01*
X150491516Y-117976138D01*
X150481599Y-118020456D01*
X150493320Y-118039790D01*
X150497266Y-118063869D01*
X150503740Y-118162649D01*
X150555471Y-118366343D01*
X150557890Y-118371590D01*
X150641038Y-118551953D01*
X150641041Y-118551958D01*
X150643457Y-118557199D01*
X150646788Y-118561912D01*
X150646789Y-118561914D01*
X150712742Y-118655234D01*
X150764751Y-118728825D01*
X150915289Y-118875474D01*
X150920085Y-118878679D01*
X150920088Y-118878681D01*
X151021501Y-118946443D01*
X151090031Y-118992233D01*
X151095339Y-118994514D01*
X151095340Y-118994514D01*
X151277822Y-119072914D01*
X151277825Y-119072915D01*
X151283125Y-119075192D01*
X151288754Y-119076466D01*
X151288755Y-119076466D01*
X151482467Y-119120299D01*
X151482473Y-119120300D01*
X151488104Y-119121574D01*
X151493875Y-119121801D01*
X151493877Y-119121801D01*
X151549612Y-119123991D01*
X151663652Y-119128471D01*
X151730934Y-119151132D01*
X151775284Y-119206572D01*
X151782621Y-119277188D01*
X151747799Y-119343469D01*
X148773557Y-122317711D01*
X148712547Y-122350734D01*
X148712624Y-122350989D01*
X148711393Y-122351358D01*
X148710335Y-122351931D01*
X148707508Y-122352524D01*
X148707503Y-122352526D01*
X148702287Y-122353620D01*
X148485710Y-122439150D01*
X148286641Y-122559949D01*
X148282611Y-122563446D01*
X148188075Y-122645480D01*
X148110770Y-122712561D01*
X148107387Y-122716687D01*
X148107383Y-122716691D01*
X148034262Y-122805869D01*
X147963128Y-122892624D01*
X147960490Y-122897259D01*
X147960487Y-122897263D01*
X147937155Y-122938252D01*
X147886073Y-122987558D01*
X147816442Y-123001420D01*
X147750371Y-122975437D01*
X147723133Y-122946287D01*
X147634388Y-122814470D01*
X147631196Y-122809728D01*
X147470468Y-122641242D01*
X147283650Y-122502246D01*
X147156574Y-122437637D01*
X147080842Y-122399133D01*
X147080841Y-122399133D01*
X147076084Y-122396714D01*
X146943621Y-122355583D01*
X146858807Y-122329247D01*
X146858801Y-122329246D01*
X146853704Y-122327663D01*
X146729340Y-122311180D01*
X146628152Y-122297768D01*
X146628148Y-122297768D01*
X146622868Y-122297068D01*
X146617538Y-122297268D01*
X146617537Y-122297268D01*
X146506523Y-122301435D01*
X146390178Y-122305803D01*
X146333426Y-122317711D01*
X146167514Y-122352523D01*
X146167511Y-122352524D01*
X146162287Y-122353620D01*
X145945710Y-122439150D01*
X145746641Y-122559949D01*
X145742611Y-122563446D01*
X145648075Y-122645480D01*
X145570770Y-122712561D01*
X145567387Y-122716687D01*
X145567383Y-122716691D01*
X145494262Y-122805869D01*
X145423128Y-122892624D01*
X145420490Y-122897259D01*
X145420487Y-122897263D01*
X145397155Y-122938252D01*
X145346073Y-122987558D01*
X145276442Y-123001420D01*
X145210371Y-122975437D01*
X145183133Y-122946287D01*
X145094388Y-122814470D01*
X145091196Y-122809728D01*
X144930468Y-122641242D01*
X144743650Y-122502246D01*
X144616574Y-122437637D01*
X144540842Y-122399133D01*
X144540841Y-122399133D01*
X144536084Y-122396714D01*
X144403621Y-122355583D01*
X144318807Y-122329247D01*
X144318801Y-122329246D01*
X144313704Y-122327663D01*
X144189340Y-122311180D01*
X144088152Y-122297768D01*
X144088148Y-122297768D01*
X144082868Y-122297068D01*
X144077538Y-122297268D01*
X144077537Y-122297268D01*
X143966523Y-122301435D01*
X143850178Y-122305803D01*
X143793426Y-122317711D01*
X143627514Y-122352523D01*
X143627511Y-122352524D01*
X143622287Y-122353620D01*
X143405710Y-122439150D01*
X143206641Y-122559949D01*
X143202611Y-122563446D01*
X143108075Y-122645480D01*
X143030770Y-122712561D01*
X143027387Y-122716687D01*
X143027383Y-122716691D01*
X142954262Y-122805869D01*
X142883128Y-122892624D01*
X142880490Y-122897259D01*
X142880487Y-122897263D01*
X142857155Y-122938252D01*
X142806073Y-122987558D01*
X142736442Y-123001420D01*
X142670371Y-122975437D01*
X142643133Y-122946287D01*
X142554388Y-122814470D01*
X142551196Y-122809728D01*
X142390468Y-122641242D01*
X142203650Y-122502246D01*
X142076574Y-122437637D01*
X142000842Y-122399133D01*
X142000841Y-122399133D01*
X141996084Y-122396714D01*
X141863621Y-122355583D01*
X141778807Y-122329247D01*
X141778801Y-122329246D01*
X141773704Y-122327663D01*
X141649340Y-122311180D01*
X141548152Y-122297768D01*
X141548148Y-122297768D01*
X141542868Y-122297068D01*
X141537538Y-122297268D01*
X141537537Y-122297268D01*
X141426523Y-122301435D01*
X141310178Y-122305803D01*
X141253426Y-122317711D01*
X141087514Y-122352523D01*
X141087511Y-122352524D01*
X141082287Y-122353620D01*
X140865710Y-122439150D01*
X140666641Y-122559949D01*
X140662611Y-122563446D01*
X140568075Y-122645480D01*
X140490770Y-122712561D01*
X140487387Y-122716687D01*
X140487383Y-122716691D01*
X140414262Y-122805869D01*
X140343128Y-122892624D01*
X140340490Y-122897259D01*
X140340487Y-122897263D01*
X140317155Y-122938252D01*
X140266073Y-122987558D01*
X140196442Y-123001420D01*
X140130371Y-122975437D01*
X140103133Y-122946287D01*
X140014388Y-122814470D01*
X140011196Y-122809728D01*
X139850468Y-122641242D01*
X139663650Y-122502246D01*
X139536574Y-122437637D01*
X139460842Y-122399133D01*
X139460841Y-122399133D01*
X139456084Y-122396714D01*
X139323621Y-122355583D01*
X139238807Y-122329247D01*
X139238801Y-122329246D01*
X139233704Y-122327663D01*
X139109340Y-122311180D01*
X139008152Y-122297768D01*
X139008148Y-122297768D01*
X139002868Y-122297068D01*
X138997538Y-122297268D01*
X138997537Y-122297268D01*
X138886523Y-122301435D01*
X138770178Y-122305803D01*
X138713426Y-122317711D01*
X138547514Y-122352523D01*
X138547511Y-122352524D01*
X138542287Y-122353620D01*
X138325710Y-122439150D01*
X138126641Y-122559949D01*
X138122611Y-122563446D01*
X138028075Y-122645480D01*
X137950770Y-122712561D01*
X137947387Y-122716687D01*
X137947383Y-122716691D01*
X137874262Y-122805869D01*
X137803128Y-122892624D01*
X137800490Y-122897259D01*
X137800487Y-122897263D01*
X137737589Y-123007760D01*
X137687935Y-123094989D01*
X137686114Y-123100005D01*
X137686112Y-123100010D01*
X137644302Y-123215194D01*
X137608485Y-123313869D01*
X137567050Y-123543007D01*
X137566855Y-123547146D01*
X137566854Y-123547153D01*
X137565970Y-123565905D01*
X137565900Y-123567394D01*
X137565900Y-124035868D01*
X127500256Y-124035868D01*
X127513523Y-123825000D01*
X127493451Y-123505961D01*
X127433551Y-123191954D01*
X127337890Y-122897542D01*
X127335993Y-122891703D01*
X127335993Y-122891702D01*
X127334767Y-122887930D01*
X127333078Y-122884340D01*
X127200347Y-122602271D01*
X127200343Y-122602264D01*
X127198659Y-122598685D01*
X127096170Y-122437188D01*
X127029498Y-122332130D01*
X127029495Y-122332126D01*
X127027371Y-122328779D01*
X126823606Y-122082470D01*
X126590577Y-121863641D01*
X126331959Y-121675744D01*
X126328487Y-121673835D01*
X126055293Y-121523645D01*
X126055290Y-121523643D01*
X126051831Y-121521742D01*
X125781527Y-121414721D01*
X125758293Y-121405522D01*
X125758290Y-121405521D01*
X125754610Y-121404064D01*
X125750776Y-121403080D01*
X125750768Y-121403077D01*
X125558847Y-121353800D01*
X125444983Y-121324565D01*
X125441055Y-121324069D01*
X125441051Y-121324068D01*
X125285423Y-121304408D01*
X125127835Y-121284500D01*
X124808165Y-121284500D01*
X124650577Y-121304408D01*
X124494949Y-121324068D01*
X124494945Y-121324069D01*
X124491017Y-121324565D01*
X124377153Y-121353800D01*
X124185232Y-121403077D01*
X124185224Y-121403080D01*
X124181390Y-121404064D01*
X124177710Y-121405521D01*
X124177707Y-121405522D01*
X124154473Y-121414721D01*
X123884169Y-121521742D01*
X123880710Y-121523643D01*
X123880707Y-121523645D01*
X123607513Y-121673835D01*
X123604041Y-121675744D01*
X123345423Y-121863641D01*
X123112394Y-122082470D01*
X122908629Y-122328779D01*
X122906505Y-122332126D01*
X122906502Y-122332130D01*
X122839830Y-122437188D01*
X122737341Y-122598685D01*
X122735657Y-122602264D01*
X122735653Y-122602271D01*
X122602922Y-122884340D01*
X122601233Y-122887930D01*
X122600007Y-122891702D01*
X122600007Y-122891703D01*
X122598110Y-122897542D01*
X122502449Y-123191954D01*
X122442549Y-123505961D01*
X122422477Y-123825000D01*
X122442549Y-124144039D01*
X122502449Y-124458046D01*
X122503676Y-124461822D01*
X122598201Y-124752737D01*
X122601233Y-124762070D01*
X122602920Y-124765656D01*
X122602922Y-124765660D01*
X122735653Y-125047729D01*
X122735657Y-125047736D01*
X122737341Y-125051315D01*
X122739465Y-125054661D01*
X122739465Y-125054662D01*
X122899914Y-125307488D01*
X122908629Y-125321221D01*
X123112394Y-125567530D01*
X123115284Y-125570244D01*
X123115285Y-125570245D01*
X123188129Y-125638650D01*
X123224094Y-125699863D01*
X123221256Y-125770803D01*
X123180516Y-125828947D01*
X123114808Y-125855835D01*
X123101876Y-125856500D01*
X111632500Y-125856500D01*
X111564379Y-125836498D01*
X111517886Y-125782842D01*
X111506500Y-125730500D01*
X111506500Y-119023190D01*
X148495830Y-119023190D01*
X148505710Y-119035677D01*
X148545472Y-119062245D01*
X148555575Y-119067731D01*
X148737973Y-119146095D01*
X148748916Y-119149650D01*
X148942533Y-119193462D01*
X148953942Y-119194964D01*
X149152308Y-119202757D01*
X149163790Y-119202155D01*
X149360250Y-119173671D01*
X149371445Y-119170983D01*
X149559424Y-119107172D01*
X149569931Y-119102494D01*
X149691745Y-119034274D01*
X149701610Y-119024196D01*
X149698654Y-119016524D01*
X149110812Y-118428682D01*
X149096868Y-118421068D01*
X149095035Y-118421199D01*
X149088420Y-118425450D01*
X148502027Y-119011843D01*
X148495830Y-119023190D01*
X111506500Y-119023190D01*
X111506500Y-118032378D01*
X147950874Y-118032378D01*
X147963858Y-118230463D01*
X147965659Y-118241833D01*
X148014523Y-118434236D01*
X148018364Y-118445083D01*
X148101475Y-118625365D01*
X148107223Y-118635321D01*
X148118675Y-118651527D01*
X148129263Y-118659914D01*
X148142564Y-118652886D01*
X148725978Y-118069472D01*
X148732356Y-118057792D01*
X149462408Y-118057792D01*
X149462539Y-118059625D01*
X149466790Y-118066240D01*
X150053950Y-118653400D01*
X150066330Y-118660160D01*
X150072910Y-118655234D01*
X150143834Y-118528591D01*
X150148512Y-118518084D01*
X150212323Y-118330105D01*
X150215011Y-118318910D01*
X150243791Y-118120410D01*
X150244421Y-118113027D01*
X150245579Y-118068812D01*
X150255379Y-118038406D01*
X150247471Y-118027710D01*
X150240315Y-117995909D01*
X150227204Y-117853226D01*
X150225107Y-117841911D01*
X150171222Y-117650850D01*
X150167100Y-117640111D01*
X150079299Y-117462069D01*
X150077192Y-117458630D01*
X150067876Y-117451640D01*
X150055459Y-117458411D01*
X149470022Y-118043848D01*
X149462408Y-118057792D01*
X148732356Y-118057792D01*
X148733592Y-118055528D01*
X148733461Y-118053695D01*
X148729210Y-118047080D01*
X148140626Y-117458496D01*
X148128246Y-117451736D01*
X148122280Y-117456202D01*
X148040173Y-117612262D01*
X148035768Y-117622896D01*
X147976900Y-117812482D01*
X147974508Y-117823736D01*
X147951175Y-118020877D01*
X147950874Y-118032378D01*
X111506500Y-118032378D01*
X111506500Y-117089799D01*
X148495251Y-117089799D01*
X148498738Y-117098188D01*
X149085188Y-117684638D01*
X149099132Y-117692252D01*
X149100965Y-117692121D01*
X149107580Y-117687870D01*
X149693657Y-117101793D01*
X149700417Y-117089413D01*
X149694387Y-117081358D01*
X149624020Y-117036959D01*
X149613769Y-117031736D01*
X149429389Y-116958176D01*
X149418352Y-116954907D01*
X149223654Y-116916178D01*
X149212210Y-116914975D01*
X149013719Y-116912378D01*
X149002239Y-116913281D01*
X148806599Y-116946898D01*
X148795479Y-116949878D01*
X148609234Y-117018587D01*
X148598856Y-117023537D01*
X148504849Y-117079466D01*
X148495251Y-117089799D01*
X111506500Y-117089799D01*
X111506500Y-115827870D01*
X148495830Y-115827870D01*
X148505710Y-115840357D01*
X148545472Y-115866925D01*
X148555575Y-115872411D01*
X148737973Y-115950775D01*
X148748916Y-115954330D01*
X148942533Y-115998142D01*
X148953942Y-115999644D01*
X149152308Y-116007437D01*
X149163790Y-116006835D01*
X149360250Y-115978351D01*
X149371445Y-115975663D01*
X149559424Y-115911852D01*
X149569931Y-115907174D01*
X149691745Y-115838954D01*
X149701610Y-115828876D01*
X149698654Y-115821204D01*
X149110812Y-115233362D01*
X149096868Y-115225748D01*
X149095035Y-115225879D01*
X149088420Y-115230130D01*
X148502027Y-115816523D01*
X148495830Y-115827870D01*
X111506500Y-115827870D01*
X111506500Y-114837058D01*
X147950874Y-114837058D01*
X147963858Y-115035143D01*
X147965659Y-115046513D01*
X148014523Y-115238916D01*
X148018364Y-115249763D01*
X148101475Y-115430045D01*
X148107223Y-115440001D01*
X148118675Y-115456207D01*
X148129263Y-115464594D01*
X148142564Y-115457566D01*
X148725978Y-114874152D01*
X148732356Y-114862472D01*
X149462408Y-114862472D01*
X149462539Y-114864305D01*
X149466790Y-114870920D01*
X150053950Y-115458080D01*
X150066330Y-115464840D01*
X150072910Y-115459914D01*
X150143834Y-115333271D01*
X150148512Y-115322764D01*
X150212323Y-115134785D01*
X150215011Y-115123590D01*
X150243791Y-114925093D01*
X150244493Y-114916865D01*
X150264332Y-114865827D01*
X150242572Y-114821168D01*
X150241331Y-114811654D01*
X150227204Y-114657906D01*
X150225107Y-114646591D01*
X150171222Y-114455530D01*
X150167100Y-114444791D01*
X150079299Y-114266749D01*
X150077192Y-114263310D01*
X150067876Y-114256320D01*
X150055459Y-114263091D01*
X149470022Y-114848528D01*
X149462408Y-114862472D01*
X148732356Y-114862472D01*
X148733592Y-114860208D01*
X148733461Y-114858375D01*
X148729210Y-114851760D01*
X148140626Y-114263176D01*
X148128246Y-114256416D01*
X148122280Y-114260882D01*
X148040173Y-114416942D01*
X148035768Y-114427576D01*
X147976900Y-114617162D01*
X147974508Y-114628416D01*
X147951175Y-114825557D01*
X147950874Y-114837058D01*
X111506500Y-114837058D01*
X111506500Y-113894479D01*
X148495251Y-113894479D01*
X148498738Y-113902868D01*
X149085188Y-114489318D01*
X149099132Y-114496932D01*
X149100965Y-114496801D01*
X149107580Y-114492550D01*
X149693657Y-113906473D01*
X149700417Y-113894093D01*
X149694387Y-113886038D01*
X149624020Y-113841639D01*
X149613769Y-113836416D01*
X149429389Y-113762856D01*
X149418352Y-113759587D01*
X149223654Y-113720858D01*
X149212210Y-113719655D01*
X149013719Y-113717058D01*
X149002239Y-113717961D01*
X148806599Y-113751578D01*
X148795479Y-113754558D01*
X148609234Y-113823267D01*
X148598856Y-113828217D01*
X148504849Y-113884146D01*
X148495251Y-113894479D01*
X111506500Y-113894479D01*
X111506500Y-85217000D01*
X111862496Y-85217000D01*
X111882458Y-85406928D01*
X111941473Y-85588556D01*
X112036960Y-85753944D01*
X112041378Y-85758851D01*
X112041379Y-85758852D01*
X112137240Y-85865316D01*
X112164747Y-85895866D01*
X112200724Y-85922005D01*
X112301756Y-85995409D01*
X112319248Y-86008118D01*
X112325276Y-86010802D01*
X112325278Y-86010803D01*
X112394641Y-86041685D01*
X112467708Y-86074216D01*
X112486242Y-86082468D01*
X112524088Y-86108480D01*
X113708595Y-87292986D01*
X113742620Y-87355298D01*
X113745500Y-87382081D01*
X113745500Y-94926709D01*
X113725498Y-94994830D01*
X113671842Y-95041323D01*
X113633108Y-95051972D01*
X113620914Y-95053297D01*
X113593684Y-95056255D01*
X113457295Y-95107385D01*
X113340739Y-95194739D01*
X113253385Y-95311295D01*
X113202255Y-95447684D01*
X113195500Y-95509866D01*
X113195500Y-97306134D01*
X113202255Y-97368316D01*
X113253385Y-97504705D01*
X113340739Y-97621261D01*
X113457295Y-97708615D01*
X113465704Y-97711767D01*
X113465705Y-97711768D01*
X113574451Y-97752535D01*
X113631216Y-97795176D01*
X113655916Y-97861738D01*
X113640709Y-97931087D01*
X113621316Y-97957568D01*
X113494629Y-98090138D01*
X113491715Y-98094410D01*
X113491714Y-98094411D01*
X113445640Y-98161953D01*
X113368743Y-98274680D01*
X113274688Y-98477305D01*
X113214989Y-98692570D01*
X113191251Y-98914695D01*
X113191548Y-98919848D01*
X113191548Y-98919851D01*
X113201773Y-99097183D01*
X113185725Y-99166342D01*
X113165077Y-99193531D01*
X112639331Y-99719277D01*
X112638394Y-99720205D01*
X112586268Y-99771251D01*
X112573982Y-99783282D01*
X112550491Y-99819732D01*
X112543072Y-99830057D01*
X112516013Y-99863954D01*
X112512948Y-99870295D01*
X112512947Y-99870296D01*
X112501417Y-99894148D01*
X112493888Y-99907565D01*
X112475724Y-99935749D01*
X112473316Y-99942366D01*
X112473313Y-99942371D01*
X112460897Y-99976484D01*
X112455936Y-99988227D01*
X112440135Y-100020914D01*
X112440133Y-100020919D01*
X112437068Y-100027260D01*
X112435485Y-100034118D01*
X112435484Y-100034120D01*
X112429524Y-100059937D01*
X112425157Y-100074680D01*
X112413686Y-100106196D01*
X112412803Y-100113186D01*
X112412801Y-100113194D01*
X112408251Y-100149212D01*
X112406015Y-100161764D01*
X112396265Y-100203996D01*
X112396240Y-100211042D01*
X112396240Y-100211045D01*
X112396123Y-100244567D01*
X112396094Y-100245449D01*
X112395989Y-100246280D01*
X112395989Y-100282930D01*
X112395988Y-100283370D01*
X112395700Y-100365978D01*
X112395632Y-100385381D01*
X112395900Y-100386581D01*
X112395989Y-100388218D01*
X112395989Y-110020275D01*
X112395982Y-110021595D01*
X112395038Y-110111710D01*
X112404200Y-110154086D01*
X112406258Y-110166652D01*
X112411092Y-110209744D01*
X112413408Y-110216395D01*
X112413409Y-110216399D01*
X112422122Y-110241419D01*
X112426285Y-110256231D01*
X112433370Y-110288999D01*
X112451697Y-110328302D01*
X112456479Y-110340078D01*
X112470744Y-110381041D01*
X112474478Y-110387016D01*
X112474479Y-110387019D01*
X112488516Y-110409484D01*
X112495855Y-110423001D01*
X112497852Y-110427283D01*
X112510027Y-110453391D01*
X112514344Y-110458956D01*
X112514345Y-110458958D01*
X112536595Y-110487642D01*
X112543891Y-110498101D01*
X112566863Y-110534865D01*
X112571823Y-110539860D01*
X112571824Y-110539861D01*
X112595465Y-110563668D01*
X112596050Y-110564293D01*
X112596567Y-110564959D01*
X112622557Y-110590949D01*
X112694674Y-110663571D01*
X112695711Y-110664229D01*
X112696940Y-110665332D01*
X113166622Y-111135014D01*
X113200648Y-111197326D01*
X113202814Y-111237495D01*
X113191251Y-111345695D01*
X113191548Y-111350848D01*
X113191548Y-111350851D01*
X113201928Y-111530875D01*
X113204110Y-111568715D01*
X113205247Y-111573761D01*
X113205248Y-111573767D01*
X113217623Y-111628677D01*
X113253222Y-111786639D01*
X113301922Y-111906574D01*
X113334629Y-111987121D01*
X113337266Y-111993616D01*
X113453987Y-112184088D01*
X113600250Y-112352938D01*
X113772126Y-112495632D01*
X113965000Y-112608338D01*
X114173692Y-112688030D01*
X114178760Y-112689061D01*
X114178763Y-112689062D01*
X114286017Y-112710883D01*
X114392597Y-112732567D01*
X114397772Y-112732757D01*
X114397774Y-112732757D01*
X114610673Y-112740564D01*
X114610677Y-112740564D01*
X114615837Y-112740753D01*
X114620957Y-112740097D01*
X114620959Y-112740097D01*
X114832288Y-112713025D01*
X114832289Y-112713025D01*
X114837416Y-112712368D01*
X114842366Y-112710883D01*
X115046429Y-112649661D01*
X115046434Y-112649659D01*
X115051384Y-112648174D01*
X115251994Y-112549896D01*
X115433860Y-112420173D01*
X115458361Y-112395758D01*
X115588435Y-112266137D01*
X115592096Y-112262489D01*
X115617978Y-112226471D01*
X115719435Y-112085277D01*
X115722453Y-112081077D01*
X115745293Y-112034865D01*
X115819136Y-111885453D01*
X115819137Y-111885451D01*
X115821430Y-111880811D01*
X115886370Y-111667069D01*
X115915529Y-111445590D01*
X115917156Y-111379000D01*
X115898852Y-111156361D01*
X115844431Y-110939702D01*
X115801197Y-110840271D01*
X142336494Y-110840271D01*
X142350545Y-111054640D01*
X142403426Y-111262859D01*
X142493366Y-111457954D01*
X142617353Y-111633392D01*
X142771236Y-111783298D01*
X142776032Y-111786503D01*
X142776035Y-111786505D01*
X142945055Y-111899440D01*
X142945060Y-111899443D01*
X142949860Y-111902650D01*
X142955169Y-111904931D01*
X142955171Y-111904932D01*
X143141932Y-111985172D01*
X143141936Y-111985173D01*
X143147242Y-111987453D01*
X143152874Y-111988727D01*
X143152876Y-111988728D01*
X143351137Y-112033590D01*
X143351142Y-112033591D01*
X143356774Y-112034865D01*
X143362545Y-112035092D01*
X143362547Y-112035092D01*
X143428614Y-112037688D01*
X143571438Y-112043299D01*
X143696168Y-112025214D01*
X143778321Y-112013303D01*
X143778325Y-112013302D01*
X143784043Y-112012473D01*
X143789515Y-112010615D01*
X143789517Y-112010615D01*
X143982007Y-111945273D01*
X143982009Y-111945272D01*
X143987471Y-111943418D01*
X144174909Y-111838448D01*
X144237364Y-111786505D01*
X144335640Y-111704769D01*
X144340078Y-111701078D01*
X144477448Y-111535909D01*
X144582418Y-111348471D01*
X144609699Y-111268106D01*
X144649615Y-111150517D01*
X144649615Y-111150515D01*
X144651473Y-111145043D01*
X144663769Y-111060242D01*
X144680518Y-110944720D01*
X144682299Y-110932438D01*
X144683908Y-110871000D01*
X144664251Y-110657072D01*
X144657369Y-110632668D01*
X144638743Y-110566627D01*
X144605938Y-110450309D01*
X144592472Y-110423001D01*
X144513475Y-110262814D01*
X144510921Y-110257635D01*
X144502279Y-110246062D01*
X148122493Y-110246062D01*
X148131789Y-110258077D01*
X148182994Y-110293931D01*
X148192489Y-110299414D01*
X148389947Y-110391490D01*
X148400239Y-110395236D01*
X148610688Y-110451625D01*
X148621481Y-110453528D01*
X148838525Y-110472517D01*
X148849475Y-110472517D01*
X149066519Y-110453528D01*
X149077312Y-110451625D01*
X149287761Y-110395236D01*
X149298053Y-110391490D01*
X149495511Y-110299414D01*
X149505006Y-110293931D01*
X149557048Y-110257491D01*
X149565424Y-110247012D01*
X149564925Y-110246062D01*
X154091493Y-110246062D01*
X154100789Y-110258077D01*
X154151994Y-110293931D01*
X154161489Y-110299414D01*
X154358947Y-110391490D01*
X154369239Y-110395236D01*
X154579688Y-110451625D01*
X154590481Y-110453528D01*
X154807525Y-110472517D01*
X154818475Y-110472517D01*
X155035519Y-110453528D01*
X155046312Y-110451625D01*
X155256761Y-110395236D01*
X155267053Y-110391490D01*
X155464511Y-110299414D01*
X155474006Y-110293931D01*
X155526048Y-110257491D01*
X155534424Y-110247012D01*
X155527356Y-110233566D01*
X154825812Y-109532022D01*
X154811868Y-109524408D01*
X154810035Y-109524539D01*
X154803420Y-109528790D01*
X154097923Y-110234287D01*
X154091493Y-110246062D01*
X149564925Y-110246062D01*
X149558356Y-110233566D01*
X148856812Y-109532022D01*
X148842868Y-109524408D01*
X148841035Y-109524539D01*
X148834420Y-109528790D01*
X148128923Y-110234287D01*
X148122493Y-110246062D01*
X144502279Y-110246062D01*
X144382384Y-110085502D01*
X144300594Y-110009896D01*
X144228870Y-109943595D01*
X144228867Y-109943593D01*
X144224630Y-109939676D01*
X144042943Y-109825040D01*
X143843408Y-109745434D01*
X143837748Y-109744308D01*
X143837744Y-109744307D01*
X143638374Y-109704650D01*
X143638371Y-109704650D01*
X143632707Y-109703523D01*
X143626932Y-109703447D01*
X143626928Y-109703447D01*
X143519255Y-109702038D01*
X143417896Y-109700711D01*
X143412199Y-109701690D01*
X143412198Y-109701690D01*
X143211867Y-109736113D01*
X143206170Y-109737092D01*
X143004620Y-109811448D01*
X142819994Y-109921288D01*
X142815654Y-109925094D01*
X142815650Y-109925097D01*
X142662818Y-110059128D01*
X142658477Y-110062935D01*
X142525478Y-110231644D01*
X142522789Y-110236755D01*
X142522787Y-110236758D01*
X142489822Y-110299414D01*
X142425450Y-110421765D01*
X142361745Y-110626931D01*
X142336494Y-110840271D01*
X115801197Y-110840271D01*
X115755354Y-110734840D01*
X115685545Y-110626931D01*
X115636822Y-110551617D01*
X115636820Y-110551614D01*
X115634014Y-110547277D01*
X115483670Y-110382051D01*
X115479619Y-110378852D01*
X115479615Y-110378848D01*
X115312414Y-110246800D01*
X115312410Y-110246798D01*
X115308359Y-110243598D01*
X115267053Y-110220796D01*
X115217084Y-110170364D01*
X115202312Y-110100921D01*
X115227428Y-110034516D01*
X115254780Y-110007909D01*
X115354760Y-109936594D01*
X115433860Y-109880173D01*
X115439698Y-109874356D01*
X115569071Y-109745434D01*
X115592096Y-109722489D01*
X115605725Y-109703523D01*
X115719435Y-109545277D01*
X115722453Y-109541077D01*
X115726929Y-109532022D01*
X115819136Y-109345453D01*
X115819137Y-109345451D01*
X115821430Y-109340811D01*
X115874701Y-109165475D01*
X147531483Y-109165475D01*
X147550472Y-109382519D01*
X147552375Y-109393312D01*
X147608764Y-109603761D01*
X147612510Y-109614053D01*
X147704586Y-109811511D01*
X147710069Y-109821006D01*
X147746509Y-109873048D01*
X147756988Y-109881424D01*
X147770434Y-109874356D01*
X148471978Y-109172812D01*
X148478356Y-109161132D01*
X149208408Y-109161132D01*
X149208539Y-109162965D01*
X149212790Y-109169580D01*
X149918287Y-109875077D01*
X149930062Y-109881507D01*
X149942077Y-109872211D01*
X149977931Y-109821006D01*
X149983414Y-109811511D01*
X150075490Y-109614053D01*
X150079236Y-109603761D01*
X150135625Y-109393312D01*
X150137528Y-109382519D01*
X150156517Y-109165475D01*
X153500483Y-109165475D01*
X153519472Y-109382519D01*
X153521375Y-109393312D01*
X153577764Y-109603761D01*
X153581510Y-109614053D01*
X153673586Y-109811511D01*
X153679069Y-109821006D01*
X153715509Y-109873048D01*
X153725988Y-109881424D01*
X153739434Y-109874356D01*
X154440978Y-109172812D01*
X154447356Y-109161132D01*
X155177408Y-109161132D01*
X155177539Y-109162965D01*
X155181790Y-109169580D01*
X155887287Y-109875077D01*
X155899062Y-109881507D01*
X155911077Y-109872211D01*
X155946931Y-109821006D01*
X155952414Y-109811511D01*
X156044490Y-109614053D01*
X156048236Y-109603761D01*
X156104625Y-109393312D01*
X156106528Y-109382519D01*
X156125517Y-109165475D01*
X156125517Y-109154525D01*
X156106528Y-108937481D01*
X156104625Y-108926688D01*
X156048236Y-108716239D01*
X156044490Y-108705947D01*
X155952414Y-108508489D01*
X155946931Y-108498994D01*
X155910491Y-108446952D01*
X155900012Y-108438576D01*
X155886566Y-108445644D01*
X155185022Y-109147188D01*
X155177408Y-109161132D01*
X154447356Y-109161132D01*
X154448592Y-109158868D01*
X154448461Y-109157035D01*
X154444210Y-109150420D01*
X153738713Y-108444923D01*
X153726938Y-108438493D01*
X153714923Y-108447789D01*
X153679069Y-108498994D01*
X153673586Y-108508489D01*
X153581510Y-108705947D01*
X153577764Y-108716239D01*
X153521375Y-108926688D01*
X153519472Y-108937481D01*
X153500483Y-109154525D01*
X153500483Y-109165475D01*
X150156517Y-109165475D01*
X150156517Y-109154525D01*
X150137528Y-108937481D01*
X150135625Y-108926688D01*
X150079236Y-108716239D01*
X150075490Y-108705947D01*
X149983414Y-108508489D01*
X149977931Y-108498994D01*
X149941491Y-108446952D01*
X149931012Y-108438576D01*
X149917566Y-108445644D01*
X149216022Y-109147188D01*
X149208408Y-109161132D01*
X148478356Y-109161132D01*
X148479592Y-109158868D01*
X148479461Y-109157035D01*
X148475210Y-109150420D01*
X147769713Y-108444923D01*
X147757938Y-108438493D01*
X147745923Y-108447789D01*
X147710069Y-108498994D01*
X147704586Y-108508489D01*
X147612510Y-108705947D01*
X147608764Y-108716239D01*
X147552375Y-108926688D01*
X147550472Y-108937481D01*
X147531483Y-109154525D01*
X147531483Y-109165475D01*
X115874701Y-109165475D01*
X115878028Y-109154525D01*
X115884865Y-109132023D01*
X115884865Y-109132021D01*
X115886370Y-109127069D01*
X115915529Y-108905590D01*
X115917156Y-108839000D01*
X115905242Y-108694087D01*
X115919595Y-108624558D01*
X115941723Y-108594669D01*
X116463404Y-108072988D01*
X148122576Y-108072988D01*
X148129644Y-108086434D01*
X148831188Y-108787978D01*
X148845132Y-108795592D01*
X148846965Y-108795461D01*
X148853580Y-108791210D01*
X149559077Y-108085713D01*
X149565507Y-108073938D01*
X149564772Y-108072988D01*
X154091576Y-108072988D01*
X154098644Y-108086434D01*
X154800188Y-108787978D01*
X154814132Y-108795592D01*
X154815965Y-108795461D01*
X154822580Y-108791210D01*
X155528077Y-108085713D01*
X155534507Y-108073938D01*
X155525211Y-108061923D01*
X155474006Y-108026069D01*
X155464511Y-108020586D01*
X155267053Y-107928510D01*
X155256761Y-107924764D01*
X155046312Y-107868375D01*
X155035519Y-107866472D01*
X154818475Y-107847483D01*
X154807525Y-107847483D01*
X154590481Y-107866472D01*
X154579688Y-107868375D01*
X154369239Y-107924764D01*
X154358947Y-107928510D01*
X154161489Y-108020586D01*
X154151994Y-108026069D01*
X154099952Y-108062509D01*
X154091576Y-108072988D01*
X149564772Y-108072988D01*
X149556211Y-108061923D01*
X149505006Y-108026069D01*
X149495511Y-108020586D01*
X149298053Y-107928510D01*
X149287761Y-107924764D01*
X149077312Y-107868375D01*
X149066519Y-107866472D01*
X148849475Y-107847483D01*
X148838525Y-107847483D01*
X148621481Y-107866472D01*
X148610688Y-107868375D01*
X148400239Y-107924764D01*
X148389947Y-107928510D01*
X148192489Y-108020586D01*
X148182994Y-108026069D01*
X148130952Y-108062509D01*
X148122576Y-108072988D01*
X116463404Y-108072988D01*
X116468669Y-108067723D01*
X116469606Y-108066795D01*
X116528986Y-108008646D01*
X116528987Y-108008645D01*
X116534018Y-108003718D01*
X116557509Y-107967268D01*
X116564928Y-107956943D01*
X116591987Y-107923046D01*
X116606584Y-107892851D01*
X116614113Y-107879434D01*
X116621240Y-107868375D01*
X116632276Y-107851251D01*
X116634684Y-107844634D01*
X116634687Y-107844629D01*
X116647103Y-107810516D01*
X116652064Y-107798773D01*
X116667864Y-107766089D01*
X116667867Y-107766080D01*
X116670932Y-107759740D01*
X116678477Y-107727061D01*
X116682845Y-107712314D01*
X116694314Y-107680804D01*
X116695196Y-107673819D01*
X116695198Y-107673812D01*
X116699748Y-107637797D01*
X116701983Y-107625246D01*
X116710151Y-107589867D01*
X116711736Y-107583004D01*
X116711878Y-107542417D01*
X116711907Y-107541547D01*
X116712011Y-107540720D01*
X116712011Y-107504079D01*
X116712368Y-107401619D01*
X116712100Y-107400419D01*
X116712011Y-107398781D01*
X116712011Y-102846725D01*
X116712018Y-102845405D01*
X116712514Y-102798061D01*
X116712962Y-102755290D01*
X116703800Y-102712914D01*
X116701741Y-102700343D01*
X116697693Y-102664255D01*
X116696908Y-102657256D01*
X116687998Y-102631668D01*
X116685878Y-102625581D01*
X116681715Y-102610769D01*
X116676120Y-102584892D01*
X116674630Y-102578001D01*
X116656303Y-102538698D01*
X116651521Y-102526922D01*
X116637256Y-102485959D01*
X116633521Y-102479981D01*
X116619484Y-102457516D01*
X116612145Y-102443999D01*
X116600952Y-102419997D01*
X116600951Y-102419996D01*
X116597973Y-102413609D01*
X116571405Y-102379358D01*
X116564109Y-102368899D01*
X116544869Y-102338107D01*
X116544867Y-102338104D01*
X116541137Y-102332135D01*
X116512535Y-102303332D01*
X116511950Y-102302707D01*
X116511433Y-102302041D01*
X116485443Y-102276051D01*
X116413326Y-102203429D01*
X116412289Y-102202771D01*
X116411060Y-102201668D01*
X115941836Y-101732444D01*
X115907810Y-101670132D01*
X115906009Y-101626903D01*
X115915092Y-101557911D01*
X115915092Y-101557907D01*
X115915529Y-101554590D01*
X115916472Y-101515999D01*
X115917074Y-101491365D01*
X115917074Y-101491361D01*
X115917156Y-101488000D01*
X115898852Y-101265361D01*
X115844431Y-101048702D01*
X115755354Y-100843840D01*
X115634014Y-100656277D01*
X115483670Y-100491051D01*
X115479619Y-100487852D01*
X115479615Y-100487848D01*
X115312414Y-100355800D01*
X115312410Y-100355798D01*
X115308359Y-100352598D01*
X115267053Y-100329796D01*
X115217084Y-100279364D01*
X115202312Y-100209921D01*
X115227428Y-100143516D01*
X115254780Y-100116909D01*
X115370846Y-100034120D01*
X115433860Y-99989173D01*
X115440575Y-99982482D01*
X115559517Y-99863954D01*
X115592096Y-99831489D01*
X115600556Y-99819716D01*
X115608276Y-99808973D01*
X115664271Y-99765326D01*
X115710598Y-99756500D01*
X132644095Y-99756500D01*
X132659014Y-99757386D01*
X132694320Y-99761596D01*
X132740575Y-99756734D01*
X132743493Y-99756500D01*
X132745610Y-99756500D01*
X132787068Y-99751849D01*
X132787665Y-99751785D01*
X132874712Y-99742636D01*
X132877416Y-99741715D01*
X132880255Y-99741397D01*
X132962923Y-99712609D01*
X132963494Y-99712413D01*
X133046421Y-99684182D01*
X133048856Y-99682684D01*
X133051552Y-99681745D01*
X133057031Y-99678321D01*
X133057034Y-99678320D01*
X133125763Y-99635375D01*
X133126507Y-99634913D01*
X133200912Y-99589138D01*
X133202951Y-99587141D01*
X133205376Y-99585626D01*
X133267493Y-99523941D01*
X133268119Y-99523324D01*
X133325891Y-99466749D01*
X133330507Y-99462229D01*
X133332053Y-99459830D01*
X133334082Y-99457815D01*
X133362440Y-99413130D01*
X133380954Y-99383955D01*
X133381429Y-99383212D01*
X133428765Y-99309762D01*
X133429741Y-99307079D01*
X133431273Y-99304666D01*
X133460602Y-99222301D01*
X133460900Y-99221474D01*
X133488588Y-99145402D01*
X133488589Y-99145398D01*
X133490803Y-99139315D01*
X133491161Y-99136480D01*
X133492119Y-99133790D01*
X133502479Y-99046914D01*
X133502586Y-99046044D01*
X133506297Y-99016670D01*
X133508500Y-98999231D01*
X133508500Y-98997102D01*
X133508763Y-98994211D01*
X133512762Y-98960673D01*
X133513596Y-98953680D01*
X133509190Y-98911760D01*
X133508500Y-98898589D01*
X133508500Y-97821719D01*
X133528502Y-97753598D01*
X133545405Y-97732624D01*
X141326494Y-89951535D01*
X141388806Y-89917509D01*
X141459621Y-89922574D01*
X141516457Y-89965121D01*
X141541268Y-90031641D01*
X141541589Y-90040630D01*
X141541589Y-101319875D01*
X141541582Y-101321195D01*
X141540638Y-101411310D01*
X141549800Y-101453686D01*
X141551858Y-101466252D01*
X141556692Y-101509344D01*
X141559008Y-101515995D01*
X141559009Y-101515999D01*
X141567722Y-101541019D01*
X141571885Y-101555831D01*
X141576276Y-101576137D01*
X141578970Y-101588599D01*
X141597297Y-101627902D01*
X141602079Y-101639678D01*
X141616344Y-101680641D01*
X141620078Y-101686616D01*
X141620079Y-101686619D01*
X141634116Y-101709084D01*
X141641455Y-101722601D01*
X141652648Y-101746603D01*
X141655627Y-101752991D01*
X141659944Y-101758556D01*
X141659945Y-101758558D01*
X141682195Y-101787242D01*
X141689491Y-101797701D01*
X141704612Y-101821900D01*
X141712463Y-101834465D01*
X141717423Y-101839460D01*
X141717424Y-101839461D01*
X141741065Y-101863268D01*
X141741650Y-101863893D01*
X141742167Y-101864559D01*
X141768157Y-101890549D01*
X141840274Y-101963171D01*
X141841311Y-101963829D01*
X141842540Y-101964932D01*
X143402277Y-103524669D01*
X143403205Y-103525606D01*
X143442532Y-103565765D01*
X143466282Y-103590018D01*
X143502732Y-103613509D01*
X143513057Y-103620928D01*
X143546954Y-103647987D01*
X143553295Y-103651052D01*
X143553296Y-103651053D01*
X143577148Y-103662583D01*
X143590565Y-103670112D01*
X143618749Y-103688276D01*
X143625366Y-103690684D01*
X143625371Y-103690687D01*
X143659484Y-103703103D01*
X143671227Y-103708064D01*
X143703911Y-103723864D01*
X143703920Y-103723867D01*
X143710260Y-103726932D01*
X143717125Y-103728517D01*
X143742939Y-103734477D01*
X143757679Y-103738843D01*
X143789196Y-103750314D01*
X143796181Y-103751196D01*
X143796188Y-103751198D01*
X143832203Y-103755748D01*
X143844754Y-103757983D01*
X143886996Y-103767736D01*
X143894040Y-103767761D01*
X143894044Y-103767761D01*
X143927583Y-103767878D01*
X143928453Y-103767907D01*
X143929280Y-103768011D01*
X143965769Y-103768011D01*
X143966208Y-103768012D01*
X144064854Y-103768356D01*
X144064859Y-103768356D01*
X144068381Y-103768368D01*
X144069581Y-103768100D01*
X144071219Y-103768011D01*
X153504275Y-103768011D01*
X153505595Y-103768018D01*
X153595710Y-103768962D01*
X153638086Y-103759800D01*
X153650652Y-103757742D01*
X153693744Y-103752908D01*
X153700395Y-103750592D01*
X153700399Y-103750591D01*
X153725419Y-103741878D01*
X153740231Y-103737715D01*
X153766108Y-103732120D01*
X153772999Y-103730630D01*
X153812302Y-103712303D01*
X153824078Y-103707521D01*
X153865041Y-103693256D01*
X153871016Y-103689522D01*
X153871019Y-103689521D01*
X153893484Y-103675484D01*
X153907001Y-103668145D01*
X153931003Y-103656952D01*
X153931004Y-103656951D01*
X153937391Y-103653973D01*
X153950424Y-103643864D01*
X153971642Y-103627405D01*
X153982101Y-103620109D01*
X154012893Y-103600869D01*
X154012896Y-103600867D01*
X154018865Y-103597137D01*
X154047668Y-103568535D01*
X154048293Y-103567950D01*
X154048959Y-103567433D01*
X154074949Y-103541443D01*
X154147571Y-103469326D01*
X154148229Y-103468289D01*
X154149332Y-103467060D01*
X154615032Y-103001360D01*
X154677344Y-102967334D01*
X154715108Y-102964934D01*
X154807524Y-102973019D01*
X154807525Y-102973019D01*
X154813000Y-102973498D01*
X155041087Y-102953543D01*
X155046400Y-102952119D01*
X155046402Y-102952119D01*
X155256933Y-102895707D01*
X155256935Y-102895706D01*
X155262243Y-102894284D01*
X155267225Y-102891961D01*
X155464762Y-102799849D01*
X155464767Y-102799846D01*
X155469749Y-102797523D01*
X155608536Y-102700343D01*
X155652789Y-102669357D01*
X155652792Y-102669355D01*
X155657300Y-102666198D01*
X155819198Y-102504300D01*
X155836227Y-102479981D01*
X155886599Y-102408042D01*
X155950523Y-102316749D01*
X155952846Y-102311767D01*
X155952849Y-102311762D01*
X156044961Y-102114225D01*
X156044961Y-102114224D01*
X156047284Y-102109243D01*
X156053914Y-102084502D01*
X156105119Y-101893402D01*
X156105120Y-101893399D01*
X156106543Y-101888087D01*
X156126498Y-101660000D01*
X156123609Y-101626975D01*
X156117934Y-101562108D01*
X156131924Y-101492503D01*
X156154360Y-101462032D01*
X157537158Y-100079234D01*
X157538095Y-100078306D01*
X157597475Y-100020157D01*
X157597476Y-100020156D01*
X157602507Y-100015229D01*
X157625998Y-99978779D01*
X157633417Y-99968454D01*
X157660476Y-99934557D01*
X157675073Y-99904362D01*
X157682602Y-99890945D01*
X157700765Y-99862762D01*
X157703173Y-99856145D01*
X157703176Y-99856140D01*
X157715592Y-99822027D01*
X157720553Y-99810284D01*
X157736354Y-99777597D01*
X157736356Y-99777592D01*
X157739421Y-99771251D01*
X157746965Y-99738572D01*
X157751332Y-99723831D01*
X157762803Y-99692315D01*
X157763686Y-99685325D01*
X157763688Y-99685317D01*
X157768238Y-99649299D01*
X157770474Y-99636747D01*
X157778638Y-99601386D01*
X157778638Y-99601383D01*
X157780224Y-99594515D01*
X157780319Y-99567465D01*
X157780366Y-99553944D01*
X157780395Y-99553062D01*
X157780500Y-99552231D01*
X157780500Y-99515428D01*
X157780694Y-99459821D01*
X157780845Y-99416657D01*
X157780845Y-99416652D01*
X157780857Y-99413130D01*
X157780589Y-99411930D01*
X157780500Y-99410293D01*
X157780500Y-97288082D01*
X157800502Y-97219961D01*
X157817405Y-97198987D01*
X158229870Y-96786522D01*
X159480273Y-96786522D01*
X159527764Y-96963761D01*
X159531510Y-96974053D01*
X159623586Y-97171511D01*
X159629069Y-97181007D01*
X159754028Y-97359467D01*
X159761084Y-97367875D01*
X159915125Y-97521916D01*
X159923533Y-97528972D01*
X160101993Y-97653931D01*
X160111489Y-97659414D01*
X160308947Y-97751490D01*
X160319239Y-97755236D01*
X160529688Y-97811625D01*
X160540481Y-97813528D01*
X160703170Y-97827762D01*
X160708635Y-97828000D01*
X160890885Y-97828000D01*
X160906124Y-97823525D01*
X160907329Y-97822135D01*
X160909000Y-97814452D01*
X160909000Y-97809885D01*
X161417000Y-97809885D01*
X161421475Y-97825124D01*
X161422865Y-97826329D01*
X161430548Y-97828000D01*
X161617365Y-97828000D01*
X161622830Y-97827762D01*
X161785519Y-97813528D01*
X161796312Y-97811625D01*
X162006761Y-97755236D01*
X162017053Y-97751490D01*
X162214511Y-97659414D01*
X162224007Y-97653931D01*
X162402467Y-97528972D01*
X162410875Y-97521916D01*
X162564916Y-97367875D01*
X162571972Y-97359467D01*
X162696931Y-97181007D01*
X162702414Y-97171511D01*
X162794490Y-96974053D01*
X162798236Y-96963761D01*
X162844394Y-96791497D01*
X162844058Y-96777401D01*
X162836116Y-96774000D01*
X161435115Y-96774000D01*
X161419876Y-96778475D01*
X161418671Y-96779865D01*
X161417000Y-96787548D01*
X161417000Y-97809885D01*
X160909000Y-97809885D01*
X160909000Y-96792115D01*
X160904525Y-96776876D01*
X160903135Y-96775671D01*
X160895452Y-96774000D01*
X159495033Y-96774000D01*
X159481502Y-96777973D01*
X159480273Y-96786522D01*
X158229870Y-96786522D01*
X159909516Y-95106875D01*
X159971828Y-95072850D01*
X160042643Y-95077914D01*
X160070880Y-95092756D01*
X160106251Y-95117523D01*
X160111233Y-95119846D01*
X160111238Y-95119849D01*
X160146049Y-95136081D01*
X160199334Y-95182998D01*
X160218795Y-95251275D01*
X160198253Y-95319235D01*
X160146049Y-95364471D01*
X160111489Y-95380586D01*
X160101993Y-95386069D01*
X159923533Y-95511028D01*
X159915125Y-95518084D01*
X159761084Y-95672125D01*
X159754028Y-95680533D01*
X159629069Y-95858993D01*
X159623586Y-95868489D01*
X159531510Y-96065947D01*
X159527764Y-96076239D01*
X159481606Y-96248503D01*
X159481942Y-96262599D01*
X159489884Y-96266000D01*
X162830967Y-96266000D01*
X162844498Y-96262027D01*
X162845727Y-96253478D01*
X162798236Y-96076239D01*
X162794490Y-96065947D01*
X162702414Y-95868489D01*
X162696931Y-95858993D01*
X162571972Y-95680533D01*
X162564916Y-95672125D01*
X162410875Y-95518084D01*
X162402467Y-95511028D01*
X162224007Y-95386069D01*
X162214511Y-95380586D01*
X162179951Y-95364471D01*
X162126666Y-95317554D01*
X162107205Y-95249277D01*
X162127747Y-95181317D01*
X162179951Y-95136081D01*
X162214762Y-95119849D01*
X162214767Y-95119846D01*
X162219749Y-95117523D01*
X162352271Y-95024730D01*
X162402789Y-94989357D01*
X162402792Y-94989355D01*
X162407300Y-94986198D01*
X162569198Y-94824300D01*
X162700523Y-94636749D01*
X162702846Y-94631767D01*
X162702849Y-94631762D01*
X162794961Y-94434225D01*
X162794961Y-94434224D01*
X162797284Y-94429243D01*
X162856543Y-94208087D01*
X162876498Y-93980000D01*
X162856543Y-93751913D01*
X162834254Y-93668731D01*
X162798707Y-93536067D01*
X162798706Y-93536065D01*
X162797284Y-93530757D01*
X162774759Y-93482451D01*
X162702849Y-93328238D01*
X162702846Y-93328233D01*
X162700523Y-93323251D01*
X162619566Y-93207633D01*
X162572357Y-93140211D01*
X162572354Y-93140207D01*
X162569198Y-93135700D01*
X162407300Y-92973802D01*
X162402792Y-92970645D01*
X162402789Y-92970643D01*
X162324611Y-92915902D01*
X162219749Y-92842477D01*
X162214767Y-92840154D01*
X162214762Y-92840151D01*
X162180543Y-92824195D01*
X162127258Y-92777278D01*
X162107797Y-92709001D01*
X162128339Y-92641041D01*
X162180543Y-92595805D01*
X162214762Y-92579849D01*
X162214767Y-92579846D01*
X162219749Y-92577523D01*
X162324611Y-92504098D01*
X162402789Y-92449357D01*
X162402792Y-92449355D01*
X162407300Y-92446198D01*
X162569198Y-92284300D01*
X162700523Y-92096749D01*
X162702846Y-92091767D01*
X162702849Y-92091762D01*
X162794961Y-91894225D01*
X162794961Y-91894224D01*
X162797284Y-91889243D01*
X162856543Y-91668087D01*
X162876498Y-91440000D01*
X162856543Y-91211913D01*
X162797284Y-90990757D01*
X162794961Y-90985775D01*
X162702849Y-90788238D01*
X162702846Y-90788233D01*
X162700523Y-90783251D01*
X162569198Y-90595700D01*
X162407300Y-90433802D01*
X162402789Y-90430643D01*
X162398576Y-90427108D01*
X162399527Y-90425974D01*
X162359529Y-90375929D01*
X162352224Y-90305310D01*
X162384258Y-90241951D01*
X162445462Y-90205970D01*
X162462517Y-90202918D01*
X162473316Y-90201745D01*
X162609705Y-90150615D01*
X162726261Y-90063261D01*
X162813615Y-89946705D01*
X162864745Y-89810316D01*
X162871500Y-89748134D01*
X162871500Y-88051866D01*
X162864745Y-87989684D01*
X162813615Y-87853295D01*
X162726261Y-87736739D01*
X162609705Y-87649385D01*
X162473316Y-87598255D01*
X162411134Y-87591500D01*
X159914866Y-87591500D01*
X159852684Y-87598255D01*
X159716295Y-87649385D01*
X159599739Y-87736739D01*
X159512385Y-87853295D01*
X159461255Y-87989684D01*
X159454500Y-88051866D01*
X159454500Y-89748134D01*
X159461255Y-89810316D01*
X159512385Y-89946705D01*
X159599739Y-90063261D01*
X159716295Y-90150615D01*
X159852684Y-90201745D01*
X159863474Y-90202917D01*
X159865606Y-90203803D01*
X159868222Y-90204425D01*
X159868121Y-90204848D01*
X159929035Y-90230155D01*
X159969463Y-90288517D01*
X159971922Y-90359471D01*
X159935629Y-90420490D01*
X159926969Y-90427489D01*
X159923207Y-90430646D01*
X159918700Y-90433802D01*
X159756802Y-90595700D01*
X159625477Y-90783251D01*
X159623154Y-90788233D01*
X159623151Y-90788238D01*
X159531039Y-90985775D01*
X159528716Y-90990757D01*
X159469457Y-91211913D01*
X159449502Y-91440000D01*
X159469457Y-91668087D01*
X159528716Y-91889243D01*
X159531039Y-91894224D01*
X159531039Y-91894225D01*
X159623151Y-92091762D01*
X159623154Y-92091767D01*
X159625477Y-92096749D01*
X159756802Y-92284300D01*
X159918700Y-92446198D01*
X159923208Y-92449355D01*
X159923211Y-92449357D01*
X160001389Y-92504098D01*
X160106251Y-92577523D01*
X160111233Y-92579846D01*
X160111238Y-92579849D01*
X160145457Y-92595805D01*
X160198742Y-92642722D01*
X160218203Y-92710999D01*
X160197661Y-92778959D01*
X160145457Y-92824195D01*
X160111238Y-92840151D01*
X160111233Y-92840154D01*
X160106251Y-92842477D01*
X160001389Y-92915902D01*
X159923211Y-92970643D01*
X159923208Y-92970645D01*
X159918700Y-92973802D01*
X159756802Y-93135700D01*
X159741180Y-93158011D01*
X159679406Y-93204730D01*
X159671070Y-93207633D01*
X159656257Y-93211796D01*
X159623490Y-93218881D01*
X159584189Y-93237207D01*
X159572406Y-93241992D01*
X159531448Y-93256255D01*
X159525471Y-93259990D01*
X159503016Y-93274021D01*
X159489499Y-93281360D01*
X159465481Y-93292560D01*
X159465477Y-93292562D01*
X159459098Y-93295537D01*
X159453534Y-93299853D01*
X159453532Y-93299854D01*
X159424840Y-93322109D01*
X159414385Y-93329403D01*
X159377624Y-93352374D01*
X159372627Y-93357336D01*
X159372626Y-93357337D01*
X159348821Y-93380976D01*
X159348196Y-93381561D01*
X159347530Y-93382078D01*
X159321540Y-93408068D01*
X159248918Y-93480185D01*
X159248260Y-93481222D01*
X159247157Y-93482451D01*
X156406842Y-96322766D01*
X156405905Y-96323694D01*
X156341493Y-96386771D01*
X156318002Y-96423221D01*
X156310583Y-96433546D01*
X156283524Y-96467443D01*
X156280459Y-96473784D01*
X156280458Y-96473785D01*
X156268928Y-96497637D01*
X156261399Y-96511054D01*
X156243235Y-96539238D01*
X156240827Y-96545855D01*
X156240824Y-96545860D01*
X156228408Y-96579973D01*
X156223447Y-96591716D01*
X156207646Y-96624403D01*
X156207644Y-96624408D01*
X156204579Y-96630749D01*
X156202996Y-96637607D01*
X156202995Y-96637609D01*
X156197035Y-96663426D01*
X156192668Y-96678169D01*
X156181197Y-96709685D01*
X156180314Y-96716675D01*
X156180312Y-96716683D01*
X156175762Y-96752701D01*
X156173526Y-96765253D01*
X156167325Y-96792115D01*
X156163776Y-96807485D01*
X156163751Y-96814531D01*
X156163751Y-96814534D01*
X156163634Y-96848056D01*
X156163605Y-96848938D01*
X156163500Y-96849769D01*
X156163500Y-96886419D01*
X156163499Y-96886859D01*
X156163195Y-96974053D01*
X156163143Y-96988870D01*
X156163411Y-96990070D01*
X156163500Y-96991707D01*
X156163500Y-97995967D01*
X156143498Y-98064088D01*
X156089842Y-98110581D01*
X156019568Y-98120685D01*
X155954988Y-98091191D01*
X155916231Y-98030169D01*
X155911530Y-98013500D01*
X155908938Y-98004309D01*
X155904825Y-97995967D01*
X155816475Y-97816814D01*
X155813921Y-97811635D01*
X155739347Y-97711768D01*
X155688837Y-97644126D01*
X155688836Y-97644125D01*
X155685384Y-97639502D01*
X155657884Y-97614081D01*
X155531870Y-97497595D01*
X155531867Y-97497593D01*
X155527630Y-97493676D01*
X155345943Y-97379040D01*
X155146408Y-97299434D01*
X155140748Y-97298308D01*
X155140744Y-97298307D01*
X154941374Y-97258650D01*
X154941371Y-97258650D01*
X154935707Y-97257523D01*
X154929932Y-97257447D01*
X154929928Y-97257447D01*
X154822255Y-97256038D01*
X154720896Y-97254711D01*
X154715199Y-97255690D01*
X154715198Y-97255690D01*
X154526687Y-97288082D01*
X154509170Y-97291092D01*
X154307620Y-97365448D01*
X154122994Y-97475288D01*
X154073173Y-97518980D01*
X153997627Y-97585232D01*
X153933222Y-97615109D01*
X153914549Y-97616500D01*
X149740817Y-97616500D01*
X149672696Y-97596498D01*
X149655288Y-97583025D01*
X149562870Y-97497595D01*
X149562867Y-97497593D01*
X149558630Y-97493676D01*
X149376943Y-97379040D01*
X149177408Y-97299434D01*
X149171748Y-97298308D01*
X149171744Y-97298307D01*
X148972374Y-97258650D01*
X148972371Y-97258650D01*
X148966707Y-97257523D01*
X148960932Y-97257447D01*
X148960928Y-97257447D01*
X148853255Y-97256038D01*
X148751896Y-97254711D01*
X148746199Y-97255690D01*
X148746198Y-97255690D01*
X148557687Y-97288082D01*
X148540170Y-97291092D01*
X148385451Y-97348171D01*
X148339154Y-97365251D01*
X148268321Y-97370063D01*
X148206130Y-97335816D01*
X148172328Y-97273383D01*
X148177645Y-97202585D01*
X148206448Y-97157944D01*
X151695158Y-93669234D01*
X151696095Y-93668306D01*
X151755475Y-93610157D01*
X151755476Y-93610156D01*
X151760507Y-93605229D01*
X151783998Y-93568779D01*
X151791417Y-93558454D01*
X151818476Y-93524557D01*
X151821540Y-93518218D01*
X151821543Y-93518214D01*
X151833074Y-93494362D01*
X151840601Y-93480949D01*
X151854947Y-93458687D01*
X151854948Y-93458684D01*
X151858765Y-93452762D01*
X151861176Y-93446139D01*
X151873592Y-93412027D01*
X151878553Y-93400283D01*
X151894352Y-93367601D01*
X151894353Y-93367599D01*
X151897421Y-93361252D01*
X151904966Y-93328573D01*
X151909334Y-93313825D01*
X151912388Y-93305435D01*
X151920803Y-93282315D01*
X151921685Y-93275329D01*
X151921687Y-93275323D01*
X151926238Y-93239299D01*
X151928474Y-93226747D01*
X151936638Y-93191386D01*
X151936638Y-93191383D01*
X151938224Y-93184515D01*
X151938366Y-93143944D01*
X151938395Y-93143062D01*
X151938500Y-93142231D01*
X151938500Y-93105428D01*
X151938857Y-93003130D01*
X151938589Y-93001930D01*
X151938500Y-93000293D01*
X151938500Y-86620082D01*
X151958502Y-86551961D01*
X151975405Y-86530987D01*
X161406885Y-77099507D01*
X161469197Y-77065481D01*
X161512535Y-77063694D01*
X161552132Y-77068942D01*
X161727848Y-77092232D01*
X161727852Y-77092232D01*
X161733132Y-77092932D01*
X161738462Y-77092732D01*
X161738463Y-77092732D01*
X161849477Y-77088564D01*
X161965822Y-77084197D01*
X162070005Y-77062337D01*
X162188486Y-77037477D01*
X162188489Y-77037476D01*
X162193713Y-77036380D01*
X162410290Y-76950850D01*
X162609359Y-76830051D01*
X162613855Y-76826150D01*
X162781197Y-76680939D01*
X162781199Y-76680937D01*
X162785230Y-76677439D01*
X162788613Y-76673313D01*
X162788617Y-76673309D01*
X162887776Y-76552374D01*
X162932872Y-76497376D01*
X162958845Y-76451748D01*
X163009927Y-76402442D01*
X163079558Y-76388580D01*
X163145629Y-76414563D01*
X163172867Y-76443713D01*
X163264804Y-76580272D01*
X163268483Y-76584129D01*
X163268485Y-76584131D01*
X163353223Y-76672959D01*
X163425532Y-76748758D01*
X163612350Y-76887754D01*
X163617102Y-76890170D01*
X163814244Y-76990402D01*
X163819916Y-76993286D01*
X163931106Y-77027811D01*
X164037193Y-77060753D01*
X164037199Y-77060754D01*
X164042296Y-77062337D01*
X164166660Y-77078820D01*
X164267848Y-77092232D01*
X164267852Y-77092232D01*
X164273132Y-77092932D01*
X164278462Y-77092732D01*
X164278463Y-77092732D01*
X164389477Y-77088564D01*
X164505822Y-77084197D01*
X164527602Y-77079627D01*
X164598378Y-77085214D01*
X164654898Y-77128179D01*
X164679218Y-77194880D01*
X164663615Y-77264141D01*
X164642571Y-77292037D01*
X154875949Y-87058659D01*
X154813637Y-87092685D01*
X154785204Y-87095553D01*
X154782211Y-87095514D01*
X154720896Y-87094711D01*
X154715199Y-87095690D01*
X154715198Y-87095690D01*
X154711945Y-87096249D01*
X154509170Y-87131092D01*
X154307620Y-87205448D01*
X154122994Y-87315288D01*
X154118654Y-87319094D01*
X154118650Y-87319097D01*
X154077371Y-87355298D01*
X153961477Y-87456935D01*
X153828478Y-87625644D01*
X153825789Y-87630755D01*
X153825787Y-87630758D01*
X153807395Y-87665716D01*
X153728450Y-87815765D01*
X153664745Y-88020931D01*
X153639494Y-88234271D01*
X153653545Y-88448640D01*
X153706426Y-88656859D01*
X153796366Y-88851954D01*
X153920353Y-89027392D01*
X154074236Y-89177298D01*
X154079032Y-89180503D01*
X154079035Y-89180505D01*
X154248055Y-89293440D01*
X154248060Y-89293443D01*
X154252860Y-89296650D01*
X154258169Y-89298931D01*
X154258171Y-89298932D01*
X154444932Y-89379172D01*
X154444936Y-89379173D01*
X154450242Y-89381453D01*
X154455874Y-89382727D01*
X154455876Y-89382728D01*
X154654137Y-89427590D01*
X154654142Y-89427591D01*
X154659774Y-89428865D01*
X154665545Y-89429092D01*
X154665547Y-89429092D01*
X154731614Y-89431688D01*
X154874438Y-89437299D01*
X154999168Y-89419214D01*
X155081321Y-89407303D01*
X155081325Y-89407302D01*
X155087043Y-89406473D01*
X155092515Y-89404615D01*
X155092517Y-89404615D01*
X155285007Y-89339273D01*
X155285009Y-89339272D01*
X155290471Y-89337418D01*
X155477909Y-89232448D01*
X155540364Y-89180505D01*
X155560493Y-89163763D01*
X155643078Y-89095078D01*
X155780448Y-88929909D01*
X155885418Y-88742471D01*
X155909370Y-88671913D01*
X155952615Y-88544517D01*
X155952615Y-88544515D01*
X155954473Y-88539043D01*
X155959606Y-88503645D01*
X155984766Y-88330112D01*
X155985299Y-88326438D01*
X155986413Y-88283912D01*
X156008192Y-88216339D01*
X156023275Y-88198117D01*
X167134938Y-77086453D01*
X167198159Y-77052233D01*
X167268486Y-77037477D01*
X167268489Y-77037476D01*
X167273713Y-77036380D01*
X167490290Y-76950850D01*
X167689359Y-76830051D01*
X167693855Y-76826150D01*
X167861197Y-76680939D01*
X167861199Y-76680937D01*
X167865230Y-76677439D01*
X167868613Y-76673313D01*
X167868617Y-76673309D01*
X167967776Y-76552374D01*
X168012872Y-76497376D01*
X168038845Y-76451748D01*
X168089927Y-76402442D01*
X168159558Y-76388580D01*
X168225629Y-76414563D01*
X168252867Y-76443713D01*
X168344804Y-76580272D01*
X168348483Y-76584129D01*
X168348485Y-76584131D01*
X168433223Y-76672959D01*
X168505532Y-76748758D01*
X168692350Y-76887754D01*
X168697102Y-76890170D01*
X168894244Y-76990402D01*
X168899916Y-76993286D01*
X169011106Y-77027811D01*
X169117193Y-77060753D01*
X169117199Y-77060754D01*
X169122296Y-77062337D01*
X169246660Y-77078820D01*
X169347848Y-77092232D01*
X169347852Y-77092232D01*
X169353132Y-77092932D01*
X169358462Y-77092732D01*
X169358463Y-77092732D01*
X169469477Y-77088564D01*
X169585822Y-77084197D01*
X169690005Y-77062337D01*
X169808486Y-77037477D01*
X169808489Y-77037476D01*
X169813713Y-77036380D01*
X170030290Y-76950850D01*
X170229359Y-76830051D01*
X170233855Y-76826150D01*
X170401197Y-76680939D01*
X170401199Y-76680937D01*
X170405230Y-76677439D01*
X170408613Y-76673313D01*
X170408617Y-76673309D01*
X170507776Y-76552374D01*
X170552872Y-76497376D01*
X170578845Y-76451748D01*
X170629927Y-76402442D01*
X170699558Y-76388580D01*
X170765629Y-76414563D01*
X170792867Y-76443713D01*
X170884804Y-76580272D01*
X170888483Y-76584129D01*
X170888485Y-76584131D01*
X170973223Y-76672959D01*
X171045532Y-76748758D01*
X171232350Y-76887754D01*
X171237102Y-76890170D01*
X171434244Y-76990402D01*
X171439916Y-76993286D01*
X171551106Y-77027811D01*
X171657193Y-77060753D01*
X171657199Y-77060754D01*
X171662296Y-77062337D01*
X171786660Y-77078820D01*
X171887848Y-77092232D01*
X171887852Y-77092232D01*
X171893132Y-77092932D01*
X171898462Y-77092732D01*
X171898463Y-77092732D01*
X172009477Y-77088564D01*
X172125822Y-77084197D01*
X172230005Y-77062337D01*
X172348486Y-77037477D01*
X172348489Y-77037476D01*
X172353713Y-77036380D01*
X172570290Y-76950850D01*
X172769359Y-76830051D01*
X172773855Y-76826150D01*
X172941197Y-76680939D01*
X172941199Y-76680937D01*
X172945230Y-76677439D01*
X172948613Y-76673313D01*
X172948617Y-76673309D01*
X173047776Y-76552374D01*
X173092872Y-76497376D01*
X173118845Y-76451748D01*
X173169927Y-76402442D01*
X173239558Y-76388580D01*
X173305629Y-76414563D01*
X173332867Y-76443713D01*
X173424804Y-76580272D01*
X173428483Y-76584129D01*
X173428485Y-76584131D01*
X173513223Y-76672959D01*
X173585532Y-76748758D01*
X173772350Y-76887754D01*
X173777102Y-76890170D01*
X173974244Y-76990402D01*
X173979916Y-76993286D01*
X174091106Y-77027811D01*
X174197193Y-77060753D01*
X174197199Y-77060754D01*
X174202296Y-77062337D01*
X174326660Y-77078820D01*
X174427848Y-77092232D01*
X174427852Y-77092232D01*
X174433132Y-77092932D01*
X174438462Y-77092732D01*
X174438463Y-77092732D01*
X174549477Y-77088564D01*
X174665822Y-77084197D01*
X174770005Y-77062337D01*
X174888486Y-77037477D01*
X174888489Y-77037476D01*
X174893713Y-77036380D01*
X175110290Y-76950850D01*
X175309359Y-76830051D01*
X175313855Y-76826150D01*
X175481197Y-76680939D01*
X175481199Y-76680937D01*
X175485230Y-76677439D01*
X175488613Y-76673313D01*
X175488617Y-76673309D01*
X175587776Y-76552374D01*
X175632872Y-76497376D01*
X175663696Y-76443227D01*
X175745422Y-76299654D01*
X175748065Y-76295011D01*
X175768239Y-76239435D01*
X175825695Y-76081146D01*
X175825696Y-76081142D01*
X175827515Y-76076131D01*
X175868950Y-75846993D01*
X175870100Y-75822606D01*
X175870100Y-75354132D01*
X175855374Y-75180580D01*
X175854035Y-75175420D01*
X175798217Y-74960363D01*
X175798216Y-74960359D01*
X175796875Y-74955194D01*
X175788164Y-74935855D01*
X175703433Y-74747760D01*
X175701238Y-74742887D01*
X175571196Y-74549728D01*
X175546598Y-74523942D01*
X175414152Y-74385104D01*
X175410468Y-74381242D01*
X175223650Y-74242246D01*
X175096574Y-74177637D01*
X175020842Y-74139133D01*
X175020841Y-74139133D01*
X175016084Y-74136714D01*
X174877299Y-74093620D01*
X174798807Y-74069247D01*
X174798801Y-74069246D01*
X174793704Y-74067663D01*
X174669340Y-74051180D01*
X174568152Y-74037768D01*
X174568148Y-74037768D01*
X174562868Y-74037068D01*
X174557538Y-74037268D01*
X174557537Y-74037268D01*
X174446523Y-74041436D01*
X174330178Y-74045803D01*
X174247474Y-74063156D01*
X174107514Y-74092523D01*
X174107511Y-74092524D01*
X174102287Y-74093620D01*
X173885710Y-74179150D01*
X173686641Y-74299949D01*
X173682611Y-74303446D01*
X173588075Y-74385480D01*
X173510770Y-74452561D01*
X173507387Y-74456687D01*
X173507383Y-74456691D01*
X173434262Y-74545869D01*
X173363128Y-74632624D01*
X173360490Y-74637259D01*
X173360487Y-74637263D01*
X173337155Y-74678252D01*
X173286073Y-74727558D01*
X173216442Y-74741420D01*
X173150371Y-74715437D01*
X173123133Y-74686287D01*
X173034176Y-74554155D01*
X173031196Y-74549728D01*
X173006598Y-74523942D01*
X172874152Y-74385104D01*
X172870468Y-74381242D01*
X172683650Y-74242246D01*
X172556574Y-74177637D01*
X172480842Y-74139133D01*
X172480841Y-74139133D01*
X172476084Y-74136714D01*
X172337299Y-74093620D01*
X172258807Y-74069247D01*
X172258801Y-74069246D01*
X172253704Y-74067663D01*
X172129340Y-74051180D01*
X172028152Y-74037768D01*
X172028148Y-74037768D01*
X172022868Y-74037068D01*
X172017538Y-74037268D01*
X172017537Y-74037268D01*
X171906523Y-74041436D01*
X171790178Y-74045803D01*
X171707474Y-74063156D01*
X171567514Y-74092523D01*
X171567511Y-74092524D01*
X171562287Y-74093620D01*
X171345710Y-74179150D01*
X171146641Y-74299949D01*
X171142611Y-74303446D01*
X171048075Y-74385480D01*
X170970770Y-74452561D01*
X170967387Y-74456687D01*
X170967383Y-74456691D01*
X170894262Y-74545869D01*
X170823128Y-74632624D01*
X170820490Y-74637259D01*
X170820487Y-74637263D01*
X170797155Y-74678252D01*
X170746073Y-74727558D01*
X170676442Y-74741420D01*
X170610371Y-74715437D01*
X170583133Y-74686287D01*
X170494176Y-74554155D01*
X170491196Y-74549728D01*
X170466598Y-74523942D01*
X170334152Y-74385104D01*
X170330468Y-74381242D01*
X170143650Y-74242246D01*
X170016574Y-74177637D01*
X169940842Y-74139133D01*
X169940841Y-74139133D01*
X169936084Y-74136714D01*
X169797299Y-74093620D01*
X169718807Y-74069247D01*
X169718801Y-74069246D01*
X169713704Y-74067663D01*
X169589340Y-74051180D01*
X169488152Y-74037768D01*
X169488148Y-74037768D01*
X169482868Y-74037068D01*
X169477538Y-74037268D01*
X169477537Y-74037268D01*
X169366523Y-74041436D01*
X169250178Y-74045803D01*
X169167474Y-74063156D01*
X169027514Y-74092523D01*
X169027511Y-74092524D01*
X169022287Y-74093620D01*
X168805710Y-74179150D01*
X168606641Y-74299949D01*
X168602611Y-74303446D01*
X168508075Y-74385480D01*
X168430770Y-74452561D01*
X168427387Y-74456687D01*
X168427383Y-74456691D01*
X168354262Y-74545869D01*
X168283128Y-74632624D01*
X168280490Y-74637259D01*
X168280487Y-74637263D01*
X168257155Y-74678252D01*
X168206073Y-74727558D01*
X168136442Y-74741420D01*
X168070371Y-74715437D01*
X168043133Y-74686287D01*
X167954176Y-74554155D01*
X167951196Y-74549728D01*
X167926598Y-74523942D01*
X167794152Y-74385104D01*
X167790468Y-74381242D01*
X167603650Y-74242246D01*
X167476574Y-74177637D01*
X167400842Y-74139133D01*
X167400841Y-74139133D01*
X167396084Y-74136714D01*
X167257299Y-74093620D01*
X167178807Y-74069247D01*
X167178801Y-74069246D01*
X167173704Y-74067663D01*
X167049340Y-74051180D01*
X166948152Y-74037768D01*
X166948148Y-74037768D01*
X166942868Y-74037068D01*
X166937538Y-74037268D01*
X166937537Y-74037268D01*
X166826523Y-74041436D01*
X166710178Y-74045803D01*
X166627474Y-74063156D01*
X166487514Y-74092523D01*
X166487511Y-74092524D01*
X166482287Y-74093620D01*
X166265710Y-74179150D01*
X166066641Y-74299949D01*
X166062611Y-74303446D01*
X165968075Y-74385480D01*
X165890770Y-74452561D01*
X165887387Y-74456687D01*
X165887383Y-74456691D01*
X165814262Y-74545869D01*
X165743128Y-74632624D01*
X165740490Y-74637259D01*
X165740487Y-74637263D01*
X165717155Y-74678252D01*
X165666073Y-74727558D01*
X165596442Y-74741420D01*
X165530371Y-74715437D01*
X165503133Y-74686287D01*
X165414176Y-74554155D01*
X165411196Y-74549728D01*
X165386598Y-74523942D01*
X165254152Y-74385104D01*
X165250468Y-74381242D01*
X165063650Y-74242246D01*
X164936574Y-74177637D01*
X164860842Y-74139133D01*
X164860841Y-74139133D01*
X164856084Y-74136714D01*
X164717299Y-74093620D01*
X164638807Y-74069247D01*
X164638801Y-74069246D01*
X164633704Y-74067663D01*
X164509340Y-74051180D01*
X164408152Y-74037768D01*
X164408148Y-74037768D01*
X164402868Y-74037068D01*
X164397538Y-74037268D01*
X164397537Y-74037268D01*
X164286523Y-74041436D01*
X164170178Y-74045803D01*
X164087474Y-74063156D01*
X163947514Y-74092523D01*
X163947511Y-74092524D01*
X163942287Y-74093620D01*
X163725710Y-74179150D01*
X163526641Y-74299949D01*
X163522611Y-74303446D01*
X163428075Y-74385480D01*
X163350770Y-74452561D01*
X163347387Y-74456687D01*
X163347383Y-74456691D01*
X163274262Y-74545869D01*
X163203128Y-74632624D01*
X163200490Y-74637259D01*
X163200487Y-74637263D01*
X163177155Y-74678252D01*
X163126073Y-74727558D01*
X163056442Y-74741420D01*
X162990371Y-74715437D01*
X162963133Y-74686287D01*
X162874176Y-74554155D01*
X162871196Y-74549728D01*
X162846598Y-74523942D01*
X162714152Y-74385104D01*
X162710468Y-74381242D01*
X162523650Y-74242246D01*
X162396574Y-74177637D01*
X162320842Y-74139133D01*
X162320841Y-74139133D01*
X162316084Y-74136714D01*
X162177299Y-74093620D01*
X162098807Y-74069247D01*
X162098801Y-74069246D01*
X162093704Y-74067663D01*
X161969340Y-74051180D01*
X161868152Y-74037768D01*
X161868148Y-74037768D01*
X161862868Y-74037068D01*
X161857538Y-74037268D01*
X161857537Y-74037268D01*
X161746523Y-74041436D01*
X161630178Y-74045803D01*
X161547474Y-74063156D01*
X161407514Y-74092523D01*
X161407511Y-74092524D01*
X161402287Y-74093620D01*
X161185710Y-74179150D01*
X160986641Y-74299949D01*
X160982611Y-74303446D01*
X160888075Y-74385480D01*
X160810770Y-74452561D01*
X160807387Y-74456687D01*
X160807383Y-74456691D01*
X160734262Y-74545869D01*
X160663128Y-74632624D01*
X160660490Y-74637259D01*
X160660487Y-74637263D01*
X160637155Y-74678252D01*
X160586073Y-74727558D01*
X160516442Y-74741420D01*
X160450371Y-74715437D01*
X160423133Y-74686287D01*
X160334176Y-74554155D01*
X160331196Y-74549728D01*
X160306598Y-74523942D01*
X160174152Y-74385104D01*
X160170468Y-74381242D01*
X159983650Y-74242246D01*
X159856574Y-74177637D01*
X159780842Y-74139133D01*
X159780841Y-74139133D01*
X159776084Y-74136714D01*
X159637299Y-74093620D01*
X159558807Y-74069247D01*
X159558801Y-74069246D01*
X159553704Y-74067663D01*
X159429340Y-74051180D01*
X159328152Y-74037768D01*
X159328148Y-74037768D01*
X159322868Y-74037068D01*
X159317538Y-74037268D01*
X159317537Y-74037268D01*
X159206523Y-74041436D01*
X159090178Y-74045803D01*
X159007474Y-74063156D01*
X158867514Y-74092523D01*
X158867511Y-74092524D01*
X158862287Y-74093620D01*
X158645710Y-74179150D01*
X158446641Y-74299949D01*
X158442611Y-74303446D01*
X158348075Y-74385480D01*
X158270770Y-74452561D01*
X158267387Y-74456687D01*
X158267383Y-74456691D01*
X158194262Y-74545869D01*
X158123128Y-74632624D01*
X158120490Y-74637259D01*
X158120487Y-74637263D01*
X158097155Y-74678252D01*
X158046073Y-74727558D01*
X157976442Y-74741420D01*
X157910371Y-74715437D01*
X157883133Y-74686287D01*
X157794176Y-74554155D01*
X157791196Y-74549728D01*
X157766598Y-74523942D01*
X157634152Y-74385104D01*
X157630468Y-74381242D01*
X157443650Y-74242246D01*
X157316574Y-74177637D01*
X157240842Y-74139133D01*
X157240841Y-74139133D01*
X157236084Y-74136714D01*
X157097299Y-74093620D01*
X157018807Y-74069247D01*
X157018801Y-74069246D01*
X157013704Y-74067663D01*
X156889340Y-74051180D01*
X156788152Y-74037768D01*
X156788148Y-74037768D01*
X156782868Y-74037068D01*
X156777538Y-74037268D01*
X156777537Y-74037268D01*
X156666523Y-74041436D01*
X156550178Y-74045803D01*
X156467474Y-74063156D01*
X156327514Y-74092523D01*
X156327511Y-74092524D01*
X156322287Y-74093620D01*
X156105710Y-74179150D01*
X155906641Y-74299949D01*
X155902611Y-74303446D01*
X155808075Y-74385480D01*
X155730770Y-74452561D01*
X155727387Y-74456687D01*
X155727383Y-74456691D01*
X155654262Y-74545869D01*
X155583128Y-74632624D01*
X155580490Y-74637259D01*
X155580487Y-74637263D01*
X155484597Y-74805719D01*
X155467935Y-74834989D01*
X155466114Y-74840005D01*
X155466112Y-74840010D01*
X155424302Y-74955194D01*
X155388485Y-75053869D01*
X155347050Y-75283007D01*
X155345900Y-75307394D01*
X155345900Y-75775868D01*
X155360626Y-75949420D01*
X155361964Y-75954577D01*
X155361965Y-75954580D01*
X155394816Y-76081146D01*
X155419125Y-76174806D01*
X155421317Y-76179672D01*
X155421318Y-76179675D01*
X155429594Y-76198046D01*
X155514762Y-76387113D01*
X155644804Y-76580272D01*
X155648483Y-76584129D01*
X155648485Y-76584131D01*
X155733223Y-76672959D01*
X155805532Y-76748758D01*
X155992350Y-76887754D01*
X155997102Y-76890170D01*
X156194244Y-76990402D01*
X156199916Y-76993286D01*
X156311106Y-77027811D01*
X156417193Y-77060753D01*
X156417199Y-77060754D01*
X156422296Y-77062337D01*
X156546660Y-77078820D01*
X156647848Y-77092232D01*
X156647852Y-77092232D01*
X156653132Y-77092932D01*
X156658462Y-77092732D01*
X156658463Y-77092732D01*
X156769477Y-77088564D01*
X156885822Y-77084197D01*
X156990005Y-77062337D01*
X157108486Y-77037477D01*
X157108489Y-77037476D01*
X157113713Y-77036380D01*
X157330290Y-76950850D01*
X157529359Y-76830051D01*
X157533855Y-76826150D01*
X157701197Y-76680939D01*
X157701199Y-76680937D01*
X157705230Y-76677439D01*
X157708613Y-76673313D01*
X157708617Y-76673309D01*
X157807776Y-76552374D01*
X157852872Y-76497376D01*
X157878845Y-76451748D01*
X157929927Y-76402442D01*
X157999558Y-76388580D01*
X158065629Y-76414563D01*
X158092867Y-76443713D01*
X158184804Y-76580272D01*
X158188483Y-76584129D01*
X158188485Y-76584131D01*
X158273223Y-76672959D01*
X158345532Y-76748758D01*
X158532350Y-76887754D01*
X158537102Y-76890170D01*
X158734244Y-76990402D01*
X158739916Y-76993286D01*
X158870830Y-77033936D01*
X158911795Y-77046656D01*
X158970921Y-77085959D01*
X158999411Y-77150988D01*
X158988221Y-77221097D01*
X158963526Y-77256083D01*
X154755215Y-81464393D01*
X150564842Y-85654766D01*
X150563905Y-85655694D01*
X150499493Y-85718771D01*
X150476002Y-85755221D01*
X150468583Y-85765546D01*
X150441524Y-85799443D01*
X150438459Y-85805784D01*
X150438458Y-85805785D01*
X150426928Y-85829637D01*
X150419399Y-85843054D01*
X150401235Y-85871238D01*
X150398827Y-85877855D01*
X150398824Y-85877860D01*
X150386408Y-85911973D01*
X150381447Y-85923716D01*
X150365646Y-85956403D01*
X150365644Y-85956408D01*
X150362579Y-85962749D01*
X150360996Y-85969607D01*
X150360995Y-85969609D01*
X150355035Y-85995426D01*
X150350668Y-86010169D01*
X150339197Y-86041685D01*
X150338314Y-86048675D01*
X150338312Y-86048683D01*
X150333762Y-86084701D01*
X150331526Y-86097253D01*
X150323653Y-86131356D01*
X150321776Y-86139485D01*
X150321751Y-86146531D01*
X150321751Y-86146534D01*
X150321634Y-86180056D01*
X150321605Y-86180938D01*
X150321500Y-86181769D01*
X150321500Y-86218302D01*
X150321499Y-86218741D01*
X150321167Y-86314003D01*
X150321143Y-86320870D01*
X150321411Y-86322070D01*
X150321500Y-86323707D01*
X150321500Y-92703919D01*
X150301498Y-92772040D01*
X150284595Y-92793014D01*
X144860762Y-98216846D01*
X144798450Y-98250872D01*
X144727635Y-98245807D01*
X144670799Y-98203260D01*
X144650398Y-98161953D01*
X144644066Y-98139500D01*
X144605938Y-98004309D01*
X144601825Y-97995967D01*
X144513475Y-97816814D01*
X144510921Y-97811635D01*
X144436347Y-97711768D01*
X144385837Y-97644126D01*
X144385836Y-97644125D01*
X144382384Y-97639502D01*
X144354884Y-97614081D01*
X144228870Y-97497595D01*
X144228867Y-97497593D01*
X144224630Y-97493676D01*
X144042943Y-97379040D01*
X143843408Y-97299434D01*
X143837748Y-97298308D01*
X143837744Y-97298307D01*
X143638374Y-97258650D01*
X143638371Y-97258650D01*
X143632707Y-97257523D01*
X143626932Y-97257447D01*
X143626928Y-97257447D01*
X143519255Y-97256038D01*
X143417896Y-97254711D01*
X143412199Y-97255690D01*
X143412198Y-97255690D01*
X143401973Y-97257447D01*
X143305926Y-97273951D01*
X143235403Y-97265774D01*
X143180495Y-97220767D01*
X143158589Y-97149771D01*
X143158589Y-89811993D01*
X143178591Y-89743872D01*
X143195494Y-89722898D01*
X143445537Y-89472855D01*
X143507849Y-89438829D01*
X143539576Y-89436047D01*
X143571438Y-89437299D01*
X143679802Y-89421587D01*
X143778321Y-89407303D01*
X143778325Y-89407302D01*
X143784043Y-89406473D01*
X143789515Y-89404615D01*
X143789517Y-89404615D01*
X143982007Y-89339273D01*
X143982009Y-89339272D01*
X143987471Y-89337418D01*
X144174909Y-89232448D01*
X144237364Y-89180505D01*
X144257493Y-89163763D01*
X144340078Y-89095078D01*
X144477448Y-88929909D01*
X144582418Y-88742471D01*
X144606370Y-88671913D01*
X144649615Y-88544517D01*
X144649615Y-88544515D01*
X144651473Y-88539043D01*
X144656606Y-88503645D01*
X144681766Y-88330112D01*
X144682299Y-88326438D01*
X144683908Y-88265000D01*
X144664251Y-88051072D01*
X144657369Y-88026668D01*
X144639610Y-87963701D01*
X144640370Y-87892709D01*
X144679391Y-87833397D01*
X144744284Y-87804598D01*
X144760879Y-87803500D01*
X147186918Y-87803500D01*
X147255039Y-87823502D01*
X147276013Y-87840405D01*
X147637004Y-88201396D01*
X147671030Y-88263708D01*
X147673638Y-88282246D01*
X147684545Y-88448640D01*
X147737426Y-88656859D01*
X147827366Y-88851954D01*
X147951353Y-89027392D01*
X148105236Y-89177298D01*
X148110032Y-89180503D01*
X148110035Y-89180505D01*
X148279055Y-89293440D01*
X148279060Y-89293443D01*
X148283860Y-89296650D01*
X148289169Y-89298931D01*
X148289171Y-89298932D01*
X148475932Y-89379172D01*
X148475936Y-89379173D01*
X148481242Y-89381453D01*
X148486874Y-89382727D01*
X148486876Y-89382728D01*
X148685137Y-89427590D01*
X148685142Y-89427591D01*
X148690774Y-89428865D01*
X148696545Y-89429092D01*
X148696547Y-89429092D01*
X148762614Y-89431688D01*
X148905438Y-89437299D01*
X149030168Y-89419214D01*
X149112321Y-89407303D01*
X149112325Y-89407302D01*
X149118043Y-89406473D01*
X149123515Y-89404615D01*
X149123517Y-89404615D01*
X149316007Y-89339273D01*
X149316009Y-89339272D01*
X149321471Y-89337418D01*
X149508909Y-89232448D01*
X149571364Y-89180505D01*
X149591493Y-89163763D01*
X149674078Y-89095078D01*
X149811448Y-88929909D01*
X149916418Y-88742471D01*
X149940370Y-88671913D01*
X149983615Y-88544517D01*
X149983615Y-88544515D01*
X149985473Y-88539043D01*
X149990606Y-88503645D01*
X150015766Y-88330112D01*
X150016299Y-88326438D01*
X150017908Y-88265000D01*
X149998251Y-88051072D01*
X149991369Y-88026668D01*
X149953005Y-87890643D01*
X149939938Y-87844309D01*
X149929678Y-87823502D01*
X149847475Y-87656814D01*
X149844921Y-87651635D01*
X149716384Y-87479502D01*
X149687853Y-87453128D01*
X149562870Y-87337595D01*
X149562867Y-87337593D01*
X149558630Y-87333676D01*
X149376943Y-87219040D01*
X149177408Y-87139434D01*
X149171748Y-87138308D01*
X149171744Y-87138307D01*
X148972374Y-87098650D01*
X148972371Y-87098650D01*
X148966707Y-87097523D01*
X148960932Y-87097447D01*
X148960928Y-87097447D01*
X148922049Y-87096938D01*
X148869189Y-87096246D01*
X148801338Y-87075356D01*
X148781744Y-87059353D01*
X148152187Y-86429795D01*
X148151260Y-86428858D01*
X148093157Y-86369525D01*
X148093156Y-86369524D01*
X148088229Y-86364493D01*
X148051779Y-86341002D01*
X148041454Y-86333583D01*
X148007557Y-86306524D01*
X147977362Y-86291927D01*
X147963945Y-86284398D01*
X147935762Y-86266235D01*
X147929145Y-86263827D01*
X147929140Y-86263824D01*
X147895027Y-86251408D01*
X147883284Y-86246447D01*
X147850597Y-86230646D01*
X147850592Y-86230644D01*
X147844251Y-86227579D01*
X147837393Y-86225996D01*
X147837391Y-86225995D01*
X147819108Y-86221774D01*
X147811572Y-86220035D01*
X147796831Y-86215668D01*
X147765315Y-86204197D01*
X147758325Y-86203314D01*
X147758317Y-86203312D01*
X147722299Y-86198762D01*
X147709747Y-86196526D01*
X147674386Y-86188362D01*
X147674383Y-86188362D01*
X147667515Y-86186776D01*
X147660469Y-86186751D01*
X147660466Y-86186751D01*
X147626944Y-86186634D01*
X147626062Y-86186605D01*
X147625231Y-86186500D01*
X147588581Y-86186500D01*
X147588141Y-86186499D01*
X147489657Y-86186155D01*
X147489652Y-86186155D01*
X147486130Y-86186143D01*
X147484930Y-86186411D01*
X147483293Y-86186500D01*
X143148802Y-86186500D01*
X143147483Y-86186493D01*
X143057416Y-86185550D01*
X143050538Y-86187037D01*
X143050528Y-86187038D01*
X143015050Y-86194709D01*
X143002475Y-86196769D01*
X142959382Y-86201603D01*
X142927711Y-86212632D01*
X142912902Y-86216795D01*
X142887008Y-86222393D01*
X142887005Y-86222394D01*
X142880127Y-86223881D01*
X142840824Y-86242208D01*
X142829048Y-86246990D01*
X142788085Y-86261255D01*
X142782110Y-86264989D01*
X142782107Y-86264990D01*
X142759642Y-86279027D01*
X142746125Y-86286366D01*
X142722118Y-86297561D01*
X142722114Y-86297563D01*
X142715735Y-86300538D01*
X142689523Y-86320870D01*
X142681481Y-86327108D01*
X142671032Y-86334397D01*
X142634261Y-86357374D01*
X142629262Y-86362339D01*
X142629260Y-86362340D01*
X142605452Y-86385983D01*
X142604829Y-86386566D01*
X142604167Y-86387079D01*
X142578320Y-86412926D01*
X142512993Y-86477799D01*
X142505555Y-86485185D01*
X142504896Y-86486223D01*
X142503790Y-86487456D01*
X132134842Y-96856403D01*
X132133905Y-96857331D01*
X132069493Y-96920408D01*
X132046002Y-96956858D01*
X132038583Y-96967183D01*
X132011524Y-97001080D01*
X132008459Y-97007421D01*
X132008458Y-97007422D01*
X131996928Y-97031274D01*
X131989399Y-97044691D01*
X131971235Y-97072875D01*
X131968827Y-97079492D01*
X131968824Y-97079497D01*
X131956408Y-97113610D01*
X131951447Y-97125353D01*
X131935646Y-97158040D01*
X131935644Y-97158045D01*
X131932579Y-97164386D01*
X131930996Y-97171244D01*
X131930995Y-97171246D01*
X131925035Y-97197063D01*
X131920668Y-97211806D01*
X131909197Y-97243322D01*
X131908314Y-97250312D01*
X131908312Y-97250320D01*
X131903762Y-97286338D01*
X131901526Y-97298890D01*
X131894600Y-97328892D01*
X131891776Y-97341122D01*
X131891751Y-97348168D01*
X131891751Y-97348171D01*
X131891634Y-97381693D01*
X131891605Y-97382575D01*
X131891500Y-97383406D01*
X131891500Y-97420056D01*
X131891499Y-97420496D01*
X131891244Y-97493676D01*
X131891143Y-97522507D01*
X131891411Y-97523707D01*
X131891500Y-97525344D01*
X131891500Y-98013500D01*
X131871498Y-98081621D01*
X131817842Y-98128114D01*
X131765500Y-98139500D01*
X115710850Y-98139500D01*
X115642729Y-98119498D01*
X115617657Y-98098300D01*
X115486798Y-97954488D01*
X115455746Y-97890642D01*
X115464141Y-97820143D01*
X115509317Y-97765375D01*
X115535761Y-97751706D01*
X115642297Y-97711767D01*
X115650705Y-97708615D01*
X115767261Y-97621261D01*
X115854615Y-97504705D01*
X115905745Y-97368316D01*
X115910028Y-97328892D01*
X115937270Y-97263330D01*
X115995634Y-97222904D01*
X116035291Y-97216500D01*
X118847786Y-97216500D01*
X118849106Y-97216507D01*
X118939221Y-97217451D01*
X118981597Y-97208289D01*
X118994163Y-97206231D01*
X119037255Y-97201397D01*
X119043906Y-97199081D01*
X119043910Y-97199080D01*
X119068930Y-97190367D01*
X119083742Y-97186204D01*
X119109619Y-97180609D01*
X119116510Y-97179119D01*
X119155813Y-97160792D01*
X119167589Y-97156010D01*
X119208552Y-97141745D01*
X119214527Y-97138011D01*
X119214530Y-97138010D01*
X119236995Y-97123973D01*
X119250512Y-97116634D01*
X119274514Y-97105441D01*
X119274515Y-97105440D01*
X119280902Y-97102462D01*
X119315153Y-97075894D01*
X119325612Y-97068598D01*
X119356404Y-97049358D01*
X119356407Y-97049356D01*
X119362376Y-97045626D01*
X119391179Y-97017024D01*
X119391804Y-97016439D01*
X119392470Y-97015922D01*
X119418460Y-96989932D01*
X119491082Y-96917815D01*
X119491740Y-96916778D01*
X119492843Y-96915549D01*
X124965912Y-91442480D01*
X125003759Y-91416468D01*
X125107246Y-91370393D01*
X125158494Y-91359500D01*
X133340786Y-91359500D01*
X133342106Y-91359507D01*
X133432221Y-91360451D01*
X133474597Y-91351289D01*
X133487163Y-91349231D01*
X133530255Y-91344397D01*
X133536906Y-91342081D01*
X133536910Y-91342080D01*
X133561930Y-91333367D01*
X133576742Y-91329204D01*
X133602619Y-91323609D01*
X133609510Y-91322119D01*
X133648813Y-91303792D01*
X133660589Y-91299010D01*
X133701552Y-91284745D01*
X133707527Y-91281011D01*
X133707530Y-91281010D01*
X133729995Y-91266973D01*
X133743512Y-91259634D01*
X133767514Y-91248441D01*
X133767515Y-91248440D01*
X133773902Y-91245462D01*
X133808153Y-91218894D01*
X133818612Y-91211598D01*
X133849404Y-91192358D01*
X133849407Y-91192356D01*
X133855376Y-91188626D01*
X133884179Y-91160024D01*
X133884804Y-91159439D01*
X133885470Y-91158922D01*
X133911460Y-91132932D01*
X133984082Y-91060815D01*
X133984740Y-91059778D01*
X133985843Y-91058549D01*
X142745912Y-82298480D01*
X142783758Y-82272468D01*
X142944722Y-82200803D01*
X142944724Y-82200802D01*
X142950752Y-82198118D01*
X143105253Y-82085866D01*
X143233040Y-81943944D01*
X143328527Y-81778556D01*
X143387542Y-81596928D01*
X143392107Y-81553500D01*
X143406814Y-81413565D01*
X143407504Y-81407000D01*
X143406814Y-81400435D01*
X143388232Y-81223635D01*
X143388232Y-81223633D01*
X143387542Y-81217072D01*
X143328527Y-81035444D01*
X143233040Y-80870056D01*
X143207064Y-80841206D01*
X143109675Y-80733045D01*
X143109674Y-80733044D01*
X143105253Y-80728134D01*
X142990829Y-80645000D01*
X142956094Y-80619763D01*
X142956093Y-80619762D01*
X142950752Y-80615882D01*
X142944724Y-80613198D01*
X142944722Y-80613197D01*
X142782319Y-80540891D01*
X142782318Y-80540891D01*
X142776288Y-80538206D01*
X142682887Y-80518353D01*
X142595944Y-80499872D01*
X142595939Y-80499872D01*
X142589487Y-80498500D01*
X142398513Y-80498500D01*
X142392061Y-80499872D01*
X142392056Y-80499872D01*
X142305113Y-80518353D01*
X142211712Y-80538206D01*
X142205682Y-80540891D01*
X142205681Y-80540891D01*
X142043278Y-80613197D01*
X142043276Y-80613198D01*
X142037248Y-80615882D01*
X142031907Y-80619762D01*
X142031906Y-80619763D01*
X141997171Y-80645000D01*
X141882747Y-80728134D01*
X141878326Y-80733044D01*
X141878325Y-80733045D01*
X141780937Y-80841206D01*
X141754960Y-80870056D01*
X141659473Y-81035444D01*
X141657433Y-81041724D01*
X141657432Y-81041725D01*
X141638646Y-81099542D01*
X141607908Y-81149700D01*
X133052013Y-89705595D01*
X132989701Y-89739621D01*
X132962918Y-89742500D01*
X125158494Y-89742500D01*
X125107245Y-89731607D01*
X125002319Y-89684891D01*
X125002318Y-89684891D01*
X124996288Y-89682206D01*
X124902887Y-89662353D01*
X124815944Y-89643872D01*
X124815939Y-89643872D01*
X124809487Y-89642500D01*
X124618513Y-89642500D01*
X124612061Y-89643872D01*
X124612056Y-89643872D01*
X124525113Y-89662353D01*
X124431712Y-89682206D01*
X124425682Y-89684891D01*
X124425681Y-89684891D01*
X124263278Y-89757197D01*
X124263276Y-89757198D01*
X124257248Y-89759882D01*
X124102747Y-89872134D01*
X124098326Y-89877044D01*
X124098325Y-89877045D01*
X124043174Y-89938297D01*
X123974960Y-90014056D01*
X123943445Y-90068642D01*
X123884926Y-90170000D01*
X123879473Y-90179444D01*
X123877433Y-90185724D01*
X123877432Y-90185725D01*
X123858646Y-90243542D01*
X123827908Y-90293700D01*
X118559013Y-95562595D01*
X118496701Y-95596621D01*
X118469918Y-95599500D01*
X116035291Y-95599500D01*
X115967170Y-95579498D01*
X115920677Y-95525842D01*
X115910028Y-95487108D01*
X115907908Y-95467598D01*
X115905745Y-95447684D01*
X115854615Y-95311295D01*
X115767261Y-95194739D01*
X115650705Y-95107385D01*
X115514316Y-95056255D01*
X115487086Y-95053297D01*
X115474892Y-95051972D01*
X115409330Y-95024730D01*
X115368904Y-94966366D01*
X115362500Y-94926709D01*
X115362500Y-87004260D01*
X115362507Y-87002941D01*
X115363377Y-86919826D01*
X115363451Y-86912779D01*
X115354289Y-86870403D01*
X115352230Y-86857832D01*
X115348182Y-86821744D01*
X115347397Y-86814745D01*
X115336367Y-86783070D01*
X115332204Y-86768258D01*
X115326609Y-86742381D01*
X115325119Y-86735490D01*
X115306793Y-86696189D01*
X115302008Y-86684406D01*
X115287745Y-86643448D01*
X115269979Y-86615016D01*
X115262640Y-86601499D01*
X115251440Y-86577481D01*
X115251438Y-86577477D01*
X115248463Y-86571098D01*
X115244146Y-86565532D01*
X115221891Y-86536840D01*
X115214597Y-86526385D01*
X115195359Y-86495598D01*
X115191626Y-86489624D01*
X115184746Y-86482696D01*
X115163024Y-86460821D01*
X115162439Y-86460196D01*
X115161922Y-86459530D01*
X115135932Y-86433540D01*
X115063815Y-86360918D01*
X115062778Y-86360260D01*
X115061549Y-86359157D01*
X114427392Y-85725000D01*
X115672496Y-85725000D01*
X115673186Y-85731565D01*
X115690863Y-85899749D01*
X115692458Y-85914928D01*
X115751473Y-86096556D01*
X115846960Y-86261944D01*
X115851378Y-86266851D01*
X115851379Y-86266852D01*
X115961345Y-86388982D01*
X115974747Y-86403866D01*
X116069904Y-86473002D01*
X116103773Y-86497609D01*
X116129248Y-86516118D01*
X116135276Y-86518802D01*
X116135278Y-86518803D01*
X116267072Y-86577481D01*
X116303712Y-86593794D01*
X116372790Y-86608477D01*
X116484056Y-86632128D01*
X116484061Y-86632128D01*
X116490513Y-86633500D01*
X116681487Y-86633500D01*
X116687939Y-86632128D01*
X116687944Y-86632128D01*
X116799210Y-86608477D01*
X116868288Y-86593794D01*
X116919265Y-86571098D01*
X116979245Y-86544393D01*
X117030494Y-86533500D01*
X134102786Y-86533500D01*
X134104106Y-86533507D01*
X134194221Y-86534451D01*
X134236597Y-86525289D01*
X134249163Y-86523231D01*
X134292255Y-86518397D01*
X134298906Y-86516081D01*
X134298910Y-86516080D01*
X134323930Y-86507367D01*
X134338742Y-86503204D01*
X134364619Y-86497609D01*
X134371510Y-86496119D01*
X134410813Y-86477792D01*
X134422589Y-86473010D01*
X134463552Y-86458745D01*
X134469527Y-86455011D01*
X134469530Y-86455010D01*
X134491995Y-86440973D01*
X134505512Y-86433634D01*
X134529514Y-86422441D01*
X134529515Y-86422440D01*
X134535902Y-86419462D01*
X134570153Y-86392894D01*
X134580612Y-86385598D01*
X134611399Y-86366361D01*
X134611401Y-86366360D01*
X134617376Y-86362626D01*
X134622376Y-86357661D01*
X134627897Y-86353285D01*
X134628972Y-86354642D01*
X134655058Y-86336780D01*
X134816719Y-86264805D01*
X134816726Y-86264801D01*
X134822752Y-86262118D01*
X134977253Y-86149866D01*
X134992787Y-86132614D01*
X135100621Y-86012852D01*
X135100622Y-86012851D01*
X135105040Y-86007944D01*
X135180144Y-85877860D01*
X135197223Y-85848279D01*
X135197224Y-85848278D01*
X135200527Y-85842556D01*
X135259542Y-85660928D01*
X135279504Y-85471000D01*
X135259542Y-85281072D01*
X135200527Y-85099444D01*
X135105040Y-84934056D01*
X135079425Y-84905607D01*
X134981675Y-84797045D01*
X134981674Y-84797044D01*
X134977253Y-84792134D01*
X134822752Y-84679882D01*
X134816724Y-84677198D01*
X134816722Y-84677197D01*
X134654319Y-84604891D01*
X134654318Y-84604891D01*
X134648288Y-84602206D01*
X134554888Y-84582353D01*
X134467944Y-84563872D01*
X134467939Y-84563872D01*
X134461487Y-84562500D01*
X134270513Y-84562500D01*
X134264061Y-84563872D01*
X134264056Y-84563872D01*
X134177112Y-84582353D01*
X134083712Y-84602206D01*
X134077682Y-84604891D01*
X134077681Y-84604891D01*
X133915278Y-84677197D01*
X133915276Y-84677198D01*
X133909248Y-84679882D01*
X133754747Y-84792134D01*
X133750334Y-84797036D01*
X133750332Y-84797037D01*
X133680304Y-84874811D01*
X133619858Y-84912050D01*
X133586668Y-84916500D01*
X117030494Y-84916500D01*
X116979245Y-84905607D01*
X116874319Y-84858891D01*
X116874318Y-84858891D01*
X116868288Y-84856206D01*
X116774888Y-84836353D01*
X116687944Y-84817872D01*
X116687939Y-84817872D01*
X116681487Y-84816500D01*
X116490513Y-84816500D01*
X116484061Y-84817872D01*
X116484056Y-84817872D01*
X116397112Y-84836353D01*
X116303712Y-84856206D01*
X116297682Y-84858891D01*
X116297681Y-84858891D01*
X116135278Y-84931197D01*
X116135276Y-84931198D01*
X116129248Y-84933882D01*
X115974747Y-85046134D01*
X115970326Y-85051044D01*
X115970325Y-85051045D01*
X115926747Y-85099444D01*
X115846960Y-85188056D01*
X115751473Y-85353444D01*
X115692458Y-85535072D01*
X115672496Y-85725000D01*
X114427392Y-85725000D01*
X113662092Y-84959700D01*
X113631354Y-84909542D01*
X113612568Y-84851725D01*
X113612567Y-84851724D01*
X113610527Y-84845444D01*
X113515040Y-84680056D01*
X113387253Y-84538134D01*
X113232752Y-84425882D01*
X113226724Y-84423198D01*
X113226722Y-84423197D01*
X113064319Y-84350891D01*
X113064318Y-84350891D01*
X113058288Y-84348206D01*
X112964888Y-84328353D01*
X112877944Y-84309872D01*
X112877939Y-84309872D01*
X112871487Y-84308500D01*
X112680513Y-84308500D01*
X112674061Y-84309872D01*
X112674056Y-84309872D01*
X112587112Y-84328353D01*
X112493712Y-84348206D01*
X112487682Y-84350891D01*
X112487681Y-84350891D01*
X112325278Y-84423197D01*
X112325276Y-84423198D01*
X112319248Y-84425882D01*
X112164747Y-84538134D01*
X112036960Y-84680056D01*
X111941473Y-84845444D01*
X111882458Y-85027072D01*
X111881768Y-85033633D01*
X111881768Y-85033635D01*
X111879938Y-85051045D01*
X111862496Y-85217000D01*
X111506500Y-85217000D01*
X111506500Y-80645000D01*
X124054496Y-80645000D01*
X124055186Y-80651565D01*
X124062826Y-80724251D01*
X124074458Y-80834928D01*
X124133473Y-81016556D01*
X124228960Y-81181944D01*
X124233378Y-81186851D01*
X124233379Y-81186852D01*
X124260589Y-81217072D01*
X124356747Y-81323866D01*
X124455843Y-81395864D01*
X124480207Y-81413565D01*
X124511248Y-81436118D01*
X124517276Y-81438802D01*
X124517278Y-81438803D01*
X124679681Y-81511109D01*
X124685712Y-81513794D01*
X124779112Y-81533647D01*
X124866056Y-81552128D01*
X124866061Y-81552128D01*
X124872513Y-81553500D01*
X125063487Y-81553500D01*
X125069939Y-81552128D01*
X125069944Y-81552128D01*
X125156888Y-81533647D01*
X125250288Y-81513794D01*
X125361245Y-81464393D01*
X125412494Y-81453500D01*
X131635506Y-81453500D01*
X131686755Y-81464393D01*
X131797712Y-81513794D01*
X131891112Y-81533647D01*
X131978056Y-81552128D01*
X131978061Y-81552128D01*
X131984513Y-81553500D01*
X132175487Y-81553500D01*
X132181939Y-81552128D01*
X132181944Y-81552128D01*
X132268888Y-81533647D01*
X132362288Y-81513794D01*
X132368319Y-81511109D01*
X132530722Y-81438803D01*
X132530724Y-81438802D01*
X132536752Y-81436118D01*
X132567794Y-81413565D01*
X132592157Y-81395864D01*
X132691253Y-81323866D01*
X132787411Y-81217072D01*
X132814621Y-81186852D01*
X132814622Y-81186851D01*
X132819040Y-81181944D01*
X132914527Y-81016556D01*
X132973542Y-80834928D01*
X132985175Y-80724251D01*
X132992814Y-80651565D01*
X132993504Y-80645000D01*
X132982280Y-80538206D01*
X132974232Y-80461635D01*
X132974232Y-80461633D01*
X132973542Y-80455072D01*
X132914527Y-80273444D01*
X132819040Y-80108056D01*
X132691253Y-79966134D01*
X132536752Y-79853882D01*
X132530724Y-79851198D01*
X132530722Y-79851197D01*
X132368319Y-79778891D01*
X132368318Y-79778891D01*
X132362288Y-79776206D01*
X132268888Y-79756353D01*
X132181944Y-79737872D01*
X132181939Y-79737872D01*
X132175487Y-79736500D01*
X131984513Y-79736500D01*
X131978061Y-79737872D01*
X131978056Y-79737872D01*
X131891112Y-79756353D01*
X131797712Y-79776206D01*
X131791682Y-79778891D01*
X131791681Y-79778891D01*
X131686755Y-79825607D01*
X131635506Y-79836500D01*
X125412494Y-79836500D01*
X125361245Y-79825607D01*
X125256319Y-79778891D01*
X125256318Y-79778891D01*
X125250288Y-79776206D01*
X125156888Y-79756353D01*
X125069944Y-79737872D01*
X125069939Y-79737872D01*
X125063487Y-79736500D01*
X124872513Y-79736500D01*
X124866061Y-79737872D01*
X124866056Y-79737872D01*
X124779112Y-79756353D01*
X124685712Y-79776206D01*
X124679682Y-79778891D01*
X124679681Y-79778891D01*
X124517278Y-79851197D01*
X124517276Y-79851198D01*
X124511248Y-79853882D01*
X124356747Y-79966134D01*
X124228960Y-80108056D01*
X124133473Y-80273444D01*
X124074458Y-80455072D01*
X124073768Y-80461633D01*
X124073768Y-80461635D01*
X124065720Y-80538206D01*
X124054496Y-80645000D01*
X111506500Y-80645000D01*
X111506500Y-73659500D01*
X111526502Y-73591379D01*
X111580158Y-73544886D01*
X111632500Y-73533500D01*
X124371876Y-73533500D01*
X124439997Y-73553502D01*
G37*
%TD.AperFunction*%
%TD*%
M02*
